<?xml version="1.0" encoding="utf-8"?>
<!-- Generator: Adobe Illustrator 18.1.1, SVG Export Plug-In . SVG Version: 6.00 Build 0)  -->
<!DOCTYPE svg PUBLIC "-//W3C//DTD SVG 1.1//EN" "http://www.w3.org/Graphics/SVG/1.1/DTD/svg11.dtd">
<svg version="1.1" id="Layer_1" xmlns="http://www.w3.org/2000/svg" xmlns:xlink="http://www.w3.org/1999/xlink" x="0px" y="0px"
	 viewBox="0 0 100 100" enable-background="new 0 0 100 100" xml:space="preserve">
<path fill="#505150" d="M50,19.5c-13.9,0-25.2,11.3-25.2,25.2c0,6.1,2.2,11.7,5.8,16h0c5,6.1,6.4,13.7,6.4,17.8c0,3.2,2.1,4.4,3,4.8
	c-0.6,0.4-1,1-1,1.7c0,1.2,0.9,2.1,2.1,2.1c-1.2,0-2.1,0.9-2.1,2.1s0.9,2.1,2.1,2.1c-1.2,0-2.1,0.9-2.1,2.1c0,1.2,0.9,2.1,2.1,2.1
	h2.3c-0.1,0.3-0.2,0.5-0.2,0.8c0,1.9,3,3.5,6.8,3.5c3.7,0,6.8-1.6,6.8-3.5c0-0.3-0.1-0.5-0.2-0.8h2.3c1.2,0,2.1-0.9,2.1-2.1
	c0-1.2-0.9-2.1-2.1-2.1c1.2,0,2.1-0.9,2.1-2.1s-0.9-2.1-2.1-2.1c1.2,0,2.1-0.9,2.1-2.1c0-0.7-0.4-1.4-1-1.7c0.9-0.4,3-1.6,3-4.8
	c0-4.1,1.4-11.7,6.4-17.8l0,0c3.6-4.4,5.8-9.9,5.8-16C75.2,30.7,63.9,19.5,50,19.5z M63.6,55.9l-3.4,4.9c-3.3,6-4.4,11.6-4.7,15.1
	H44.4c-0.4-5.8-2.7-13.7-8-20c-2.6-3.1-4-7.1-4-11.2C32.3,34.9,40.3,27,50,27c9.7,0,17.7,7.9,17.7,17.7
	C67.7,48.7,66.2,52.7,63.6,55.9z M5.6,46.8V42h11.9v4.8H5.6z M94.4,42l0,4.8H82.5V42H94.4z M79.7,11.3l3.4,3.4l-8.4,8.4l-3.4-3.4
	L79.7,11.3z M47.6,0l4.8,0v11.9h-4.8L47.6,0z M16.9,14.7l3.4-3.4l8.4,8.4l-3.4,3.4L16.9,14.7z"/>
<path id="_149931032_2_" fill="#F26822" d="M50.2,30.8c-7.6,0-13.8,6.2-13.8,13.8c0,1.5,0.2,3,0.7,4.4h4.1V37.3l9,9l9-9v11.6h4.1
	c0.5-1.4,0.7-2.8,0.7-4.4C64,37,57.8,30.8,50.2,30.8L50.2,30.8z"/>
<path id="_149931160_2_" fill="#4D4D4D" d="M48.1,48.4l-3.9-3.9v7.3h-1.5h-1.5h-2.8c2.4,4,6.8,6.6,11.8,6.6s9.4-2.7,11.8-6.6h-2.8
	h-2.7h-0.3v-7.3l-3.9,3.9l-2.1,2.1L48.1,48.4L48.1,48.4z"/>
</svg>
