<?xml version="1.0" encoding="utf-8"?>
<!-- Generator: Adobe Illustrator 18.1.1, SVG Export Plug-In . SVG Version: 6.00 Build 0)  -->
<!DOCTYPE svg PUBLIC "-//W3C//DTD SVG 1.1//EN" "http://www.w3.org/Graphics/SVG/1.1/DTD/svg11.dtd">
<svg version="1.1" id="Layer_1" xmlns="http://www.w3.org/2000/svg" xmlns:xlink="http://www.w3.org/1999/xlink" x="0px" y="0px"
	 viewBox="0 0 100 100" enable-background="new 0 0 100 100" xml:space="preserve">
<g>
	<g>
		<path fill="#505150" d="M94.1,17.8V0.7c-4.8,2.1-13.9,5.2-18.2,5.4c-4.2,0.2-24.1-2.9-29.5-1.5c-4.3,1.1-28.2,19-35.3,24
			c-11.3,7.9-1.3,9.2,3.5,7.3c4.8-1.8,20.2-10.5,20.2-10.5c0,1.7,0.2,4.2,1.8,6.9c0,0,1.8,2.5,3.9,4.9c-4.6,2.1-7.8,6.7-7.8,12
			c0,4.5,2.3,8.6,5.8,10.9H15.6c-1.3,0-2.3,1-2.3,2.3v35.2c0,1.3,1,2.3,2.3,2.3h60.6c1.3,0,2.3-1,2.3-2.3V62.5c0-1.3-1-2.3-2.3-2.3
			H53.4c3.5-2.4,5.8-6.4,5.8-10.9c0-3.3-1.2-6.4-3.3-8.7c0,0,0,0-0.1-0.1c3.3-1.6,6.8-4.6,15.2-8C85.2,26.7,90,20.1,94.1,17.8z
			 M55.1,31.2c-2.7,1.9-4.5,3.7-5.5,5.3c-0.6-0.2-1.2-0.3-1.8-0.4c-0.5-1.8-1.5-4.1-2.9-7.2c0,0-0.7-1.5-0.4-3.4
			c0.5-2.1,2.4-4.3,7.7-5c8.9-1.1,10.1,3.3,6.1,8C57.3,29.5,56.3,30.4,55.1,31.2z M56.3,65.6c1.3,0,2.3,1,2.3,2.3
			c0,1.3-1,2.3-2.3,2.3H35.6c-1.3,0-2.3-1-2.3-2.3c0-1.3,1-2.3,2.3-2.3H56.3z M46,59c-5.4,0-9.7-4.4-9.7-9.7c0-5.4,4.4-9.7,9.7-9.7
			c0.8,0,1.6,0.1,2.3,0.3c0,1.5,1.2,2.4,3.2,2.2c0.3,0,0.6-0.1,0.9-0.1c2.1,1.8,3.4,4.4,3.4,7.4C55.7,54.6,51.3,59,46,59z"/>
	</g>
</g>
<g>
	<path id="_149931032_2_" fill="#F26822" d="M46,41.6c-4.4,0-8.1,3.6-8.1,8.1c0,0.9,0.1,1.7,0.4,2.5h2.4v-6.8l5.2,5.2l5.2-5.2v6.8
		h2.4c0.3-0.8,0.4-1.7,0.4-2.5C54.1,45.2,50.5,41.6,46,41.6L46,41.6z"/>
	<path id="_149931160_2_" fill="#4D4D4D" d="M44.8,51.8l-2.3-2.3v4.3h-0.9h-0.9h-1.6c1.4,2.3,4,3.9,6.9,3.9s5.5-1.5,6.9-3.9h-1.6
		h-1.6h-0.2v-4.3l-2.3,2.3L46,53L44.8,51.8L44.8,51.8z"/>
</g>
</svg>
