<?xml version="1.0" encoding="utf-8"?>
<!-- Generator: Adobe Illustrator 18.1.1, SVG Export Plug-In . SVG Version: 6.00 Build 0)  -->
<!DOCTYPE svg PUBLIC "-//W3C//DTD SVG 1.1//EN" "http://www.w3.org/Graphics/SVG/1.1/DTD/svg11.dtd">
<svg version="1.1" id="Layer_1" xmlns="http://www.w3.org/2000/svg" xmlns:xlink="http://www.w3.org/1999/xlink" x="0px" y="0px"
	 viewBox="0 0 100 100" enable-background="new 0 0 100 100" xml:space="preserve">
<rect x="48" y="22.1" transform="matrix(0.5106 -0.8598 0.8598 0.5106 6.5722 77.7263)" fill="#5A9A6F" width="47.2" height="22"/>
<g>
	<g>
		<polygon fill="#505150" points="61.8,45 66.5,47.7 75.8,42.3 61.8,34 		"/>
		<path fill="#505150" d="M90.1,28l3.3-6c2.7-4.7-5-10-8.6-12c-3.7-2-12-6.3-14.6-1.3l-4.7,8c-4.7-1-10-1.7-15.3-1.7
			c-27.6,0-49.9,15-49.9,33.2c0,18.3,22.3,33.2,49.9,33.2c0,0,0,0,0.3,0c0.3,4-4.3,10.6-11,14c26.3,0,38.2-19.6,38.2-19.6
			c13.3-6,21.9-16,21.9-27.6C100.4,40.7,96.4,33.7,90.1,28z M23.2,57.6c-2.7,0-4.7-2-4.7-4.7s2-4.7,4.7-4.7s4.7,2,4.7,4.7
			S25.6,57.6,23.2,57.6z M35.5,57.6c-2.7,0-4.7-2-4.7-4.7s2-4.7,4.7-4.7c2.7,0,4.7,2,4.7,4.7S38.2,57.6,35.5,57.6z M47.9,57.6
			c-2.7,0-4.7-2-4.7-4.7s2-4.7,4.7-4.7c2.7,0,4.7,2,4.7,4.7S50.5,57.6,47.9,57.6z M77.4,43.3l-9.6,5.3l-8,4.3v-9V33l13.3-22.9
			c0.7-1.3,5.3,0,10.3,2.7c5,2.7,8.3,6,7.3,7.3L77.4,43.3z"/>
	</g>
</g>
</svg>
