<?xml version="1.0" encoding="utf-8"?>
<!-- Generator: Adobe Illustrator 18.1.1, SVG Export Plug-In . SVG Version: 6.00 Build 0)  -->
<!DOCTYPE svg PUBLIC "-//W3C//DTD SVG 1.1//EN" "http://www.w3.org/Graphics/SVG/1.1/DTD/svg11.dtd">
<svg version="1.1" id="Layer_1" xmlns="http://www.w3.org/2000/svg" xmlns:xlink="http://www.w3.org/1999/xlink" x="0px" y="0px"
	 viewBox="0 0 100 100" enable-background="new 0 0 100 100" xml:space="preserve">
<path fill="#505150" d="M1.4,5.9v87.4c0,3.2,2,5.9,4.5,5.9h5.6V0H6C3.4,0,1.4,2.6,1.4,5.9z"/>
<rect x="86.6" fill="#505150" width="9.3" height="23.4"/>
<rect x="86.6" y="26" fill="#505150" width="9.3" height="23.4"/>
<rect x="86.6" y="52" fill="#505150" width="9.3" height="23.4"/>
<polygon fill="#505150" points="86.6,100 95.9,77.3 86.6,77.3 "/>
<path fill="#505150" d="M48.6,25.5c-0.3,0.3-0.5,0.6-0.6,0.9l0.1,0.1C48.3,26.1,48.4,25.8,48.6,25.5z"/>
<rect x="27.4" y="21.7" fill="#682570" width="43.9" height="57.2"/>
<path fill="#505150" d="M16.7,99.1h64.5V0.2H16.7V99.1z M41.2,38c-0.9-4.7-0.2-6.3-0.2-6.3c1.1-3.5,5-5.2,5-5.2
	c0.9-0.9,0.9-0.6,0.8-0.3c0.2-0.3,0.5-0.5,0.5-0.5c-0.2,0.2-0.4,0.5-0.5,0.7l0.4,0.2c0.3-0.4,0.5-0.7,0.5-0.7
	c-0.2,0.2-0.3,0.5-0.4,0.7l0.2,0.1c0.2-0.8,0.9-1.3,1.2-1.4c0.4-0.5,0.8-0.7,0.8-0.7c-0.4,0.3-0.6,0.7-0.8,1.2c0.4-0.5,1-0.8,1-0.8
	c0,0.9,1,1.8,1.5,2.1C51.1,27,51,26.8,51,26.8c0.2,0.2,0.3,0.4,0.5,0.6c0.1,0,0.1,0,0.2,0c-0.2-0.3-0.4-0.5-0.4-0.5
	c0.2,0.2,0.4,0.3,0.5,0.5c0.2,0,0.3,0.1,0.5,0.1c-0.1-0.1-0.1-0.2-0.1-0.2c0.1,0.1,0.2,0.2,0.3,0.2c2.7,0.8,3.8,2.3,3.8,2.3
	c2.4,2.7,1.1,6.9,0.8,8c1.1-0.3,0.3,2.5,0.3,2.5c-0.1,0.8-0.5,1.2-0.7,1.3c-0.5,3.9-4.1,8.4-7.8,8.4c-3.2,0-6.8-4.3-7.3-8.4
	c-0.2-0.1-0.6-0.5-0.7-1.3C40.8,40.5,40,37.4,41.2,38z M33.2,54.3c0,0,0.8-1.1,2.8-1.9c0,0,6.7-2,7.2-3.8c0,0,5,12.8,11.5,0
	c0,0,0,1.2,3.3,2.3c0,0,6.2,2,7.3,4.2c0,0,3.4,7.8,2.6,14.6c0,0,0,0.6-1.2,1.3c0,0-7.8,3.3-18.6,3.1c0,0-10.5-0.5-17.2-3.5
	c0,0-0.9-0.2-1-2.4C29.9,68.2,30.3,58.6,33.2,54.3z"/>
</svg>
