<?xml version="1.0" encoding="utf-8"?>
<!-- Generator: Adobe Illustrator 18.1.1, SVG Export Plug-In . SVG Version: 6.00 Build 0)  -->
<!DOCTYPE svg PUBLIC "-//W3C//DTD SVG 1.1//EN" "http://www.w3.org/Graphics/SVG/1.1/DTD/svg11.dtd">
<svg version="1.1" id="Layer_1" xmlns="http://www.w3.org/2000/svg" xmlns:xlink="http://www.w3.org/1999/xlink" x="0px" y="0px"
	 viewBox="0 0 100 100" enable-background="new 0 0 100 100" xml:space="preserve">
<g id="Layer_73">
	<g>
		<polygon fill="#505150" points="29.5,56.7 29.5,50.6 11.8,68.3 17.7,68.3 		"/>
		<polygon fill="#505150" points="31.4,48.7 30.3,49.8 43,49.8 43,44.8 8.5,44.8 8.4,9.8 64.6,9.8 64.6,35 69.1,35 69.1,9.6 
			73.2,9.6 73.2,3.6 69.1,3.6 3.8,3.6 0,3.6 0,9.6 3.8,9.6 3.8,48.7 		"/>
		<polygon fill="#505150" points="51.1,77.8 50.1,77.8 45.6,77.8 45.6,79.5 55.9,79.5 55.9,80.2 45.6,80.2 45.6,81.7 74.6,81.7 
			74.6,78 69.3,77.8 		"/>
		<polygon fill="#505150" points="45.6,73.8 45.6,76.6 69.3,76.6 69.3,52 32,52 32,61.3 34.8,61.3 34.8,54.8 66.5,54.8 66.5,73.8 		
			"/>
		<path fill="#505150" d="M16.7,96.9h13.5V74.2H16.7C16.7,74.2,16.7,96.9,16.7,96.9z M23.6,95.9c-0.4,0-0.8-0.3-0.8-0.8
			c0-0.4,0.3-0.8,0.8-0.8c0.4,0,0.8,0.3,0.8,0.8C24.4,95.5,24,95.9,23.6,95.9z M23.7,75.1c0.2,0,0.3,0.1,0.3,0.3
			c0,0.2-0.1,0.3-0.3,0.3c-0.2,0-0.3-0.1-0.3-0.3C23.4,75.3,23.5,75.1,23.7,75.1z M21.8,76.2h3.9v0.3h-3.9V76.2z M18.8,77.6l9.2,0
			v15.6c-3.5,0-7.4,0-9.2,0V77.6z"/>
	</g>
</g>
<g id="text">
</g>
<g id="Layer_73_1_">
	<g>
		<polygon fill="#5A9A6F" points="99.8,72.3 99.8,38.1 46.3,38.1 46.3,49.8 50.2,49.8 50.2,42 95.9,42 95.9,67.3 71.6,67.3 
			71.6,75.9 76.2,76.3 88.7,76.3 88.7,74.5 77.5,74.5 77.5,72.3 		"/>
		<path fill="#5A9A6F" d="M24,72.2h2.8v-6.1h13.7v21.3h-8.1v4.8h10.9V63.4H24L24,72.2L24,72.2z M34,90.8c-0.5,0-0.9-0.4-0.9-0.9
			S33.5,89,34,89c0.5,0,0.9,0.4,0.9,0.9S34.5,90.8,34,90.8z"/>
	</g>
</g>
</svg>
