<?xml version="1.0" encoding="utf-8"?>
<!-- Generator: Adobe Illustrator 18.1.1, SVG Export Plug-In . SVG Version: 6.00 Build 0)  -->
<!DOCTYPE svg PUBLIC "-//W3C//DTD SVG 1.1//EN" "http://www.w3.org/Graphics/SVG/1.1/DTD/svg11.dtd">
<svg version="1.1" id="Layer_1" xmlns="http://www.w3.org/2000/svg" xmlns:xlink="http://www.w3.org/1999/xlink" x="0px" y="0px"
	 viewBox="0 0 100 100" enable-background="new 0 0 100 100" xml:space="preserve">
<g>
	<path fill="#505150" d="M30.7,65.5v29.9H0.9V74.6h24v-3.2h-24v-5.9H30.7z M35.2,44.5v5.9h24v3.2h-24v41.8h29.8V44.5H35.2z
		 M69.6,57.4v5.9h24v3.2h-24v28.9h29.8v-38H69.6z"/>
</g>
<g>
	<path fill="#5A9A6F" d="M62.5,40.9l-4.9-4.3H42.8l-4.9,4.3 M66,15.2c0,0.2,0,3.8-1.8,7.6c-1.5,3.1-4.5,6.7-10.3,7.6v5.2h-7.4v-5.2
		c-5.8-0.8-8.8-4.5-10.3-7.6c-1.8-3.7-1.8-7.4-1.8-7.6c0-0.7,0.6-1.4,1.4-1.4h2.9c-0.8-2.7-1.2-5.7-1.2-8.9h25.4
		c0,3.2-0.4,6.2-1.2,8.9h2.9C65.4,13.8,66,14.4,66,15.2z M46.5,25.2c-2.9-1.4-5.3-4.5-6.9-8.6h-2.4c0.3,2.9,2,9.7,9.3,11V25.2z
		 M50,24.1c-4.5-2.1-7.9-8.9-8.4-17.2h-2C39.9,16.4,44.5,24,50,24.1z M63.1,16.6h-2.4c-1.6,4.1-4.1,7.2-6.9,8.6v2.4
		c3.6-0.6,6.2-2.6,7.9-6C62.6,19.7,63,17.8,63.1,16.6z"/>
</g>
</svg>
