<?xml version="1.0" encoding="utf-8"?>
<!-- Generator: Adobe Illustrator 18.1.1, SVG Export Plug-In . SVG Version: 6.00 Build 0)  -->
<!DOCTYPE svg PUBLIC "-//W3C//DTD SVG 1.1//EN" "http://www.w3.org/Graphics/SVG/1.1/DTD/svg11.dtd">
<svg version="1.1" id="Layer_1" xmlns="http://www.w3.org/2000/svg" xmlns:xlink="http://www.w3.org/1999/xlink" x="0px" y="0px"
	 viewBox="0 0 100 100" enable-background="new 0 0 100 100" xml:space="preserve">
<g>
	<path fill="#505150" d="M65.6,81.2l-1.7,1.4l-1.4-1.7l-3-3.6c-3,0.9-6.2,1.4-9.3,1.4c-17.6,0-31.9-14.3-31.9-31.9
		C18.4,29.3,32.7,15,50.3,15c9.7,0,18.4,4.4,24.3,11.3V9.7l-57.1,5.8l-1.1-0.8l54.1-5.9l-0.1-0.6l-54.8,6l-1-0.7l54.7-6l-0.1-0.6
		L13.8,13l-1-0.7l55.6-6.1l-0.1-0.6L12,11.7l-1.2-0.8l56.3-6.3V4l-57,6.3L8.8,9.5l1.8-0.2L68.5,3l-2.1-3L3.1,6.7v0.9V10v80.7
		l11.5,8.1v0.1l60-6.1v-5.4l-6.8-8L65.6,81.2z"/>
	<path fill="#505150" d="M56,38.9c-0.5-0.5-1.2-1-2.1-1.3c-0.9-0.3-1.9-0.5-3.2-0.5s-2.4,0.2-3.3,0.6c-0.9,0.4-1.6,0.9-2.2,1.5
		c-0.6,0.6-1,1.3-1.3,2.1s-0.4,1.6-0.5,2.4H49c-0.1-0.6,0.1-1.1,0.3-1.5c0.3-0.4,0.7-0.7,1.3-0.7c1,0,1.5,0.4,1.5,1.3
		c0,0.3-0.1,0.5-0.3,0.8c-0.2,0.2-0.4,0.4-0.6,0.5c-0.2,0.1-0.5,0.3-0.8,0.4c-0.3,0.1-0.5,0.2-0.7,0.3c-0.5,0.3-0.9,0.6-1.1,1
		c-0.3,0.4-0.4,0.8-0.5,1.3c-0.1,0.4-0.2,0.9-0.2,1.3c0,0.4,0,0.7,0,1h4.8c0-0.3,0-0.6,0.1-0.8s0.1-0.4,0.2-0.6
		c0.1-0.2,0.3-0.3,0.4-0.5c0.2-0.2,0.4-0.3,0.7-0.5c0.4-0.2,0.9-0.4,1.3-0.7c0.4-0.2,0.8-0.5,1.1-0.8s0.6-0.7,0.8-1.2
		s0.3-1.1,0.3-1.9c0-0.6-0.2-1.2-0.4-1.8C57,40,56.6,39.4,56,38.9z"/>
	<rect x="47.6" y="50.9" fill="#505150" width="5.4" height="5.1"/>
</g>
<g>
	<path fill="#FFD781" d="M97.1,92.2L77.3,68.6l3.1-2.6l-4.1-4.9C78.6,56.9,80,52,80,46.8c0-7.5-2.9-14.4-7.5-19.7
		c-0.1-0.1-0.2-0.2-0.3-0.3c-0.7-0.7-1.4-1.4-2.1-2.1c-0.1-0.1-0.2-0.2-0.3-0.3c-1.7-1.5-3.6-2.8-5.6-3.9c0,0-0.1,0-0.1-0.1
		c-0.9-0.5-1.8-0.9-2.8-1.3c-0.3-0.1-0.6-0.2-0.9-0.3c-0.7-0.3-1.5-0.5-2.3-0.7c-0.4-0.1-0.7-0.2-1.1-0.3c-0.8-0.2-1.5-0.3-2.3-0.4
		c-0.3-0.1-0.7-0.1-1-0.2c-1.1-0.1-2.3-0.2-3.4-0.2c-16.4,0-29.7,13.3-29.7,29.7s13.3,29.7,29.7,29.7c3.5,0,6.9-0.6,10-1.8l4,4.8
		l3.8-3.2l6.5,7.7l0,0l13.3,15.9L97.1,92.2z M67.4,46.4c0,9.5-7.7,17.3-17.2,17.3c-8.3,0-15.3-5.9-16.9-13.8l0,0c-0.2-1-0.3-2-0.3-3
		c0-9.5,7.8-17.3,17.3-17.3c7.7,0,14.3,5.1,16.5,12.1C67.2,43.1,67.4,44.7,67.4,46.4z"/>
</g>
</svg>
