<?xml version="1.0" encoding="utf-8"?>
<!-- Generator: Adobe Illustrator 18.1.1, SVG Export Plug-In . SVG Version: 6.00 Build 0)  -->
<!DOCTYPE svg PUBLIC "-//W3C//DTD SVG 1.1//EN" "http://www.w3.org/Graphics/SVG/1.1/DTD/svg11.dtd">
<svg version="1.1" xmlns="http://www.w3.org/2000/svg" xmlns:xlink="http://www.w3.org/1999/xlink" x="0px" y="0px"
	 viewBox="0 0 100 100" enable-background="new 0 0 100 100" xml:space="preserve">
<g id="Layer_1">
	<g id="_x37_5">
		<g>
			<path fill="#505150" d="M93.5,20.4c-6.7-6.7-24.8-3.1-23.7-4.2L35.2,50.8c-2.5,2.5-2.5,6.5,0,8.9c0,0,13.4,4,15.1,5.8
				c1.3,1.3,6.1,15.4,6.1,15.4c2.5,2.5,6.5,2.5,8.9,0l34.6-34.6C98.8,47.5,103.2,30.1,93.5,20.4z M83.5,38.7c-3.6,0-6.5-2.9-6.5-6.5
				s2.9-6.5,6.5-6.5c3.6,0,6.5,2.9,6.5,6.5S87.1,38.7,83.5,38.7z"/>
		</g>
	</g>
	<g>
		<path fill="#F36C41" d="M22.1,60.5c-2.5-2.5-2.5-6.5,0-8.9l31.5-31.5c-7.9-1.9-18,0-17.1-0.9L1.8,53.8c-2.5,2.5-2.5,6.5,0,8.9
			c0,0,13.4,4,15.1,5.8c1.3,1.3,6.1,15.4,6.1,15.4c2.5,2.5,6.5,2.5,8.9,0l10.5-10.5c0,0,0-0.1-0.1-0.1
			C40.6,71.6,22.1,60.5,22.1,60.5z"/>
	</g>
</g>
<g id="Layer_2">
</g>
</svg>
