<?xml version="1.0" encoding="utf-8"?>
<!-- Generator: Adobe Illustrator 18.1.1, SVG Export Plug-In . SVG Version: 6.00 Build 0)  -->
<!DOCTYPE svg PUBLIC "-//W3C//DTD SVG 1.1//EN" "http://www.w3.org/Graphics/SVG/1.1/DTD/svg11.dtd">
<svg version="1.1" id="Layer_1" xmlns="http://www.w3.org/2000/svg" xmlns:xlink="http://www.w3.org/1999/xlink" x="0px" y="0px"
	 viewBox="0 0 100 100" enable-background="new 0 0 100 100" xml:space="preserve">
<g>
	<path fill="#505150" d="M67.8,18.6c0.2,0.1,0.4,0.2,0.6,0.3c1.4,0.8,3,1.2,4.7,1.2c5.5,0,9.9-4.4,9.9-9.9s-4.4-9.9-9.9-9.9
		c-5.5,0-9.9,4.4-9.9,9.9C63.2,13.8,65.1,16.8,67.8,18.6z"/>
	<path fill="#505150" d="M20.2,59.9c0-6.6,0-33.1,0-33.1s0-1.5,0.8-3.3c-6.9,0-14,0-14,0s-6.6,0-6.6,6.6v23.2c0,6.6,6.6,6.6,6.6,6.6
		V93h19.9V66.6C26.8,66.6,20.2,66.6,20.2,59.9z"/>
	<circle fill="#505150" cx="46.7" cy="10.3" r="9.9"/>
	<path fill="#505150" d="M20.2,20.2c1.7,0,3.3-0.5,4.7-1.2c0.2-0.1,0.4-0.2,0.6-0.3c2.8-1.8,4.6-4.8,4.6-8.3c0-5.5-4.4-9.9-9.9-9.9
		s-9.9,4.4-9.9,9.9S14.7,20.2,20.2,20.2z"/>
	<path fill="#505150" d="M93,51.2c0-7.5,0-21,0-21s0-6.6-6.6-6.6h-14c0.8,1.8,0.8,3.3,0.8,3.3s0,6.3,0,13.4
		c-1.1-0.1-2.2-0.2-3.3-0.2s-2.2,0.1-3.3,0.2c0-5.4,0-10.1,0-10.1s0-6.6-6.6-6.6c-1.7,0-26.5,0-26.5,0s-6.6,0-6.6,6.6v23.2
		c0,6.6,6.6,6.6,6.6,6.6V93h17.7c5.1,4.1,11.6,6.6,18.7,6.6c16.5,0,29.8-13.3,29.8-29.8C99.7,62.8,97.2,56.3,93,51.2z M69.9,93
		c-12.8,0-23.2-10.4-23.2-23.2c0-12.8,10.4-23.2,23.2-23.2C82.7,46.7,93,57.1,93,69.9C93,82.7,82.7,93,69.9,93z"/>
</g>
<path id="_149931032_2_" fill="#F26822" d="M70.1,49.6c-11,0-20,8.9-20,20c0,2.2,0.4,4.3,1,6.3h6V59.1l13,13l13-13v16.8h6
	c0.7-2,1-4.1,1-6.3C90.1,58.6,81.2,49.6,70.1,49.6L70.1,49.6z"/>
<path id="_149931160_2_" fill="#4D4D4D" d="M67.1,75.1l-5.7-5.7V80h-2.2h-2.2h-4.1c3.5,5.8,9.8,9.6,17.1,9.6
	c7.2,0,13.6-3.8,17.1-9.6h-4.1h-3.9h-0.5V69.4l-5.7,5.7l-3,3L67.1,75.1L67.1,75.1z"/>
</svg>
