<?xml version="1.0" encoding="utf-8"?>
<!-- Generator: Adobe Illustrator 18.1.1, SVG Export Plug-In . SVG Version: 6.00 Build 0)  -->
<!DOCTYPE svg PUBLIC "-//W3C//DTD SVG 1.1//EN" "http://www.w3.org/Graphics/SVG/1.1/DTD/svg11.dtd">
<svg version="1.1" id="Layer_1" xmlns="http://www.w3.org/2000/svg" xmlns:xlink="http://www.w3.org/1999/xlink" x="0px" y="0px"
	 viewBox="0 0 100 100" enable-background="new 0 0 100 100" xml:space="preserve">
<g>
	<g id="Layer_1_47_">
		<g>
			<g>
				<g>
					<path fill="#505150" d="M50,0.1c-27.5,0-50,22.4-50,50s22.4,50,50,50s50-22.4,50-50S77.5,0.1,50,0.1z M50,89.7
						c-21.8,0-39.6-17.8-39.6-39.6S28.2,10.5,50,10.5s39.6,17.8,39.6,39.6S71.8,89.7,50,89.7z"/>
				</g>
			</g>
		</g>
	</g>
</g>
<g>
	<g id="Layer_1_1_">
		<g>
			<g>
				<g>
					<path fill="#FFD781" d="M65.4,24.8c-1.1-0.6-5.3-2.4-12.8-2.4c-16.8,0-28.1,11.3-28.1,28.2c0,16.6,10.4,27.3,26.6,27.3
						c6.7,0,11.7-1.3,14.1-2.6c0.7-0.3,1-1.1,0.8-1.8l-1.3-5.3c-0.1-0.5-0.4-0.9-0.9-1.1c-0.4-0.2-1-0.2-1.4,0
						c-2.5,1.2-6.3,1.9-10,1.9c-11.1,0-17.7-7-17.7-18.7c0-12,6.8-19.2,18.1-19.2c3.5,0,7,0.7,9.4,1.9c0.4,0.2,0.9,0.2,1.4,0
						c0.4-0.2,0.8-0.6,0.9-1l1.7-5.3C66.5,25.9,66.1,25.1,65.4,24.8z"/>
				</g>
			</g>
		</g>
	</g>
</g>
</svg>
