<?xml version="1.0" encoding="utf-8"?>
<!-- Generator: Adobe Illustrator 18.1.1, SVG Export Plug-In . SVG Version: 6.00 Build 0)  -->
<!DOCTYPE svg PUBLIC "-//W3C//DTD SVG 1.1//EN" "http://www.w3.org/Graphics/SVG/1.1/DTD/svg11.dtd">
<svg version="1.1" id="Layer_1" xmlns="http://www.w3.org/2000/svg" xmlns:xlink="http://www.w3.org/1999/xlink" x="0px" y="0px"
	 viewBox="0 0 100 100" enable-background="new 0 0 100 100" xml:space="preserve">
<g>
	<path fill="#FEE000" d="M99.1,54.8L76.9,32.5V17.9c0-1.8-1.5-3.3-3.3-3.3c-1.8,0-3.3,1.5-3.3,3.3v8L54.6,10.2
		c-1.3-1.3-3.4-1.3-4.7,0L29.4,30.8c-1.3,1.3-1.3,3.4,0,4.7c1.3,1.3,3.4,1.3,4.7,0l18.2-18.2l42.2,42.2c0.6,0.6,1.5,1,2.3,1
		c0.8,0,1.7-0.3,2.3-1C100.4,58.2,100.4,56.1,99.1,54.8z"/>
	<path fill="#FEE000" d="M89.7,58.6L54.6,23.5c-0.6-0.6-1.5-1-2.3-1s-1.7,0.3-2.3,1L36.4,37c8.9,4.4,15.3,13.2,16.4,23.6
		c2.7,0.5,4.8,2.9,4.8,5.8v12.6c0,2,0.8,3.9,2.1,5.4c1.5,1.6,3.7,2.6,5.9,2.6h17.1c4.4,0,8-3.6,8-8V61.8c0-0.5,0-1-0.1-1.5
		C90.4,59.6,90.1,59,89.7,58.6z"/>
	<path fill="#FEE000" d="M25.1,36.8c-13.8,0-25,11.2-25,25c0,13.8,11.2,25,25,25s25-11.2,25-25C50.2,48,39,36.8,25.1,36.8z M33.3,66
		H16.9c-2.3,0-4.1-1.8-4.1-4.1c0-2.3,1.8-4.1,4.1-4.1h16.4c2.3,0,4.1,1.9,4.1,4.1C37.5,64.1,35.6,66,33.3,66z"/>
</g>
</svg>
