<?xml version="1.0" encoding="utf-8"?>
<!-- Generator: Adobe Illustrator 18.1.1, SVG Export Plug-In . SVG Version: 6.00 Build 0)  -->
<!DOCTYPE svg PUBLIC "-//W3C//DTD SVG 1.1//EN" "http://www.w3.org/Graphics/SVG/1.1/DTD/svg11.dtd">
<svg version="1.1" id="Layer_1" xmlns="http://www.w3.org/2000/svg" xmlns:xlink="http://www.w3.org/1999/xlink" x="0px" y="0px"
	 viewBox="0 0 100 100" enable-background="new 0 0 100 100" xml:space="preserve">
<path fill="#FEE000" d="M85.7,49.5c0,0.4,0,0.9,0,1.4c5.5,3.3,8.5,6.4,7.9,8.8c-1.2,4.5-15.1,4.8-33.1,1.3c0.8-2.5,1.5-5,2.2-7.6
	c7.3-27.3,7.6-51,0.6-52.9c-3.7-1-8.7,4.4-13.7,13.8c0.5,0,0.9,0,1.4,0c3.3-5.5,6.4-8.5,8.8-7.9c5.5,1.5,4.7,21.9-1.6,45.7
	c-0.7,2.7-1.5,5.3-2.3,7.8c-2.6-0.6-5.2-1.2-7.9-2C24.1,51.6,6,42,7.4,36.6c0.6-2.3,4.8-3.6,11.2-3.7c0,0,0,0,0,0c0,0,0-0.1,0.1-0.1
	c0,0,0,0.1-0.1,0.1c0,0,0,0,0,0c0.2-0.3,0.3-0.6,0.3-0.6c0-0.1,0.1-0.3,0.3-0.5C8.7,31.4,1.5,33,0.5,36.7
	c-1.9,7,18.8,18.6,46.1,25.9c2.6,0.7,5.1,1.3,7.6,1.9c-6,17.4-13.2,29.2-17.7,28.1c-2.3-0.6-3.5-4.7-3.6-11.1c0,0,0,0,0,0
	c0,0,0-0.1,0-0.2c-0.3-0.1-0.5-0.3-0.6-0.3c0,0-0.2-0.1-0.3-0.2c0,0,0.1,0,0.1,0.1c-0.1-0.1-0.2-0.1-0.4-0.2c0,0,0,0,0,0
	c-0.4,10.6,1.3,17.8,5,18.8c5.9,1.6,15.1-12.9,22.2-34c21.8,4.4,39,3.6,40.5-2.2C100.5,59.5,95.1,54.5,85.7,49.5z"/>
<path fill="#505150" d="M71.8,69.2c-0.2,0.6-0.5,1.2-0.7,1.5c-0.3,0.5-1.3,1.7-1.8,2.2c-0.1,0.1-0.1,0.1-0.3,0.2
	c-0.7,0.6-2.5,1.9-2.8,2.2c-0.4,0.3-2.5,2.1-2.7,2.3c-0.2,0.2-0.6,0.8-0.6,0.8l-0.3,0.5l0.1,0.4c0,0-0.3,0.3-0.4,0.7
	c0,0.1,0,0.1-0.1,0.2c-2.7,1.1-5.5,1.8-8.3,2.2c-0.5,1.1-1.1,2.2-1.7,3.3c5.3-0.3,10.6-1.9,15.5-4.7c4.9-2.8,8.9-6.7,11.8-11.1
	c-1.2-0.1-2.4-0.1-3.6-0.2C74.6,69.5,73.2,69.3,71.8,69.2z"/>
<path fill="#505150" d="M32.2,80.9c0.4,0.2,0.7,0.4,1.1,0.7c3.1,1.6,6.4,2.8,9.9,3.5c0.6-1,1.2-1.9,1.6-2.6l0.1-0.2c0,0,0,0,0-0.1
	c-0.1,0-0.1,0-0.2,0c-0.1,0-0.1-0.1-0.2-0.1c-0.1-0.1-0.3-0.2-0.4-0.4c-0.2-0.2-0.3-0.4-0.3-0.4s0.1-0.2,0.3-0.4
	c0.1-0.2,0.3-0.3,0.5-0.3c0.1,0,0.2,0,0.3,0c0.3-0.1,0.6-0.2,0.6-0.2l-0.2-0.6l0-0.4L45,77.9l0-0.1l-0.7-0.6l-0.3-0.3l-1.1-1
	l0.3-0.9c0,0,0.3-0.5,0.3-0.1c0,0.3,0,0.8,0,0.8l0.3-0.3l0.4-0.9l-0.4-0.5l-0.5-0.6c0,0-0.1,0.3-0.5,0.1c-0.1,0-0.2-0.1-0.2-0.1
	c-0.2-0.1-0.3-0.3-0.4-0.3c-0.2,0-0.6,0.3-0.6,0c0-0.2,0-0.6-0.1-0.8c-0.1,0-0.2-0.1-0.6-0.2l0,0c-1.2-0.6-0.2-0.5-1.5-0.7l-0.2,0
	C38,71,38.6,71,37.7,71c-0.9,0-1.3,0-1.6-0.2c-0.3-0.2-0.9-0.6-0.9-0.6s-0.4-0.3-1.5-0.6c-1-0.2-1.6,0-1.8-0.5
	c-0.2-0.5-0.8-1.1-1.1-1.5c-0.3-0.4-0.9-1.5-0.9-1.5s-0.1-1-0.2-1.3c-0.1-0.3-0.3-0.7-0.5-1.1c-0.2-0.4-0.3-0.6-0.3-0.6l0.2-0.1
	c0,0-0.8-0.1-0.8-0.5c0-0.4,0-1.1,0-1.1h0.3l-0.1-0.5l-0.1-0.2l0.5-0.3l0.6-1l0-0.2h0c-4.1-1.5-8.1-3.2-11.9-5
	c-1.1-0.5-2.1-1-3.2-1.6c0.3,5.3,1.9,10.6,4.7,15.5c3,5.2,7.2,9.4,11.9,12.4C31.4,80.4,31.8,80.6,32.2,80.9z"/>
<path fill="#505150" d="M19.3,31.7C19.3,31.7,19.3,31.7,19.3,31.7c-0.1,0.2-0.3,0.4-0.4,0.7c-0.1,0.2-0.2,0.3-0.3,0.5
	c-1.8,3.2-3,6.7-3.7,10.3c1,0.6,1.9,1.2,2.6,1.6c0.1,0,0.1,0.1,0.1,0.1c0.1,0,0.1,0.1,0.2,0.1c0.5,0.3,0.8,0.5,1,0.6
	c5.2,2.8,11,5.1,16.8,7.1c0.1-0.2,0.7-1.2,1-1.3c0.3-0.1,0.5-0.3,1-0.3c0.4,0,0.6-0.1,1.1-0.6c0.1-0.1,0.2-0.2,0.3-0.3
	c0.3-0.2,0.4-0.4,0.4-0.4s-0.3,0.4,0.4,0.7c0.4,0.2,0.7,0.2,0.9,0.3c0.2,0,0.3,0,0.3,0s0.1,0.7,0.4,0.5c0.3-0.2,0.6-0.4,0.9-0.4
	c0,0,0.1,0,0.2,0c0.3,0,0.7-0.1,1-0.2c0.3,0,0.5-0.2,0.7-0.2c0.1,0,0.2,0,0.4,0.1c0.1,0.1,0.3,0.1,0.4,0.1c0.3,0,0.6,0,0.7,0.2
	c0.1,0.3,0.4,0.5,0.6,0.6c0.1,0.1,0.2,0.1,0.3,0c0.2-0.1,0.5-0.2,0.5-0.2l0.9,0.2c0,0,0.7-0.1,1,0l0,0c0.3,0.1,0.8,0.1,0.8,0.4
	c0.1,0.2-1,0.4-0.7,0.9c0.3,0.5,0.6,1,0.4,1c-0.1,0-0.3,0.2-0.5,0.3c-0.1,0.1-0.2,0.2-0.2,0.2s0.1,0.1,0.2,0.2
	c0.1,0.2,0.3,0.4,0.4,0.5c0.2,0.2,1.2,0.4,1.2,0.4s0.2-0.1,0.6,0.1c0.3,0.3,0.3,0.9,0.8,1.2c0.4,0.3,1.2,0.4,1.6,0.8l0.7,0.2
	c0.1,0,0.2-0.1,0.2-0.1s0.2-1.1,0.5-1.4c0.4-1.2,0.7-2.5,1.1-3.7c-0.1-0.2-0.1-0.3-0.1-0.5c-0.1-0.4-0.2-0.4-0.3-0.8
	c-0.2-0.5-0.4-0.5-0.4-1c0-0.5,0-0.7-0.1-1.1c-0.1-0.4-0.6-1-0.6-1s0.2-0.4-0.4-0.5c-0.5-0.1-0.9-0.3-1-0.5
	c-0.1-0.2-0.2-0.5-0.2-0.8c0-0.2-0.4-0.6-0.5-0.8c0,0-0.1,0.1-0.2,0.1c-0.3,0.2-0.6,0.4-0.6,0.4s0,0.3,0.1,0.6
	c0.1,0.2,0.5,0.4,0.5,0.6c0,0.2-0.1,0.2,0.1,0.6s0.6,1.1,0.8,1.2c0.2,0.1,0.8,0.4,0.8,0.4s0.5,0.4,0.6,0.6c0.1,0.2,0.1,0.6,0.1,0.6
	l-0.2-0.1c0,0-0.2-0.5-0.3-0.5c-0.2,0-0.6,0.1-0.6,0.1l0.2,0.7l-0.1,0.4l-0.3,0.3L53,52.1h-0.6c0,0,0,0.2,0,0.5
	c0,0.3-0.3,0.5-0.5,0.3c-0.1-0.2-0.4-0.5-0.6-0.6c-0.2-0.2-1-0.5-0.7-0.7c0.4-0.2,0.2-0.5,0.5-0.2c0.3,0.3,0.4,0.3,0.4,0.3
	s0.2-0.2,0.4-0.1c0.2,0.1,0.8,0.1,0.8,0.1l0.6-0.4L53,50.6c0,0-0.5-0.6-0.8-0.9c-0.3-0.3-1.1-1.4-1.2-1.6c-0.2-0.2-0.7-0.4-0.6-0.7
	c0.1-0.3,0-0.7-0.1-0.9c-0.1-0.2-0.6-0.3-0.6-0.3s0,0,0,0c-0.2,0.2-0.4,0.3-0.5,0.4L49,46.5c-0.2,0.1-0.5,0.3-0.7,0.3
	c-0.2,0-0.7-0.2-0.9-0.4c-0.2-0.2-0.8-0.2-1.1-0.2c-0.1,0-0.1,0-0.1,0.1c-0.1,0.2,0,0.6,0,0.6s-0.4,0.5-0.5,0.7
	c-0.1,0.1-0.5,0.1-0.7,0c-0.2,0-0.3-0.1-0.3-0.1s-0.2,0.1-0.5,0.3c-0.2,0.1-0.5,0.3-0.6,0.3c-0.2,0-0.1,0.5-0.1,0.5l0,0.5l-0.5,0
	l-0.2,0.6h-0.6l-0.4,0.3c0,0-0.5-0.1-1.1-0.2c-0.5-0.1-1-0.2-1.1-0.3c-0.2-0.1,0-0.1-0.3-0.3c-0.3-0.2,0-0.3,0-0.5
	c0-0.2-0.2-0.2-0.3-0.3c-0.1,0-0.1,0-0.1,0s-0.7-0.8-0.7-1.1c0-0.2,0.1-0.5,0.2-0.8c0.2-0.3,0.3-0.2,0.5-0.4c0,0,0,0,0.1,0
	c0.2-0.1,0.1-0.1,0.3-0.4c0.3-0.3,0.1-0.1,0.1-0.4c0-0.3,0.1-0.2,0.3-0.3c0.2-0.1,0.1-0.3,0.1-0.6c0.1-0.3,0-0.6,0-0.6
	s0.3-0.3,0.4-0.3c0.1,0,0.3,0.1,0.4,0.2c0.1,0,0.1,0.1,0.1,0.1s0.1,0.2,0.4,0.3c0.3,0.1,0.4,0.2,0.8,0.5c0.3,0.2,0.3,0.1,0.4,0.1
	c0,0,0.1,0,0.2,0c0.3,0.1,0.4,0.3,0.6,0.4C43.5,45.2,44,45,44,45s0.1-0.2,0.3-0.3c0-0.1,0.1-0.1,0.1-0.2c0.1-0.2,0.2-0.1,0.3-0.3
	c0.1-0.2,0.1-0.6,0.1-0.9c0-0.3-0.2-0.5-0.2-0.5s0.3-0.3,0.3-0.5c0-0.2-0.5-0.2-0.6-0.3c0,0,0,0,0,0c0-0.2-0.3-0.5-0.4-0.8
	c-0.1-0.3,0.3-0.2,0.3-0.2l0.1,0.1l0.6,0.4l0.2,0l0.1,0l0.3,0L45.3,41c0,0-0.1-0.2,0.1-0.4c0.2-0.2,0.3,0.1,0.3,0.1l0.2,0.6
	c0,0,0.1,0,0.2,0c0.1,0,0.2-0.1,0.3-0.1c0.2-0.1,0.2-0.2,0.5-0.1l0.1,0.1c0.2-0.1,0.3-0.3,0.3-0.3s-0.1-0.4,0.1-0.4
	c0.2,0,0.6,0,0.6,0l0.3-0.3l0.5,0.1l0.1-0.4l0.1-0.2c0,0,0.6-0.6,1-0.5c0.4,0.1,0.6,0.3,0.6,0.3l0.2-0.3l0.4,0.1l0.2-0.6l0-1.2
	l0.9-0.6c0,0,0-0.7,0.3-0.4c0.3,0.4,0.1,1.2,0.1,1.2L52.2,38L52,38.4c0,0,0.1,0,0.1,0.2c0,0.2-0.2,0.2,0,0.5
	c0.2,0.3,0.6,0.4,0.6,0.4l0.4-0.4l0.5,0.6c0,0,0.8,0.1,1,0c0.2-0.1,0.6-0.5,0.8-0.5c0.2,0,0.4,0.3,0.4,0.3s0.1,0.2,0.4,0
	c0,0,0.1,0,0.1-0.1c0.3-0.2,0.6-0.2,0.6-0.2s-0.5-0.7-0.2-0.9c0.3-0.2,0.1-0.8,0.6-0.9c0.5,0,0.7,0.5,0.7,0.5l0.5-0.3
	c0,0-0.6-0.3-0.6-0.5c0-0.2-0.3-0.5,0.2-0.6c0.5,0,0.6-0.3,1.1-0.3c0.4,0,0.5,0.1,0.7,0.1l0.2-0.9c-0.5,0.1-0.9,0.2-1,0.3
	c-0.2,0.2-0.5,0.3-0.8,0.4c-0.3,0-0.7-0.2-0.7-0.2l-0.5-1.4l0.7-0.8l0.5-0.7l0.4-0.3l-0.3-0.4c0,0-0.9-0.4-0.9-0.1
	c-0.1,0.3-0.1,0.7-0.1,0.7s0.6,0,0.2,0.2c-0.4,0.2-0.7,0.6-0.9,0.6c0,0,0,0-0.1,0c-0.2,0-0.5,0.1-0.5,0.3c0,0.2,0,0.1,0,0.4
	c0,0.3,0.1,0.8,0.2,1c0.1,0.1,0.2,0.2,0.3,0.2c0.1,0.1,0.2,0.2,0.1,0.3c0,0-0.1,0.1-0.1,0.2c-0.2,0.2-0.5,0.4-0.5,0.4l-0.6,0.2
	c0,0-0.1,0.5-0.1,0.9c0,0.4,0.1,0.5-0.4,0.5c-0.5,0-0.8,0.3-0.8,0.5c0,0.2-0.6,0.3-0.6,0.1c0-0.2-0.1-0.7-0.1-0.7l0.3-0.3
	c0,0-0.3,0.3-0.4,0.1c0-0.2,0.1-0.7,0.1-1c0-0.3-0.4-0.9-0.4-0.9s-0.3,0.1-0.6,0.3c-0.3,0.2,0.2,0.4-0.5,0.2
	c-0.7-0.2-0.9-0.5-0.9-0.7c0-0.2,0-0.2,0.4-0.4c0.4-0.2,0.7-0.4,0.7-0.4s-0.5,0-0.6-0.3c-0.1-0.2,0-0.5,0-0.5l0.5-0.1l-0.3-0.3
	l0.6-0.1c0,0,0.2-0.1,0.6-0.4c0.5-0.3,0.4-0.4,0.6-0.5c0.2-0.1,0.5-0.3,0.7-0.4c0.2-0.1,0.6-0.2,0.6-0.2s0.3,0,0.3-0.3
	c0-0.3,0.1-0.7,0.1-0.7s0.2-0.1,0.5-0.1c0.3,0,0.5-0.4,0.5-0.4l0.4-0.4v0c0,0,0.2-0.7,0.7-0.6c0.6,0.1,1-0.3,1-0.3s0-0.4,0.5-0.2
	c0.5,0.2,0.7,0.3,0.9,0.6c0.1,0.2,0.5,0.5,0.5,0.5c0,0,0,0,0.4,0c0.2,0,0.3,0.1,0.5,0.1c0.4-3.1,0.7-6.1,0.8-9.1c0-0.3,0-0.9,0-1.6
	c0-0.8,0-1.9-0.1-3c-3.3-1.1-6.7-1.8-10.2-1.9c-0.8,0-1.9,0-2.7,0c-5.6,0.2-11.3,1.7-16.6,4.7C26.4,22.4,22,27,19,32.4
	C19.1,32.2,19.2,31.9,19.3,31.7z M49.1,48l0.1-0.3l0.4-0.3c0,0,0.4-0.4,0.3-0.1c-0.1,0.3-0.1,0.2-0.2,0.4c-0.1,0.2-0.5,0.3-0.6,0.4
	c-0.1,0-0.1,0-0.1,0L49.1,48z M48.5,49.9c0.2-0.1,0.4-0.3,0.5-0.5l0,0c0.1-0.2,0.4-0.6,0.4-0.6s0.4,0.2,0.3,0.4
	c-0.1,0.2-0.1,0.5-0.2,0.8s0.1,0.4-0.2,0.5c-0.1,0-0.2,0.1-0.3,0.1c-0.2,0-0.3,0-0.4,0c-0.2,0-0.3-0.2-0.3-0.2S48.4,50,48.5,49.9z
	 M56.2,24.1c0,0.2,0.1,0.5,0.2,0.3c0,0,0,0,0,0c0.1-0.2,0.2-0.3,0.2-0.3s0.2-0.2,0.4-0.1c0.2,0.1,0.3,0.1,0.2,0.2
	c-0.2,0.1-0.5,0.3-0.5,0.3l0.4,0.3L56.8,25l-0.3,0.5l-0.1,0.1l-0.2,0.1c0,0-0.3-0.2-0.4-0.4c-0.1-0.1-0.1-0.4-0.1-0.5
	c0-0.1,0-0.4,0-0.4S55.6,24,55.6,24C55.5,24,56.2,23.9,56.2,24.1z M43.8,38.1l-0.9-0.4l0.4-0.2L43,37.2l0.6-0.2c0,0,0.4-0.3,0.1-0.3
	c-0.3,0-0.4,0-0.4,0s-0.3-0.1-0.3,0l0.4-0.4l0.4-0.1l0.3,0.4l0.1,0l0.7-0.3c0,0,0,0,0.1,0c0.2,0,0.5,0,0.5,0.1
	c0.1,0.2,0.2,0.3-0.2,0.5C45.2,36.9,45.1,37,45,37c-0.1,0.1-0.1,0.1-0.1,0.3c0,0.4-0.3,0.8-0.3,0.8l-0.3,0L43.8,38.1z M44.7,27.9
	l-0.1-0.2l0.4-0.2l0.1-0.1c0,0,0,0.3,0.2,0.6c0.2,0.4,0.3,0.4,0.3,0.4s0-0.6,0.2-0.2c0.2,0.4,0.1,0.4,0.4,0.4h0
	c0.4,0,0.8-0.1,0.8,0.2c0,0.3-0.5,0.6-0.5,0.6l-0.3,0.1L46,29.6c0,0,0,0,0,0l0,0c0,0-0.1,0-0.5,0.1c-0.2,0-0.4,0.1-0.5,0
	c-0.4-0.1-0.6-0.3-0.7-0.5c0,0,0,0,0-0.1c-0.1-0.3,0-0.9,0-0.9h0l0.5,0L44.7,27.9z M48,39.4c-0.4,0.3-0.3,0.4-0.6,0.4
	c-0.3,0-0.3,0-0.4,0.2c0,0.2-0.4,0.4-0.4,0.4L46.3,40l0,0c0,0-0.5,0-0.7,0c-0.2,0-0.1-0.3-0.3-0.3c-0.1,0-0.2,0.2-0.2,0.3
	c0,0.1-0.1,0.1-0.2,0c-0.2-0.3-0.4-0.5-0.4-0.5l0.4-0.4l0.2,0.1l0.5,0.2L45.2,39L45,38.9l-0.1-0.1l-0.1-0.4h0.6l0.1-0.7
	c0,0,0.6,0.5,0.7,0.2c0.1-0.3,0.1-0.8,0.1-0.8s-0.2-0.3-0.1-0.5c0.1-0.1,0.1-0.2,0.1-0.3c0.1-0.2,0.1-0.3,0.1-0.3l-0.1-0.2l-0.2-0.3
	v-0.3c0.1-0.2,0-0.3,0.2-0.5c0,0,0.1-0.1,0.2-0.1c0.4-0.2,0.6-0.5,0.6-0.5l0.5,0.3c0,0,0.5,0.3-0.1,0.3c-0.6,0-0.8,0.1-0.5,0.2
	c0.4,0.1,0.8,0.3,0.8,0.3s0.2,0.4,0,0.5c-0.2,0.1-0.8,0.1-0.8,0.1v0.4c0,0,0.3-0.1,0.3,0.2c0,0.3,0.1,0.5,0.2,0.7c0,0.3,0,0.5,0,0.5
	l0,0.6c0,0-0.3,0.3,0,0.4C47.9,38.8,48.4,39.1,48,39.4z M49.2,17.5c0.2,0,0.3,0,0.5,0c0,0.1-0.1,0.2-0.2,0.2
	c-0.2,0.1-0.3,0.4-0.4,0.1C49.1,17.7,49.2,17.6,49.2,17.5z M46.8,17.6c0,0,0,0.1,0,0.1c0.1,0.5,0.4,0.7-0.1,0.6
	c-0.2,0-0.3,0-0.4-0.1c-0.2,0-0.2-0.1-0.2-0.2c0-0.2,0.2-0.3,0-0.3c-0.1,0-0.1,0-0.2-0.1C46.1,17.7,46.5,17.7,46.8,17.6z M46.2,21.1
	L46.2,21.1l0.5,0c0,0,0.3-0.2,0.3-0.4c0-0.2-0.1-0.6-0.1-0.6l0.7-0.1l0.4-0.2h0.7l0.4,0.3l0,0l0.7-0.4c0,0-0.2-0.2-0.4-0.4
	c-0.1-0.1-0.3,0-0.4,0.1C49,19.7,49,19.7,49,19.7s-0.7-0.1-0.7-0.3c0-0.2,0.6-0.3,0.6-0.3s0.1-0.1,0.2-0.1c0.2-0.1,0.4-0.3,0.7-0.3
	c0.5-0.1,0.2,0,0.4,0.4c0.2,0.3,0.2,0.4,0.2,0.4s0.4-0.2,0.5-0.4c0.1-0.2,0.7,0.1,0.7,0.1l-0.3,0.3l0.2,0.3L51.1,20c0,0-0.3,0-0.5,0
	c-0.2,0-0.1,0.2-0.1,0.2l0.3,0.3l0.4-0.1l0,0.5c0,0,0.1,0.3,0.4,0.2c0.3-0.1,0.5-0.1,0.5-0.1l0.1,0.2c0,0,0.4,0,0.6,0
	c0.2,0,0.4,0.3,0.4,0.3s-0.2,0.5-0.4,0.5c-0.2,0-0.2,0.3-0.2,0.3s0.2,0.2,0.4,0.2c0.2,0,0.1,0.3,0.1,0.3s-0.1,0.1-0.3,0.1
	c-0.2,0-0.8,0.1-0.8,0.1l-0.9,0.4l0.1,0.4L50.8,24l-0.3-0.5l-0.3,0.6L50,24.4c0,0-0.4,0.1-0.6,0.1c-0.2,0,0,0.2,0,0.5
	c0,0.1-0.2,0.1-0.3,0.1c-0.1,0-0.3-0.1-0.3-0.1l0-0.5L48,24.4l0,0.7l0.1,0.4l-0.7,0.2l-0.1-0.5l-0.5,0.1l-0.4,0.2
	c0,0,0.4,0.2,0.6,0.2c0.2,0,0.2,0.6,0.2,0.6l-0.7-0.2c0,0-0.1,0-0.1,0.1c-0.1,0-0.4,0.1-0.6,0C45.3,26,45.4,26,45.4,26l-0.4-0.3
	l-0.1,0l-0.4-0.2l-0.1,0.4h-0.7c-0.3,0-0.5,0.3-0.5,0.3s-0.4,0-0.6-0.1c-0.1,0-0.1,0-0.1-0.1c-0.1-0.1-0.1-0.2-0.1-0.2l-0.5,0.1
	l-0.6-0.3L40.8,26l-0.1,0.1c0,0-0.2,0-0.5,0c-0.2,0-0.5,0.3-0.7,0.4c-0.1,0-0.2,0.1-0.4,0.1c-0.2,0.1-0.5,0.2-0.6,0.2
	c-0.2,0.1-0.1,0.2-0.3,0.4c-0.2,0.2-0.4,0-0.7-0.3l-0.1-0.3l0.6-0.1l-0.3-0.4l0.2-0.4c0,0,0.2-0.3,0.4-0.5c0.2-0.2,0.6-0.3,0.6-0.3
	s0.1,0,0.2-0.1c0.1-0.1,0.2-0.2,0.2-0.3c0-0.2,0.6-0.5,0.6-0.5l0.7-0.1l0.2-0.5l0-0.1l1-0.4l0.7,0.1l0.1,0c0,0,0.4-0.1,0.6-0.3
	c0.2-0.2,0.4-0.3,0.4-0.3s0.3-0.1,0.6-0.1c0.1,0,0.1,0,0.2,0c0.2,0,0.2-0.2,0.2-0.5c0-0.3,0.2-0.1,0.4-0.2c0,0,0.1,0,0.1-0.1
	c0.2-0.2,0.7-0.2,0.7-0.2L46.2,21.1z M38.9,21.3c0.1,0,0.1,0,0.2-0.1c0.3-0.2,0.4-0.7,0.4-0.7s0.3-0.3,0.3,0c0,0.3,0.1,0.5,0.1,0.5
	l0.6,0.1l0.1-0.4h0.8l0.6-0.4c0,0,0.3-0.3,0.6-0.3h0c0.3,0,0.6,0,0.6,0l0.3-0.5l0.1-0.3c0,0,0.2-0.3,0-0.3c-0.2,0-0.9,0-1,0h0
	L42.3,19l0.3,0.1l0.5,0.1l-0.2,0.4l-0.2,0l-0.6,0l-0.7,0.3c0,0,0.2-0.6-0.1-0.4c-0.2,0.1-0.2,0.1-0.3,0.1c-0.1,0-0.2,0.1-0.3,0.2
	c-0.5,0.3-0.7,0.4-0.9,0.4c-0.1,0-0.4,0-0.5,0c-0.1,0-0.1,0-0.1,0s-0.1-0.3,0.1-0.4l0,0c0.2-0.2,0.9-0.4,0.9-0.4s0.5-0.3,0.2-0.3
	c-0.2,0-0.3,0-0.6,0c1.2-0.4,2.4-0.7,3.7-1c0,0-0.1,0-0.1,0.1c-0.2,0.3,0.3,0.3,0.5,0.1c0.1-0.1,0.3-0.1,0.4-0.1
	c0.2,0,0.3,0,0.3,0.2c0,0.2,0.2,0.3,0.4,0.3l0.1,0c0.3,0.1,0.7,0.4,0.5,0.5c-0.1,0.1-0.4,0.1-0.6,0.1c-0.2,0-0.4,0-0.4,0.1
	c0,0.3,0.2,0.6-0.2,0.6c-0.1,0-0.1,0-0.2,0c-0.2,0-0.3-0.2-0.4,0.1c-0.2,0.4-0.7,0.7-0.7,0.7l-0.6,0.2l-0.3,0.1l-0.7,0l-0.4,0.5
	l-0.4,0.4l-0.1,0.1l-1.1,0.2l0.9-0.5l-0.2-0.3c0,0-0.2-0.1-0.6,0.2c-0.2,0.1-0.4,0.3-0.7,0.4c-0.3,0.2-0.6,0.4-0.8,0.5
	c-0.2,0-0.8-0.1-0.8-0.1l0.7-0.7C38.2,21.8,38.5,21.4,38.9,21.3z M33.7,21.8c0.3-0.2,0.6-0.3,0.9-0.5l-0.1,0.4L33.7,21.8
	c0.1,0.1-0.4,0.4-0.9,0.6c-0.5,0.3-0.7,0.4-0.7,0.4l1.1-0.5l0.5-0.2l0.6,0.1c0,0,0.4-0.2,0.8-0.4c0.4-0.2,0.7-0.5,1-0.5
	c0.2,0,0.6,0.2,0.7,0.1c0.2-0.1,1.2-0.6,1.2-0.6s-0.4,0.6-0.6,0.9c-0.2,0.3-0.5,0.7-0.5,0.7h-0.4c0,0,0.1,0.1-0.2,0.2
	c-0.3,0.1-0.2-0.1-0.6,0.2c-0.4,0.3-0.8,0.3-0.8,0.3l0.9,0.3c0,0,0.6-0.6,0.7-0.3c0,0.2,0.6,0.3-0.2,0.5c-0.8,0.2-0.9,0.2-1.5,0.7
	c-0.6,0.4-1.4,0.8-1.5,1c-0.1,0.2-0.2,0.9-0.2,0.9l-0.6,0.4c0,0,0.2,0.2-0.1,0.5s-1.5,0.8-1.7,1.1c-0.2,0.3-0.6,0.7-0.6,0.7
	s0.2,0.1,0.2,0.3c0,0.2-0.4,0.4-0.4,0.4s0-0.2-0.3-0.3c-0.3-0.1-0.5-0.3-0.5-0.3l0.4-0.4c0,0,0.4-0.5,0.6-0.5c0.2,0,1.2-0.6,1.2-0.6
	l-0.2-0.2h-0.7l0.2-1.4l-0.7-0.2l-0.7,0.4c0,0,0.7,0,0.7,0.2c0,0.2-0.2,0.6-0.2,0.6l-0.4-0.3l-0.2,0.6c0,0-0.8,0.2-0.8,0.5
	c0,0.3-0.3,1.1-0.3,1.1s-1,0-0.9-0.2c0.1-0.2,0.4-0.7,0.4-0.7l0.4-0.2l-0.6-0.2l-0.6,0.4l-0.5,0C28.3,25.6,30.8,23.5,33.7,21.8z"/>
<path fill="#505150" d="M78.1,33.7c4.7,8.1,5.5,17.4,2.9,25.8c0-0.1,0-0.1-0.1-0.4c-0.1-0.3-0.2-0.3,0-0.8c0.2-0.5,0.1-0.4-0.2-0.8
	c-0.3-0.4,0.2-1,0.2-1v-0.5l-0.7,0.4l-0.7,0.1L79,56.2c0,0-0.2,0.2-0.5,0.4c-0.3,0.2,0.1,0.1-0.6,0.5c-0.7,0.4-0.4,0.3-1.2,0.7
	c-0.8,0.3-1.1,0.6-1.1,0.3c0-0.3,0.3-0.8-0.1-0.8c-0.4,0-0.5,0.4-0.5,0.4l-0.6,0.6L74,58.2c0,0-0.1-0.2-0.4-0.2
	c-0.3,0-0.5-0.1-0.5-0.1s0.1-0.5-0.2-0.7c-0.3-0.3-0.4-1.1-0.8-0.7c-0.3,0.4-0.7,0.8-0.7,0.8l-0.1,0.3c0,0,0,0,0,0
	c0.1,0.3,0.3,0.5,0.3,0.5s0.3,0.5,0.5,0.5c0.2,0,0.5,0.6,0.5,0.6l0,0.5c0,0,0.4-0.2,0.6-0.1l-0.1,0.6c0,0,0.5,0,0.9-0.3
	c0.4-0.2,0.7-0.7,0.7-0.7l0.4-0.8l0.5,0.1l0.1,0.7l1.1,0.3c0,0-0.2,0.5-0.2,0.8c0,0.2-0.2,0.7-0.3,1.2c0.9,0.1,1.9,0.1,2.8,0.1
	c0.3,0,0.9,0,1.6,0c0.8,0,1.9,0,3-0.1c1.2-3.5,1.9-7.1,1.9-10.8v0c0,0,0,0,0,0c0-0.4,0-0.9,0-1.4c0,0,0,0,0,0c0,0.2,0,0.3,0,0.5
	c0-6.1-1.5-12.2-4.8-17.9c-2.8-4.9-6.7-8.9-11.1-11.8c-0.1,1.2-0.1,2.5-0.2,3.7C72.9,26.6,75.9,29.8,78.1,33.7z"/>
<path fill="#505150" d="M64.3,53.5L64.3,53.5l-0.1,0.3c-0.3,1.1-0.6,2.3-1,3.5c0.3,0,0.5,0,0.5,0s0.3-0.1,0.4-0.5
	c0.1-0.4,0.3-0.8,0.3-0.8s0.1,0,0.2,0c0.1-0.2,0.2-0.4,0.2-0.6c0-0.5-0.2-0.6-0.2-0.9c0-0.3,0.1-1,0.1-1L64.3,53.5z"/>
<path fill="#505150" d="M41.4,72.1C41.4,72.1,41.4,72.1,41.4,72.1C41.5,72.2,41.5,72.2,41.4,72.1z"/>
<path fill="#505150" d="M41.2,72c-0.1,0,0,0.1,0.1,0.1C41.4,72,41.3,72,41.2,72z"/>
<path fill="#505150" d="M52.5,45.7C52.5,45.7,52.5,45.7,52.5,45.7C52.5,45.7,52.5,45.7,52.5,45.7z"/>
<path fill="#505150" d="M44.6,17.9c0.1,0.1,0.1,0.2,0.1,0.2s0-0.1,0.1-0.2C44.7,17.9,44.6,17.9,44.6,17.9z"/>
</svg>
