<?xml version="1.0" encoding="utf-8"?>
<!-- Generator: Adobe Illustrator 18.1.1, SVG Export Plug-In . SVG Version: 6.00 Build 0)  -->
<!DOCTYPE svg PUBLIC "-//W3C//DTD SVG 1.1//EN" "http://www.w3.org/Graphics/SVG/1.1/DTD/svg11.dtd">
<svg version="1.1" id="Layer_1" xmlns="http://www.w3.org/2000/svg" xmlns:xlink="http://www.w3.org/1999/xlink" x="0px" y="0px"
	 viewBox="0 0 68.7 87" enable-background="new 0 0 68.7 87" xml:space="preserve">
<path fill="#4E4E4E" d="M37.2,79.8c-1.1-1.9-1.7-2.5-2-2.8c-0.2-0.2-0.4-0.4-0.5-0.7c-1.4-1.1-2-3-1.9-4.5c0-0.5,0.2-0.9,0.3-1.3
	H4.7V10.7h39.8v44.7c0,0,0,0,0,0.1c0.7,1.4,1.6,3.2,2.3,4.6c0.3-0.2,0.7-0.4,1.1-0.6c0.4-0.1,0.8-0.3,1.4-0.3V6.3
	C49.3,2.8,46.5,0,43,0H6.3C2.8,0,0,2.8,0,6.3v74.4C0,84.2,2.8,87,6.3,87H43c1.3,0,2.6-0.4,3.6-1.1c-1.5-0.6-3.3-1.5-5-2.8
	C38.1,81.6,37.4,80.4,37.2,79.8z M38.8,4c0.9,0,1.6,0.7,1.6,1.6c0,0.9-0.7,1.6-1.6,1.6c-0.9,0-1.6-0.7-1.6-1.6
	C37.2,4.7,37.9,4,38.8,4z M16.2,4.6h17v1.9h-17V4.6z M32.4,80.3H16.9v-4.8h15.5L32.4,80.3L32.4,80.3z M41.5,37.4
	c0,1.1-0.9,1.9-1.9,1.9H10.1c-1.1,0-1.9-0.9-1.9-1.9c0-1.1,0.9-1.9,1.9-1.9h29.4C40.6,35.5,41.5,36.3,41.5,37.4z M35.9,47.4h-26
	c-1.1,0-1.9-0.9-1.9-1.9c0-1.1,0.9-1.9,1.9-1.9h29.4c1.1,0,1.9,0.9,1.9,1.9s-0.9,1.9-1.9,1.9h-0.4c-0.9-0.3-1.9-0.5-2.8-0.1
	C36.1,47.3,36,47.3,35.9,47.4z M30.4,51.8c0.1,0.5,0.2,1,0.3,1.5c0.3,0.8,0.6,1.6,0.9,2.3H9.9c-1.1,0-1.9-0.9-1.9-1.9
	c0-1.1,0.9-1.9,1.9-1.9L30.4,51.8L30.4,51.8z M55.6,86.8c0,0,0.6-1.4-2-2c0,0-4.7,0.1-9.8-2.9c0,0-3.5-1.2-3.8-2.1
	c-2.4-3.5-3-3-3.1-3.7c-2.4-1-3-6.4,1.6-4c0.1,0,3.1,2.4,3.1,2.3c0,0,2.5,2.1,3.8,2.1c1.7-1-3.3-8.4-3.3-9c0,0-2.7-4.6-7.2-13.8
	c-2.2-5.5,1.5-4.5,3-2.7c0.4-0.1,7.5,12.2,8,12.1c0,0,2-4.3,5.6-1.4c0,0,2.4-3.6,5.5-0.6c0,0,4.7-1.9,6.4,2.4c0,0,4.9,7.2,4.8,14
	l0.5,2.7L55.6,86.8z"/>
<path id="_149931032_2_" fill="#F16924" d="M17.9,12.9c-5.5,0-9.9,4.4-9.9,9.9c0,1.1,0.2,2.1,0.5,3.1h2.9v-8.3l6.4,6.4l6.4-6.4v8.3
	h2.9c0.3-1,0.5-2,0.5-3.1C27.8,17.3,23.4,12.9,17.9,12.9L17.9,12.9z"/>
<path id="_149931160_2_" fill="#4E4E4E" d="M16.4,25.5l-2.8-2.8v5.2h-1.1h-1.1h-2c1.7,2.8,4.9,4.7,8.4,4.7c3.6,0,6.7-1.9,8.4-4.7h-2
	h-1.9h-0.2v-5.2l-2.8,2.8L17.9,27L16.4,25.5L16.4,25.5z"/>
</svg>
