<?xml version="1.0" encoding="utf-8"?>
<!-- Generator: Adobe Illustrator 18.1.1, SVG Export Plug-In . SVG Version: 6.00 Build 0)  -->
<!DOCTYPE svg PUBLIC "-//W3C//DTD SVG 1.1//EN" "http://www.w3.org/Graphics/SVG/1.1/DTD/svg11.dtd">
<svg version="1.1" id="Layer_1" xmlns="http://www.w3.org/2000/svg" xmlns:xlink="http://www.w3.org/1999/xlink" x="0px" y="0px"
	 viewBox="0 0 100 100" enable-background="new 0 0 100 100" xml:space="preserve">
<g>
	<path fill="#505150" d="M27.3,32.2H27c-0.4,0-0.7-0.1-1-0.3s-0.4-0.6-0.4-1.3v-6.9l7.4,9h0.3v-9c0-0.5,0-0.9,0.1-1.1
		c0.1-0.2,0.2-0.4,0.4-0.5c0.2-0.1,0.5-0.2,0.9-0.2v-0.3H31v0.3c0.6,0,1,0.1,1.3,0.4c0.2,0.2,0.3,0.7,0.3,1.3v4.7l-5.4-6.7h-3.9v0.3
		c0.3,0,0.6,0.1,0.8,0.2c0.2,0.1,0.4,0.3,0.6,0.6l0.2,0.3v7.7c0,0.6-0.1,1-0.4,1.2c-0.2,0.2-0.7,0.4-1.3,0.4v0.3h3.9L27.3,32.2
		L27.3,32.2z"/>
	<path fill="#505150" d="M44.7,29h-0.3c-0.3,1-0.7,1.7-1.3,2.1c-0.6,0.5-1.4,0.7-2.4,0.7H40c-0.3,0-0.5,0-0.7-0.1
		c-0.1-0.1-0.2-0.2-0.3-0.3C39,31.3,39,30.9,39,30.3v-3.1c0.5,0,0.9,0.1,1.2,0.2c0.3,0.1,0.5,0.4,0.7,0.8c0.2,0.4,0.3,0.9,0.4,1.5
		h0.3v-5.7h-0.3C41.2,25,41,25.6,40.7,26c-0.3,0.4-0.8,0.7-1.5,0.7H39v-4.4h1.1c0.8,0,1.4,0.1,1.7,0.1c0.5,0.2,0.9,0.4,1.2,0.8
		c0.3,0.3,0.5,0.9,0.7,1.7h0.3v-3.2h-9.1v0.3h0.4c0.4,0,0.6,0.1,0.8,0.2c0.1,0.1,0.2,0.2,0.3,0.4c0,0.1,0,0.4,0,0.9v7.1
		c0,0.5,0,0.9-0.1,1c-0.1,0.2-0.2,0.3-0.3,0.4c-0.2,0.1-0.4,0.2-0.8,0.2h-0.4v0.3h9.4L44.7,29z"/>
	<path fill="#505150" d="M46.6,23.9l3.6,8.9h0.3l3-7l2.7,7h0.3l3.4-9c0.3-0.8,0.5-1.2,0.5-1.2c0.1-0.2,0.2-0.3,0.4-0.4
		c0.1-0.1,0.3-0.2,0.5-0.2v-0.3h-2.8v0.3c0.4,0,0.7,0.1,0.9,0.2c0.1,0.1,0.2,0.3,0.2,0.5c0,0.2,0,0.3-0.1,0.5c0,0.2-0.2,0.5-0.3,1
		l-1.8,4.7l-2-5.1c-0.2-0.6-0.4-1-0.4-1.1c0-0.1,0-0.2,0.1-0.3c0.1-0.1,0.2-0.2,0.3-0.2c0.2-0.1,0.4-0.1,0.8-0.1v-0.3h-5.3v0.3
		c0.3,0,0.6,0,0.8,0.1c0.2,0.1,0.3,0.2,0.5,0.5c0.1,0.2,0.3,0.6,0.6,1.3l0.4,1.2L51.4,29l-2.1-5.3c-0.3-0.7-0.4-1.1-0.4-1.3
		c0-0.2,0.1-0.3,0.2-0.4c0.1-0.1,0.4-0.2,0.8-0.2v-0.3h-4.7v0.3c0.3,0,0.6,0.1,0.7,0.3C46,22.4,46.2,23,46.6,23.9z"/>
	<path fill="#505150" d="M62.4,32.3c0.2-0.1,0.3-0.2,0.4-0.2c0.2,0,0.4,0.1,0.6,0.2c0.5,0.2,0.8,0.3,1.1,0.4c0.3,0.1,0.6,0.1,1,0.1
		c1.1,0,2-0.3,2.7-1c0.7-0.7,1.1-1.4,1.1-2.3c0-0.7-0.2-1.4-0.7-1.9c-0.4-0.6-1.3-1.1-2.6-1.8c-0.9-0.4-1.5-0.8-1.7-0.9
		c-0.3-0.2-0.6-0.5-0.7-0.7c-0.1-0.2-0.2-0.4-0.2-0.6c0-0.4,0.2-0.7,0.5-1c0.3-0.3,0.7-0.4,1.3-0.4c0.7,0,1.4,0.3,2,0.8
		c0.6,0.6,1,1.3,1.1,2.2h0.3l-0.1-3.6h-0.2c-0.1,0.3-0.1,0.5-0.2,0.6c-0.1,0.1-0.2,0.1-0.3,0.1c-0.1,0-0.4-0.1-0.8-0.3
		c-0.4-0.2-0.7-0.3-0.9-0.4c-0.3-0.1-0.7-0.1-1-0.1c-1,0-1.8,0.3-2.4,0.9c-0.6,0.6-1,1.3-1,2.2c0,0.5,0.1,1,0.3,1.4
		c0.2,0.4,0.6,0.8,1,1.1c0.4,0.3,1.1,0.8,2.1,1.2c0.7,0.3,1.2,0.6,1.5,0.8c0.3,0.2,0.5,0.4,0.6,0.7c0.1,0.2,0.2,0.5,0.2,0.7
		c0,0.4-0.2,0.8-0.5,1.1c-0.4,0.3-0.8,0.5-1.4,0.5c-0.8,0-1.5-0.3-2.2-0.9c-0.7-0.6-1.1-1.5-1.4-2.6h-0.3v4.1H62
		C62.1,32.5,62.3,32.4,62.4,32.3z"/>
	<rect x="14.4" y="35.3" fill="#505150" width="63.9" height="2.9"/>
	<rect x="27.7" y="42.3" fill="#505150" width="17.1" height="2.9"/>
	<rect x="27.7" y="49.2" fill="#505150" width="17.1" height="2.9"/>
	<rect x="14.5" y="56.1" fill="#505150" width="30.3" height="2.9"/>
	<path fill="#505150" d="M20.7,52.7h-0.2v0.3h5v-0.3c-0.3,0-0.6-0.1-0.7-0.3c-0.2-0.2-0.5-0.7-0.9-1.5l-3.7-8.4H20l-3.7,8.2
		c-0.4,0.8-0.6,1.3-0.9,1.6c-0.2,0.2-0.5,0.4-0.9,0.5v0.3h3.4v-0.3c-0.5,0-0.9-0.1-1-0.2c-0.2-0.1-0.3-0.3-0.3-0.6
		c0-0.2,0.1-0.5,0.2-0.8l0.4-1h3.6l0.5,1.3c0.1,0.3,0.2,0.5,0.2,0.6c0,0.1,0,0.2,0,0.3c0,0.2-0.1,0.3-0.2,0.4
		C21.4,52.6,21.1,52.7,20.7,52.7z M17.5,49.5l1.6-3.5l1.5,3.5H17.5z"/>
	<path fill="#505150" d="M97.6,59.8V57h-2.4v-2.6h-2.5V12.9c0-1.8-1.5-3.3-3.3-3.3H3.3C1.5,9.6,0,11.1,0,12.9v57.4
		c0,1.8,1.5,3.3,3.3,3.3h63.9v5.1h2.6v4.5h2v4.1v2.4V90h23.3v-2v-0.6v-4.6h2.5V76h2.4V59.8L97.6,59.8L97.6,59.8L97.6,59.8z
		 M79.2,50.3v-9.4H77v-2.5h-5.3v2.5h-2.5v1.3H47.9v2.9h21.3v4.1H47.9v2.9h21.3v4.1H47.9V59h21.3v1.5h-2.4v-1.1h-4h-2.4h-0.2v6.8h2
		v0.8H6.6V16.2h79.5v36.6H86h-0.4h-2v-2.5H79.2L79.2,50.3z M91.5,43.7c0,1.1-0.9,2.1-2.1,2.1s-2.1-0.9-2.1-2.1
		c0-1.1,0.9-2.1,2.1-2.1S91.5,42.5,91.5,43.7z M97.3,75.3h-2.4v5.2h-2.5v6.8H74.4V83h-2v-5.5h-2.6v-3.8v-0.7h-2.3v-2.6v-2.1H65v-1.2
		v-1.2h-2V62h3.8v2.1h2.5v3v3.3v1h2.6v-1v-3.3V59v-2.9v-4.1v-2.9v-4.1v-2.9v-1.2h4.7v1.2v2.9v4.1v2.9v4.1V59v3.3h2.6v-9.3h4.1v10.3
		H86v-7.9h0.2h3.3H90v9.5h2.6v-7.9h0.2h1.8V60h2.8L97.3,75.3L97.3,75.3z"/>
</g>
<path fill="#682570" d="M97.6,59.8V57h-2.4v-2.6h-2.5v-1.6c-2.6,0-8.9,0-8.9,0c0,0,0,0,0,0h-0.3v-2.5h-4.3v-9.4H77v-2.5h-5.3v2.5
	h-2.5c0,2.1,0,6.9,0,8.5c0,0.9,0,2.8,0,4.8c0,2.2,0,4.6,0,5.3v1h-2.4v-1.1h-6.6v6.8h2v0.5c0,0.3,0,0.8,0,1.5c0,0.1,0,0.2,0,0.4
	c0,0.1,0,0.1,0,0.2c0,0.6,0,1.3,0,1.9c1.4,0,2.5,0,2.5,0v0c0,0,0,0,0,0c0,0,0,1.2,0,2.8h2.2v5.1h2.6v4.5h2V90h23.3v-7.3h2.5V76h2.4
	V59.8H97.6z M97.3,75.3h-2.4v5.2h-2.5v6.8H74.4V83h-2v-5.5h-2.6v-4.5h-2.3v-4.7H65v-2.4h-2V62h3.8v2.1h2.5v7.3h2.6V41.1h4.7v21.2
	h2.6v-9.3h4.1v10.3H86v-7.9h4v9.5h2.6v-7.9h2V60h2.8V75.3z"/>
</svg>
