<?xml version="1.0" encoding="utf-8"?>
<!-- Generator: Adobe Illustrator 18.1.1, SVG Export Plug-In . SVG Version: 6.00 Build 0)  -->
<!DOCTYPE svg PUBLIC "-//W3C//DTD SVG 1.1//EN" "http://www.w3.org/Graphics/SVG/1.1/DTD/svg11.dtd">
<svg version="1.1" id="Layer_1" xmlns="http://www.w3.org/2000/svg" xmlns:xlink="http://www.w3.org/1999/xlink" x="0px" y="0px"
	 viewBox="0 0 100 100" enable-background="new 0 0 100 100" xml:space="preserve">
<g>
	<path fill="#505150" d="M100,1.9c0-0.5-0.2-1-0.5-1.3C99.1,0.2,98.6,0,98.1,0c-1,0-23.9,0.6-38.7,15.3L40.7,34
		c-4.4-1.5-19.2-4.4-40.1,16.5c-0.6,0.6-0.7,1.6-0.2,2.4C0.5,53,0.6,53,0.7,53.1c0.5,0.5,1.4,0.7,2.1,0.3c0.1-0.1,13.5-6.5,20.5-2
		L18.7,56c-0.1,0.1-0.2,0.2-0.3,0.4c-0.2,0.3-4.7,8.4,6,19.1s18.8,6.2,19.1,6c0.1-0.1,0.3-0.2,0.4-0.3l4.6-4.6
		c4.5,7.1-1.9,20.4-2,20.5c-0.4,0.7-0.2,1.6,0.3,2.1l0,0c0.7,0.7,1.9,0.7,2.6,0l0.1-0.1c20.8-20.8,17.9-35.6,16.4-40l18.7-18.7
		C99.4,25.8,100,2.8,100,1.9z M76.2,38.4c-4,4-10.6,4-14.6,0s-4-10.6,0-14.6s10.6-4,14.6,0C80.3,27.8,80.3,34.4,76.2,38.4z"/>
	<path fill="#FFD781" d="M24.3,86.6c-3.6,0.6-7.4,0.9-11,0.8c-0.3,0-0.6-0.4-0.6-0.6c0-0.6,0-1.4,0-1.9c0-0.8,0.1-1.6,0.1-2.4
		c0.1-1.8,0.3-3.7,0.5-5.5c0.5-3.2,1.2-6.3,2.4-9.3c0.2-0.4,0.3-0.8,0.5-1.2c-3.3,1.4-6,4.3-7.8,7.3s-2.9,6.3-3.6,9.7
		c-0.4,2-0.6,4.1-0.6,6.1c0,1.1-0.1,2.5,0.3,3.6c0.6,1.5,2,2.6,3.6,2.7c1.5,0.1,2.9,0.1,4.4,0c6.6-0.4,13.7-2.7,18.4-7.7
		c1.1-1.3,2.1-2.6,2.8-4.2c-1.7,0.6-3.3,1.3-5,1.7C27.2,86,25.7,86.4,24.3,86.6z"/>
</g>
</svg>
