<?xml version="1.0" encoding="utf-8"?>
<!-- Generator: Adobe Illustrator 18.1.1, SVG Export Plug-In . SVG Version: 6.00 Build 0)  -->
<!DOCTYPE svg PUBLIC "-//W3C//DTD SVG 1.1//EN" "http://www.w3.org/Graphics/SVG/1.1/DTD/svg11.dtd">
<svg version="1.1" id="Layer_1" xmlns="http://www.w3.org/2000/svg" xmlns:xlink="http://www.w3.org/1999/xlink" x="0px" y="0px"
	 viewBox="0 0 100 100" enable-background="new 0 0 100 100" xml:space="preserve">
<g>
	<g>
		<path fill="#FEE000" d="M24.7,92.9c0.3,0,0.6,0.3,0.6,0.3S25.1,92.9,24.7,92.9C24.7,92.6,24.7,92.6,24.7,92.9z"/>
		<path fill="#FEE000" d="M0.6,40.9L0.6,40.9L0.6,40.9L0.6,40.9z"/>
		<path fill="#FEE000" d="M98.6,40c0.3,1,0.3,1.9,0.3,2.9l0,0C99,41.6,99,40.9,98.6,40z"/>
		<path fill="#FEE000" d="M94.8,32c0.6,1,1.6,1.6,1.9,2.5c0.3,0,0-0.3,0.3-0.3c-0.3-0.6-0.3-1.3-0.6-1.9
			C95.8,31.4,93.9,30.1,94.8,32z"/>
		<path fill="#FEE000" d="M97.1,34.6c0,0.3,0,0.6,0.3,1C97.4,35.2,97.4,34.9,97.1,34.6z"/>
		<path fill="#FEE000" d="M92.6,24.1C92.6,24.1,92.3,24.1,92.6,24.1c1.6,2.5,2.9,5.1,3.8,7.9c-3.2-8.2-8.2-15.5-15.2-20.9
			c1,1,1.6,1.6,2.5,2.2C86.9,16.5,90.1,20.3,92.6,24.1z"/>
		<path fill="#FEE000" d="M96.4,32L96.4,32L96.4,32L96.4,32z"/>
		<path fill="#FEE000" d="M97.1,33.9L97.1,33.9v0.3C97.1,34.3,97.1,34.3,97.1,33.9z"/>
		<path fill="#FEE000" d="M65.3,6.7L65.3,6.7L65.3,6.7z"/>
		<path fill="#FEE000" d="M2.2,35.2c0.6-1.6,1-3.2,1.6-4.8C3.2,32,2.5,33.6,2.2,35.2z"/>
		<path fill="#FEE000" d="M3.8,30.5L3.8,30.5L3.8,30.5z"/>
		<path fill="#FEE000" d="M1.9,35.9c0-0.3,0-0.3,0.3-0.6C2.2,35.2,2.2,35.5,1.9,35.9z"/>
		<path fill="#FEE000" d="M52.6,57.1v-2.2c0-1,0-2.2,0.3-3.2c0,0,0,0-0.3-0.3c-1-1.3-1.3-2.5-2.2-3.8c-0.6-0.6-1.3-1.3-1.6-1.9l0,0
			c0-1-0.6-1.6,0-2.5c0.3-0.6,0.6-1.6,0.6-2.5c0-1.3-0.6-2.9-0.3-4.1c0.3-1,0.6-1.6,1.3-2.5c0.6-1,1-2.5,2.2-2.9
			c0.6-0.3,1.6-1,1.6-1.6c0.3-0.6,0-1.6,0.6-2.2c0.6-1,1.6-1.9,2.2-2.9l0,0c1-1,1.9,0,3.5-0.6c1.3-0.6,2.5-1.3,3.8-1.3
			c1,0,1.6,0,2.5,0c0.3,0,1-1,1.3-0.3c0.3,0.3,0.3,0.3,0.6,0c0,0.6-0.3,1.3-0.3,2.2c0,1.6,1.6,1,2.2,1.3c1,0.3,4.1,3.8,3.8,1
			c0-2.2,3.2-0.3,4.1,0c1.3,0.3,2.2,0.6,3.2,0c1-0.3,1.6,0.3,2.5,0c0.6,1.3,0.6,1.6,0.3,3.2c-0.6,0-1-1.3-1.6-1.9
			c0,1.6,1.6,3.2,2.2,4.4c0.3,1,0.6,1.9,1,2.5c0.3,0.3,0.3,1,0.3,1.3c3.2,2.2,6,5.4,7.6,9.2c0,0,0,0,0.3,0c1-0.3,1.9-0.6,2.9-1
			c0.6,1.6-0.3,4.1-1.6,6.3c0.3,1,0.3,2.2,0.3,3.2v2.2c1,0,1.9,0.3,2.5,0.6c0.3-2.5,0.6-5.4,0.6-8.2c0-2.5-0.3-4.8-0.6-7.3
			c-2.2,0.6-3.8,2.5-5.1,0c-0.6-1.3-1-2.2-1.9-3.5c-0.6-1-1.6-1.6-1.9-2.9c-0.3-1.9-3.8-3.2-3.8-5.4c0-0.3-1-1.9-0.6-1.9
			c0.3-0.3,0-1,0-1.3c0-1,0.3-1.6,0-2.2c-1.9,0.6-3.2-0.3-5.1-0.3l0,0c-0.6-0.3-1-1-1.6-1.3c0.6-0.6,0-0.3,0-1
			c0-0.6,1.6-0.3,1.9-0.3l-0.3-0.3c-0.6,0-0.6,0.6-1.3,0c-0.6-0.3-0.6-0.3-1.3,0c0,0.3,0,0.3,0,0.3s-1-0.6-1,0c0.6,0.6,1,1,1.6,1.6
			c-0.3,0.3-0.6,0-1-0.3l0.3,1c-0.6,0-1.3-0.3-1-1c-0.6,0-1.9-1.3-1.9-1.9c-0.3-1-1.6-1.3-1.6-1.9c-0.3,0-3.2-1.9-3.2-1.6
			c0,1,1.6,2.2,2.5,2.2c0,0.6,1.6,0.6,1.6,1.3c-1.3-0.3-1-0.6-0.6,0.6c0,0-0.6,1-1,0.3c1.6,0-3.2-3.5-2.9-3.2c-1-1-1.3-1.6-2.5-0.6
			c-0.6,0.3-2.9-1-2.2,0.6c0,0-3.2,1.3-1.6,1.9c-0.3,0.6-1,1-1.6,1.3c-0.6-0.3-1.9,0.6-2.2,0c-0.6-0.6-1-0.6-1.6-0.6
			c-1,0,0-2.9,0-3.2c0-0.6-0.3-1.3,0.6-1.3c1,0,1.9,0.3,2.5,0.3c1,0,1.3,0.3,1.3-1.3l0,0c0.6-1-2.2-1.3-2.2-1.9c0-0.3,1.6,0,1.9,0
			c0-0.3,0-0.3,0-0.6c1.3,0,1.6-0.3,2.5-0.6c1-0.3,1-1.3,1.9-1c0.3,0,1.6,0,1.3-0.3c-0.6-1.3-0.6-1.3,0.6-1.6c0,0.3,0.3,0.3,0.3,0.6
			c0,0,0,0.3-0.3,0.3c0.3,0,0.3,0,0.3,0.3c0-0.3-0.3,0-0.3-0.3c0,0.3,0,0.6,0,0.3c0.6,0,1.3,0,1.9,0c0,0.6,2.2,0,2.9,0l0,0
			c0.3,0,0.3,0,0.6,0c-0.3-1.3,1.9-1.6,2.2-1.3c0-0.3-1-0.6-0.6-1c1-0.3,1.9,0.3,2.9,0c-0.3-0.3-4.8-0.3-4.1-1
			c-0.3,0-0.3-0.3-0.6-0.6l1.9-0.6c-0.3-1-1.9,0-1.9,0c0,0.3-1.9,0.3-1.9,1s1,0.3,1,1c0,0-1.9,1-0.6,1.3c0,0.6-1.6,1-1.9,1
			s-1-1.3-1-1.3c-0.3-0.6-0.6-1-1.3-0.6c-0.3,0-2.2,0.6-2.2,0c0-0.3,0.3,0,0.3-0.3c-0.3,0-0.3,0-0.3,0s0-0.3,0.3-0.3
			c-1.3-1,1.3-1.3,1.9-1.3c-0.3,0-0.3,0-0.3,0c0.3,0,3.2-1.3,3.5-1.6c-0.3,0-0.6,0-1,0h0.3h-0.3c0,0,0.6,0,1.3,0c0.3,0,0.3,0,0.6,0
			l0,0c0.6-0.3,1.3,0,1.9,0c-0.3,0,1.3-0.3,1,0c0.6,0,1.3,0.3,1.9,0.6C68.8,2.9,59.6,0,49.8,0C29.2,0,11.7,12.4,4.1,30.4
			c1.6-3.2,3.2-6.3,5.4-9.5c2.2-2.9,4.4-5.7,7.3-7.9c1-1,1.9-1.6,3.2-1.3c0.3,0,1,0,1.3-0.3c1,0,2.9,0.3,3.5,0l0,0
			c0.3-0.3,1.3-0.3,1.3-0.6h-0.3c0,0,0.3,0,0.3-0.3l-0.6-0.3c0.3-0.3,2.2-0.3,1.6,0c-0.3,0-0.3,0-0.6,0.3c0,0,0.3,0,0.6,0
			c-0.6,0,0,0-0.3,0.3c0,0,1.3-0.3,1,0c-0.3,0-0.6,0-0.3,0.3c0.3,0.3,1.6-0.6,1.9-0.6c0,0-2.5,0-2.2-0.3c0.3,0,0.6,0,1,0h-1
			c-0.3-0.3,1-0.3,1-0.6c-0.3,0-1,0-1.3,0.3c0,0,0,0,0.3,0c-0.3,0-0.6,0.3-1,0.3c1-0.6,1.3-0.6,2.5-0.6c-0.3,0-0.3,0-0.6,0.3
			c0.6,0,1,0,1.6,0c-0.3,0-1.3,0.3-1,0.3c-0.6,0.3,1.9-0.6,2.2-0.3c0,0,0,0.3-0.3,0.3c1.3,0,2.2,0.3,3.2,0.3l0,0h0.3h-0.3h0.3h-0.3
			c0,0,1.3,0.3,1.3,0.6c0,0.6-1,0.3-1.6,0.3c0,0,0,0-0.3,0.3c0.3,0,0.3,0.3,0.6,0.3c-0.3,1-0.3,0.3-1.3,0.6c0,0,1.3,0.6,0.6,0.6
			c-0.6,0.3-1.6-0.3-2.2-0.6c-0.3,0-2.2,0-2.2,0c0.3-0.6,1.6-0.3,2.2-0.6c-0.6,0,1.3-0.3,0.6-1c0,0.3-1,0-1,0c0.3-0.3,0.6-0.3,1-0.3
			h-1h0.3h-0.3l0,0c-0.3-0.3-1.6,0-1.3,0c-0.3,0-0.3,0-1,0c0.3,0,0.6,0,0.6,0c-0.3,0.3-1.3,1-2.2,1.3c0.3,0,0,0,0,0
			c-0.3,0-0.3,0,0,0c-0.3,0-0.3,0-0.6,0l0,0c0,0,1,0,1,0.3l0,0c0,0,0.3,0,0.6,0c-0.6,0.3-1.9,0.3-2.5,0.3c-0.3,0,0,0,0-0.3
			c-0.3,0-0.6,0-0.6,0c0.3-0.3,1-0.6,1.3-0.6c-0.6,0-1,0-1.6,0c0,0.3,0.3,0.3,1,0.3c-0.6,0.6-1.9,0.6-2.9,0.6c0,0,0,0,0.3,0
			C21.9,13.3,20,14,19,14.6c0.6,0,0.6,0.3,0.3,0.6c1.9,0,1.6,1,3.2,1c0.3,0.3-0.3,0.6-0.3,1c0.3,0,0.6,0,0.3,0.3h-0.3
			c0,0,0.3,0.3,1,0c0.6-0.6,0-1,1.3-1.6c1.6-0.6,0.3-0.6,0.3-1.6c1.9-0.3,1-1.9,3.5-1c0.6,0.3,2.9,1,3.2,0c-0.3,0.6,0,0.6,0.3,0.6
			c0,0-0.3,0-0.3-0.3c0.6-1,1.9,1,1,1.3c0.3,0,0.3,0.3,0.6,0.3l0,0c-0.3,0.6,1.3,0.3,1.3,0.6c-0.3,0.3-1.3,0.3-1.9,0.6
			c0,0.3,2.2-0.3,2.2-0.3c0.6,2.2-5.7,1.9-7,2.9c0,0,3.2-0.6,3.2-0.3c-0.3,0.3-1,0.3-1.3,0.6c0.3,0,0.3,0,0.6,0
			c-1.3,1.3,1.3,1.3,1.3,1.6c-0.3,0.3-2.2,0.6-2.9,1c-1,0.3,0-1,1.3-1c-0.3,0-0.3,0-0.3-0.3c-1,0-2.2,1-2.9,1
			c-0.6,0-2.9,1.6-1.6,1.6c-0.6,0.3-1.6,0.3-2.5,0.6h0.6c-0.3,0-2.2,0.6-2.2,1c-0.3,0.3-0.3,1.3-1.3,1.3l0.3-1l-0.6,1.3l0,0
			c0,0.3-0.3,0.3-0.6,0.3c0,0,0,0.3,0.3,0.3c-0.3,0.3-0.6,0.3-0.3,0.6c-0.3,0.3-1,0.3-1.6,0.6l0,0c-1.9,1-3.5,1.6-3.8,3.8
			c0,0.6-0.6,3.2-1.6,3.2c-0.6,0,0.6-3.8,0.6-4.1c0,0-2.2-0.3-1.9-0.6c-0.3,0-0.6,0-1,0c0,0,0,0,0.3,0c-0.3,0.3-0.6,0.6-0.3,0.6
			c-0.6,0.3-1.3-1-1.9-0.6c-1.3,0.6-2.2,1.3-2.9,2.5l0,0c-0.3,0.3-3.8,6.7-2.2,7c2.2,0.6,2.5-2.9,5.1-2.2c-0.3,0.6-1,1.3-1.3,1.9
			C6,40,6,40.3,5.7,40.6c-0.3,0.6-2.9,2.5-0.6,2.9c2.9,0.3,0.6,2.9,0.3,4.1c-0.3,1.3-1.6,5.4,1,4.4c1.3-0.6,1.3,1.3,1.3,1.9l-1,1
			c0-0.3,0.3-1.6,0-1.9c-1-0.3-1.3,2.2-1.6,1.9c-1-0.3-0.6-4.1-1.3-4.4v0.3c0,0,0,0-0.3,0c-0.3-0.6,0.6-1.6,0.3-2.2
			c0-0.6-0.3-1.3,0-2.2c-0.6-0.3-1.3-0.6-1.6-1.6c0-0.3,0-1.9-0.3-1.9c-0.3-1-0.6,0.3-1,0c-0.6,0-0.6-1.6-1-1.6c0.3,2.5,0,5.4,0,8.6
			c0,18.1,9.8,33.9,24.1,42.8c-0.3-0.3,0-1-0.3-1.3c-0.3-0.6-1-0.6-1-1.6c0-1.9,0-2.9-1-4.8c-1-1-0.6-3.5-1-4.8
			c-0.3-1.3-0.6-2.5-1.3-3.8c-0.6-1.3-2.2-2.2-3.5-2.5C14.3,73.6,14,72,13,70.7c-1-1-1.9-2.2-2.5-3.2c-0.3-0.6-1.3-0.6-1.3-1.3
			c-0.3-1,0.6-1.3,0.6-1.9c-1-0.6-0.6-0.6-0.6-1.9c0-1,1.3-2.2,1.3-3.2c-0.3,0-0.3-0.3-0.3-0.3c-0.3-1-1.6-2.5-0.3-3.2
			c-0.3-1.3,1.3-2.2,2.5-2.9c0.3,0,0.3-1,0.6-0.3c0.3,0,0,0.3,0,0.3c0,0.3-0.3,1.9,0.6,1.9c0.3,0-1-1.6,0.6-1.9
			c0-0.3-0.6-0.3-0.6-0.3c0.6,0,1.3,0.6,1.6,1c0.3,0.3,1.3,0.3,1.6,0.3c0.6,0.3,1.6-0.3,2.2-0.3h-0.3c0.3,1.3,2.9,1.3,3.5,2.5
			c0.6,1,2.9,1,3.8,1c1,0,2.9,2.5,2.2,3.2c-0.6,1,0.3,2.2,1.3,1.9c1,0,0-1.9,1.9-1c0.6,0.3,1,0.3,1.3,1c1,0,1.9-0.3,2.9,0
			c1,0.3,1.6,1,2.5,1.3c2.2,0.3,0,4.4-0.3,5.4c-0.3,0.6,0.6,3.2,0.6,4.4c-0.6,1.9-0.6,2.5-2.5,3.5c-0.3,0.3-1.3,1.3-1.3,1.9
			c0,0.6,0.3,1,0.6,1.6c-0.3,0.3-0.3,0.6-0.3,1.3l0,0c-0.3,1.3-0.6,2.2-1,3.5c0,1-2.9,1.3-2.9,1c0.6,1.3,2.2,0.6,1.6,2.5
			c-0.3,0.6-1.3,1-1.9,1c-0.6,0.3,0,1,0,1.3c0.3,1-1,0.3-1.3,0.6c-1,0.3,1.3,1.3,1.3,1c0.3,0.6-0.6,0.3-0.6,0.3c0.3,0.3,1,1.6,0,1.9
			c-1.3,1,1,1.3,1.3,1.9c4.4,1.9,9.2,2.9,14.3,3.5c-0.6-1.3-1-2.5-1-4.1V66.3C44.4,61.5,48.2,57.7,52.6,57.1L52.6,57.1z M85.3,26
			c0,0.3-1,1-1.3,0.3C84.7,26.3,85,26,85.3,26z M80.6,26c-0.3,0.3-1,0-1.3-0.3C79.6,25.7,79.9,25.7,80.6,26z M73.3,23.2
			c0,0.3,0,1,0,1c-0.3,0-1.6-0.6-1.6-1C71.7,23.2,72.9,23.2,73.3,23.2z M69.1,19.7C69.5,20,69.5,20,69.1,19.7c0,0.3,0,1,0,1
			c-0.3,0-0.3-0.6-0.3-0.6C69.1,20,69.1,20,69.1,19.7z M69.1,21.6l-0.3-0.3C70.4,20.9,69.1,23.2,69.1,21.6z M66,21.6
			c0,0.3-0.3,0-0.3,0C65.7,21.3,65.7,21.3,66,21.6z M75.2,11.4c0,0.3,0,0.3-0.3,0.3c-0.3,0-0.3,0-0.3-0.3
			C74.8,11.7,74.8,11.4,75.2,11.4C74.5,11.1,75.2,11.4,75.2,11.4L75.2,11.4z M73.3,11.7l-0.3,0.3C72.6,12.1,72.9,11.7,73.3,11.7z
			 M70.1,12.7c-0.3,0-0.3,0.6-1,0.3l0,0h0.3C68.8,12.7,69.8,11.7,70.1,12.7z M65.3,6.7L65.3,6.7L65.3,6.7L65.3,6.7L65.3,6.7
			c0,0,0.3,0,0.3,0.3C65.3,6.7,65,6.7,65.3,6.7z M66,6.4L66,6.4L66,6.4c0,0,0.6,0,0.6,0.3c-0.6-0.3,0.6,0,0.6,0l0,0c0.3,0,0.6,0,1,0
			l0,0c0.3,0,0.3,0,0.6,0h-0.6h-0.6h0.3l0,0c0,0,0,0,0.3,0l0,0c1,0,2.2-0.3,2.9,0.3c-0.3,0-1.6,0.3-2.2,0.3h0.3l0,0
			c0.3,0,1,0,1.3,0.3c-0.3,0-0.6,0-1,0l0,0c-0.3,0-0.3,0-0.6,0h0.3h-0.3c-0.6,0-2.2,0.6-2.2,0c0.3,0,0.6,0,0.6,0h-1c0,0,0.3,0,0.6,0
			c-0.3,0-1,0-1,0C65.7,6.7,65.7,6.7,66,6.4c-0.3,0.3-0.6,0.3-0.6,0H65C65.3,6.4,65.7,6.4,66,6.4z M61.5,10.8l-0.3,0.3
			c0.3,0.3,0.6,0.3,1.3,0.3c0,0.3-0.6,0.6-0.6,0.6c0.6,0.3,1.9,1,1.9,1.9c0,0,0,0,0.3,0c0.3-0.3,0.3,0.3,0,1h0.3
			c0,0-3.5,0.3-3.8,0.3c0.3-0.3,1.3-0.6,1.3-1h-1.3c0-0.3,0.3-0.3,0.3-1c0.3,0,1,0,1-0.3c-0.3,0-0.6,0-0.3-0.3h-1
			c0-0.3,0.6-0.3,0-0.6c0,0,0,0,0,0.3l0,0c0-0.3,0-0.3,0-0.6c-0.3,0-0.3,0-0.3-0.3h0.6C59.9,10.8,61.5,10.2,61.5,10.8z M60.6,12.7
			L60.6,12.7C60.9,12.7,60.9,12.7,60.6,12.7C60.9,12.7,60.9,12.7,60.6,12.7C60.9,12.7,60.6,12.7,60.6,12.7z M59.9,10.5l-0.3,0.3
			C59,10.8,59.9,10.5,59.9,10.5z M57.7,12.7c0-0.3,0.6-0.3,1-0.3c-0.3-0.3,0.6-0.3,1-0.3c1.3,0,0.3,0.6,0.3,0.6c0,1-0.6,1.3-1.6,1.3
			c-1,0,0-0.6,0-1C58,12.7,58,12.7,57.7,12.7z M25.7,13.3L25.7,13.3c0.3-0.3,0.6-0.3,1-0.3C26.3,13,25.7,13.3,25.7,13.3z M16.8,39.3
			c0,0.3-0.3,0.3-0.6,0.3C15.9,39.7,16.8,39.3,16.8,39.3z M16.2,34.3C16.2,34.3,16.2,34.6,16.2,34.3C16.2,34.6,16.2,34.3,16.2,34.3z
			 M15.9,33.9L15.9,33.9c0,0.3-0.3,0.3-0.3,0.3C15.5,33.9,15.5,33.9,15.9,33.9z M14.9,35.5c0,0,0.3,0.3,0,0.3
			C14.9,36.5,14.9,35.5,14.9,35.5z M10.5,39c0-0.3,0.3-0.3,0.3-0.3c0-0.3,0-0.3,0.3-0.3C10.5,39.3,10.5,38.7,10.5,39z M12.4,43.1
			c0.3,0,0.6,0.3,0.6,0.3l0,0v0.3C11.4,43.8,12,43.1,12.4,43.1z M13,41.2c0.3-1,0-2.5-1.3-2.9c-0.3-1.3-0.6,0.3-1.9,0.3
			c1.3-1.6,2.2-1.9,3.5-0.6c0.3,0.3,1.3,1.9,1.3,2.2c0.6,0.3,0.3,0.6,0.6,1C14.3,42.2,13.6,41.2,13,41.2z M17.1,44.1
			c0-0.6-0.6,0.6-1,0.6c0,0-1-1.9-1.6-0.6c-1.3-0.6,1.3-1,1.3-1c0-0.3,0-2.5,0.6-1.6c0.3,0.3,0.6,0,1,0c0.6,0,0.6,1,1,1.3
			c0-0.3,0-0.3,0,0l0,0c0,0.3,0.3,1,0.3,1C18.7,44.1,17.1,44.1,17.1,44.1z M19.3,44.7c0.3-0.6,1,0.3,1,0.3
			C20.3,45.4,19.3,45.1,19.3,44.7z M49.2,11.1L49.2,11.1c0.3-0.3,0.3-0.3,0.3-0.3c-0.3,0-0.3,0-0.6,0c0.3,0,0.6,0,0.6,0l-0.6-0.3
			c0.3,0,0.6,0,0.6,0c-0.3,0.3,0.3,0.3,0.3,0.3c0,0.3,0.3,0,0.6,0c0-0.3,1.6,0,1.6,0c-0.3,0,0.3,0.3,0,0.6
			C51.4,11.7,50.4,11.1,49.2,11.1z M28.9,7.6h0.3C29.2,7.6,29.2,7.6,28.9,7.6C29.2,7.6,28.5,7.9,28.9,7.6z M28.9,8.3
			c-0.3-0.3,1-0.3,0.6,0C29.2,8.3,28.2,8.3,28.9,8.3z M29.8,8.3h-0.3h-0.6C29.2,8.3,29.5,8.3,29.8,8.3z M26.3,7.9L26.3,7.9L26.3,7.9
			c0.3,0,1.3-0.3,1.6,0c0,0,0,0-0.3,0c0,0-0.3,0-0.6,0.3h-0.3H27C26.6,8.3,26.3,8.3,26.3,7.9h0.3H26.3z M25.7,8.3c0.3,0,0.3,0,0.3,0
			C26,8.6,25.7,8.6,25.7,8.3C25.7,8.6,25.4,8.6,25.7,8.3z M23.5,8.3c0.3,0,0.6,0,1.3,0c0,0,0,0-0.3,0l0,0c-0.6,0-0.6,0-0.3,0
			C24.1,8.6,23.5,8.6,23.5,8.3c-0.3,0.3,0,0,0.3,0H23.5z M22.2,8.9h0.3C22.5,8.9,22.5,8.9,22.2,8.9L22.2,8.9z M22.2,8.6L22.2,8.6
			c-0.3,0.3-0.3,0.3-0.6,0.3C21.6,8.6,21.9,8.6,22.2,8.6z M21.2,9.2h0.3C21.6,8.9,21.6,8.9,21.2,9.2c0.3,0,0.6-0.3,0.6-0.3l0,0
			c0.6,0,1.3,0.3,1.9,0h-0.3h0.3c-0.6,0,0.6-0.3,0.6-0.3c-0.6,0.3,0.6,0.3,0.6,0.3c-1,0.6-2.2,0-3.2,0.3C21.9,9.5,21.6,9.5,21.2,9.2
			c0.3,0.3,0.3,0.3,0.6,0l0,0h-0.3c-0.3,0-0.3,0-0.6,0H21.2L21.2,9.2z M25.1,8.9c0,0,0,0.3-0.3,0.3c0,0,0,0-0.3,0
			C24.7,8.9,25.1,8.9,25.1,8.9z M18.4,11.4h-0.3H18.4C18.4,11.1,18.4,11.4,18.4,11.4z M20.3,11.4c0,0,0.3,0,1,0
			C20.9,11.1,20.3,11.4,20.3,11.4z M23.8,10.5c-0.3,0-0.6,0-1,0.3l0,0c-0.6,0.3-4.1,0.3-4.1,0.3h-0.3c0.6-0.3,0.6-0.3,1.3-0.3
			c-0.3,0-0.6,0-1,0c0,0,0.6-0.6,1.3-1l0,0c0,0,0.3,0,0.3-0.3l0,0c0,0,0,0,0,0.3c0.6,0,1.6,0.3,1.6,0.3c0.6,0,1.3-1,1.9-0.6
			c0,0-0.6,0.3-0.6,0.6C23.2,10.8,23.5,10.2,23.8,10.5z M24.1,10.8c-0.3,0,1.3-0.6,1,0C25.1,11.1,23.5,11.1,24.1,10.8z M26,9.5
			C26,9.5,26.6,9.5,26,9.5c0.3,0,0.3,0,0.6,0c-0.3,0.3-1.6,0.6-1.9,0c0.3-0.3,0.6,0,1-0.3c-1,0,1.3,0,1.3-0.3
			C26.3,9.5,26.3,9.5,26,9.5z M26.3,8.9c0.3,0,0.6,0,0.6-0.3C26.6,8.9,26.3,8.9,26.3,8.9L26.3,8.9L26.3,8.9c-0.3-0.3-0.3-0.3-0.6,0
			l0,0h-0.3l0,0l0,0C25.7,8.6,26,8.9,26.3,8.9L26.3,8.9L26.3,8.9c0.3-0.3,0.3-0.3,0.6-0.3c-0.3,0-0.3,0-0.3,0h1.3
			C27.6,9.2,26.3,8.9,26.3,8.9z M27.6,8.9C27.6,8.9,27.9,8.9,27.6,8.9c0.6-0.3,0.6-0.3,1,0C28.9,8.9,27.6,8.9,27.6,8.9z M30.1,8.9
			c-0.3,0-1.6,0-1-0.3c0-0.3-0.3-0.3-0.3-0.3c-0.3,0-0.3,0-0.6,0c0.3,0,2.2,0,2.2,0c-0.3,0-0.3,0-0.6,0C29.8,8.9,30.1,8.6,30.1,8.9
			c0,0,3.5-0.3,3.8-0.3h-0.3h0.3C32.7,9.2,31.1,8.6,30.1,8.9z M33,9.5c0,0-0.6,0-0.3-0.3c0.3-0.3,1.3,0,1.6,0
			C33.9,9.5,33.3,9.5,33,9.5z M35.2,7.9c-0.6,0.6-2.5,0-3.8,0.3c0.3,0,0.3,0,0.6,0c-0.6-0.3,1,0,1,0c-0.3-0.3-1-0.3-1.3,0l0,0
			c-0.3,0-1.3,0-1.3,0s0,0,0.3,0c0,0,0,0-0.3,0l0,0c0,0,0,0-0.3,0c0.3,0,0.6,0,1,0c0,0-0.6,0-1,0l0,0c-0.3,0-0.6,0-0.3,0
			c0.3,0,0.3,0,0.6,0h-0.3c0,0,0.3,0,0.6,0l0,0c0.3,0,0.3,0,0.6,0h-0.3c0.3,0,1.3,0.3,1.6,0.3l0,0c0.3,0,0.3,0,0,0.3
			c0.3-0.3,0.6,0.3,1.3-0.3c0,0-0.3,0-0.3-0.3c0.3,0,0.3,0,0.3,0c-0.3,0-0.6,0-0.6,0h0.3c-0.3,0-0.3,0-0.6,0c0.3,0,0.6,0,1,0
			c-0.3,0-0.6,0-1,0c0.3,0,0.3,0,0.3,0c-0.3,0-0.6,0-1,0c1.6-0.6,5.4-1,7-0.3c-0.6,0.3,1.3,0,1.3,0s-1.3,0-1.3,0.3c0,0,0.3,0,0.6,0
			c-1,0.3-2.2,0.3-3.2,0.6h0.3h-0.3h0.3c-0.6,0-0.6,0.3-1.3,0.3c0,0.3-0.6,0-0.6,0.3C34.9,7.9,35.2,7.9,35.2,7.9z M33.6,18.1
			C33.9,18.1,33.3,18.4,33.6,18.1L33.6,18.1z M33.6,18.7c-0.3,0.3-1,0-1.3-0.3C33,18.4,33.3,18.4,33.6,18.7z M31.4,20
			C31.4,20,31.7,20,31.4,20c0.3,0.3,0.6,0.3,1,0C32.3,20.9,31.4,20.3,31.4,20z M33,20.6c0.3-0.3,0.3-0.3,0.6-0.6c0,0,0,0,0,0.3
			c0,0.3-0.3,0.3,0,0.3C33.6,20.6,33,20.9,33,20.6z M35.5,20c0,0-1,0.6-1,0.3l0.3-0.3c-0.3,0-2.5-0.3-2.5-0.3c0-0.3,0.3-0.3,0.6-0.3
			l0,0c1-0.3,1.6-1.6,2.5-1.6c0.3,0-1,1-1,1c0.3,0,0.3-0.3,0.6,0c0,0-0.3,0-0.3,0.3h0.3l0,0h0.3c0.3,0,0.6,0,0.6,0s0,0.3-0.3,0.6
			h0.3c-0.3,0.3,0,0.3-0.3,0.6c0.3,0,0.3,0,0.3,0C36.2,20.9,36.2,20.3,35.5,20z M42.8,11.7C42.8,11.4,42.8,11.4,42.8,11.7
			c-0.6,0-1.6,1.6-2.2,1.6c-0.3,0-2.2-1-1.6-1.3c0-0.3-0.6-0.3-0.3-0.6c0,0,0,0-0.3,0c0-0.3,0.6-0.6,1-0.6c-0.3,0-1,0-0.6-0.3
			c0.3,0,0.6,0.3,0.6,0c0,0-0.6-0.3-1-0.3c0.3,0,0.3-0.3,0-0.3c0.3-1-1.6-1-1.9-0.6l0,0h-0.3l0,0h-0.3c0.3-0.3,1,0,1-0.3h-1.3
			c0.3-0.3,1.3,0,1.6-0.6h-0.3c0.3-0.6,2.9-0.6,3.2-0.6c0-0.3,0.3,0,0.6,0l0,0c0-0.3,1.3,0,1.3,0h-0.3h0.3l0,0
			c2.5-0.6,5.4-0.3,7.9-0.3c-0.3,0.3-0.3,0.3-1,0.3c0.3,0,0.6,0,0.3,0l-1,0.3c0.3,0,5.1-0.6,5.1-0.6c0,0.3-1.3,0.3-1.6,0.3
			c0,0.3-2.2,0.6-2.5,1c0.3,0,0.6,0,1,0h-0.3c0.3,0,0.3,0,0.6,0.3c0,0.3-1.3,0-1.3,0.3c0,0,0.6,0,0.6,0.3c0,0.3-0.3,0-0.6,0.3
			c0,0,0.3,0,0.6,0c0,0-0.3,0.3-0.6,0.3l0,0c-0.3,0.3-1,0-1.3,0c0.3,0,0.3,0,0.6,0.3c-0.3,0.6-1-0.3-1,0c0.3,0,1.3,0.3,1,0.6
			c0,0.3-1.3-0.3-1.6-0.3c0,0.3,0,0.3-0.3,0.3c0,0.3,1,0.3,1.3,0.3c-1,0.3-2.2,0.6-3.5,0.6C44.1,11.1,43.5,11.7,42.8,11.7z"/>
		<path fill="#FEE000" d="M0.6,40.9c0.3-1.6,0.6-3.5,1.3-5.1C1.6,37.4,0.9,39,0.6,40.9z"/>
		<path fill="#FEE000" d="M97.7,35.5C97.4,35.5,97.4,35.5,97.7,35.5c0,0.3,0,0.6,0.3,1C97.7,36.2,97.7,35.9,97.7,35.5z"/>
		<path fill="#FEE000" d="M95.5,61.9h-3.8v-6.7c0-9.5-7.6-17.1-17.1-17.1c-9.5,0-17.1,7.6-17.1,17.1v6.7h-3.8
			c-2.2,0-4.1,1.9-4.1,4.1v29.5c0,2.2,1.9,4.1,4.1,4.1h41.9c2.2,0,4.1-1.9,4.1-4.1V66C99.6,63.8,97.7,61.9,95.5,61.9z M64.7,55.2
			c0-5.4,4.4-9.8,9.8-9.8c5.4,0,9.8,4.4,9.8,9.8v6.7H64.7V55.2z M91.7,90.1H57.4v-19h34.3V90.1z"/>
	</g>
</g>
</svg>
