<?xml version="1.0" encoding="utf-8"?>
<!-- Generator: Adobe Illustrator 18.1.1, SVG Export Plug-In . SVG Version: 6.00 Build 0)  -->
<!DOCTYPE svg PUBLIC "-//W3C//DTD SVG 1.1//EN" "http://www.w3.org/Graphics/SVG/1.1/DTD/svg11.dtd">
<svg version="1.1" id="Layer_1" xmlns="http://www.w3.org/2000/svg" xmlns:xlink="http://www.w3.org/1999/xlink" x="0px" y="0px"
	 viewBox="0 0 100 100" enable-background="new 0 0 100 100" xml:space="preserve">
<path fill="#505150" d="M94.5,76.2c-3,2.1-31.8,19.2-35.9,21.5c-4.8,2.7-6,3.1-13.2,0.8c-4.8-1.5-11.6-3.8-16.5-6.1
	c-4.4-2.1-7.5-2.1-10.9,0l-5.6,3.4L0.5,69.5c0,0,9.7-4.6,15.6-6.9c9.5-3.6,12.4-1.9,17.7,1.4c2.2,1.4,9.6,6.7,9.6,6.7
	s4.5,4.3,13.9,4.3c5.8,0,9.4,0.6,9.4,4.2c0,3.9-7.2,4.2-7.2,4.2H46c-6,0-14.5-3.5-14.5-3.5s7.2,7.7,14.5,7.7h13.6
	c3.9-0.1,11.4-2,11.4-8.4c0-8.3-7.6-8.3-17.2-8.3c-0.7,0-1.4-0.1-2.1-0.3c0.4-0.2,0.7-0.4,1.2-0.6c1.7-1,4-2.3,6.6-4
	c6.8-4.2,10.4-4.8,13.8-0.3c2.4-2.4,5.4-3.1,7.9-3.1c2.9,0,5.3,1.9,4.6,5c7.4-4.4,11.1-2.6,12.7-0.5C100.7,70,99.2,72.9,94.5,76.2z"
	/>
<g>
	<path id="_149931032_2_" fill="#F26822" d="M52.1,16.8c-10.3,0-18.7,8.4-18.7,18.7c0,2.1,0.3,4,1,5.9h5.6V25.7l12.1,12.2l12.1-12.2
		v15.7h5.6c0.6-1.9,1-3.8,1-5.9C70.8,25.2,62.4,16.8,52.1,16.8L52.1,16.8z"/>
	<path id="_149931160_2_" fill="#4D4D4D" d="M49.3,40.6L44,35.3v9.9h-2h-2h-3.8c3.3,5.4,9.2,9,16,9s12.7-3.6,16-9h-3.8h-3.6h-0.4
		v-9.9l-5.3,5.3l-2.8,2.8L49.3,40.6L49.3,40.6z"/>
</g>
<g>
	<path fill="#F26822" d="M68.9,0c-7.6,0-13.8,5.8-14.5,13.1c1.8,0,3.4,0.3,5,0.7v-7l9.5,9.5l9.5-9.5v12.2h4.4c0.5-1.4,0.7-3,0.7-4.6
		C83.5,6.6,77,0,68.9,0z"/>
	<path fill="#4D4D4D" d="M75.2,22.1v-7.7l-4.1,4.1L69,20.7c1.7,2.3,2.9,5.1,3.5,8c3.8-0.9,6.9-3.3,8.9-6.5H75.2z"/>
</g>
</svg>
