<?xml version="1.0" encoding="utf-8"?>
<!-- Generator: Adobe Illustrator 18.1.1, SVG Export Plug-In . SVG Version: 6.00 Build 0)  -->
<!DOCTYPE svg PUBLIC "-//W3C//DTD SVG 1.1//EN" "http://www.w3.org/Graphics/SVG/1.1/DTD/svg11.dtd">
<svg version="1.1" id="Layer_1" xmlns="http://www.w3.org/2000/svg" xmlns:xlink="http://www.w3.org/1999/xlink" x="0px" y="0px"
	 viewBox="0 0 100 100" enable-background="new 0 0 100 100" xml:space="preserve">
<g>
	<path fill="#FFE00A" d="M49.1,100l-0.6-0.1C24.6,94.3,7.9,73.1,7.9,48.6V14.2l1.7-0.1C23.5,13.5,36.8,8.8,48,0.7L49,0l1,0.7
		c11.2,8.1,24.5,12.8,38.4,13.4l1.7,0.1v34.3c0,24.6-16.7,45.7-40.6,51.4L49.1,100z M14.7,20.8v28.1c0,20.8,14.1,38.6,34.1,43.5
		c20.2-4.9,34.1-22.7,34.1-43.5V20.8c-12.3-0.8-24.1-5-34.1-12C38.7,15.9,26.9,20,14.7,20.8z"/>
	<path fill="#FFE00A" d="M48.6,88.5l-0.4-0.1c-18.2-4.3-30.9-20.3-30.9-39v-26l1.1-0.1c10.6-0.5,20.7-4,29.4-10.3l0.7-0.5l0.7,0.5
		c8.6,6.2,18.8,9.8,29.4,10.3l1.1,0.1v26c0,18.7-12.7,34.8-30.9,39L48.6,88.5z M19.8,25.7v23.8C19.8,67,31.6,81.9,48.6,86
		c17-4.1,28.8-19.1,28.8-36.6V25.7c-10.4-0.7-20.3-4.1-28.8-10.2C40,21.5,30.2,24.9,19.8,25.7z"/>
	<path fill="#FFE00A" d="M61.1,42.1v-6.8c0-6.7-5.4-12.1-12.1-12.1h-0.6c-6.7,0-12.1,5.4-12.1,12.1v6.8h-4.4v30.3h33.5V42.1H61.1z
		 M41.1,35.3c0-4.1,3.3-7.5,7.3-7.5H49c4.1,0,7.3,3.3,7.3,7.5v6.8H40.9C41.1,42.1,41.1,35.3,41.1,35.3z"/>
</g>
</svg>
