<?xml version="1.0" encoding="utf-8"?>
<!-- Generator: Adobe Illustrator 18.1.1, SVG Export Plug-In . SVG Version: 6.00 Build 0)  -->
<!DOCTYPE svg PUBLIC "-//W3C//DTD SVG 1.1//EN" "http://www.w3.org/Graphics/SVG/1.1/DTD/svg11.dtd">
<svg version="1.1" id="Layer_1" xmlns="http://www.w3.org/2000/svg" xmlns:xlink="http://www.w3.org/1999/xlink" x="0px" y="0px"
	 viewBox="0 0 132.5 100" enable-background="new 0 0 132.5 100" xml:space="preserve">
<path fill="#505150" d="M97.5,1.8H27.8c-0.8,0-1.5,0.7-1.5,1.5v6.1H15c-0.4,0-0.9,0.2-1.1,0.5c-0.3,0.3-0.4,0.8-0.4,1.2l0.6,4.4H3.6
	c-0.5,0-0.9,0.2-1.2,0.6S2,17,2.2,17.4L25.4,97c0.2,0.7,0.8,1.1,1.5,1.1c0.1,0,70.7,0,70.7,0c0.8,0,1.5-0.7,1.5-1.5V3.3
	C99,2.5,98.4,1.8,97.5,1.8z M26.3,12.4v70.6l-9.6-70.6H26.3L26.3,12.4z M14.4,18.5l7.6,56.2L5.7,18.5H14.4z M96,95H29.3V4.8H96
	L96,95L96,95z M56,16.9H31.7V10H56L56,16.9L56,16.9z M93.7,16.9H69.5V10h24.2L93.7,16.9L93.7,16.9z M57.5,13.4
	c0-2.8,2.3-5.1,5.1-5.1c2.8,0,5.1,2.3,5.1,5.1c0,2.8-2.3,5.1-5.1,5.1C59.8,18.5,57.5,16.3,57.5,13.4z M90.1,50.6H69.5V27.4h20.6
	L90.1,50.6L90.1,50.6z M59.6,30.8H34.2v-2.5h25.4V30.8z M34.2,38.1h25.4v2.5H34.2V38.1z M34.5,48h25.4v2.5H34.5V48z M34.2,58.1h55.9
	v2.5H34.2V58.1z M34.2,68.1h55.9v2.5H34.2V68.1z M34.2,78h55.9v2.5H34.2V78z"/>
<g>
	<path fill="#FFFFFF" d="M110.8,3.7L70.9,45.1c-4.6,4.8-4.4,12.4,0.3,17l1.1,1c4.8,4.6,12.4,4.4,17-0.3l39.8-41.5
		c4.6-4.8,4.4-12.4-0.3-17l-1.1-1C123-1.2,115.3-1.1,110.8,3.7z"/>
	<path fill="#5A9A6F" d="M120.5,4.3c4.8,0,8.7,3.9,8.7,8.7c0,2-0.6,3.8-1.7,5.2l-3.5,3.5L111.8,9.6l3.5-3.5
		C116.7,5,118.5,4.3,120.5,4.3z M77,44.4l-3.5,15.7l15.7-3.5l32.2-32.2l-12.2-12.2L77,44.4z M112.4,24.1L88,48.5l-3-3l24.4-24.4
		L112.4,24.1z"/>
</g>
</svg>
