<?xml version="1.0" encoding="utf-8"?>
<!-- Generator: Adobe Illustrator 18.1.1, SVG Export Plug-In . SVG Version: 6.00 Build 0)  -->
<!DOCTYPE svg PUBLIC "-//W3C//DTD SVG 1.1//EN" "http://www.w3.org/Graphics/SVG/1.1/DTD/svg11.dtd">
<svg version="1.1" id="Layer_1" xmlns="http://www.w3.org/2000/svg" xmlns:xlink="http://www.w3.org/1999/xlink" x="0px" y="0px"
	 viewBox="0 0 100 100" enable-background="new 0 0 100 100" xml:space="preserve">
<g>
	<path fill="#505150" d="M99.9,79.1l-0.6-3.5c-0.1-0.5-0.5-0.8-1-0.7l-3.1,0.6c-0.4-0.9-0.9-1.7-1.4-2.5l2-2.4
		c0.1-0.2,0.2-0.4,0.2-0.6c0-0.2-0.1-0.4-0.3-0.6L92.9,67c-0.2-0.1-0.4-0.2-0.6-0.2c-0.2,0-0.4,0.1-0.6,0.3l-2,2.4
		c-0.8-0.4-1.7-0.8-2.7-1v-3.2c0-0.5-0.4-0.9-0.9-0.9h-3.6c-0.5,0-0.9,0.4-0.9,0.9v3.2c-0.9,0.2-1.8,0.5-2.7,1l-2-2.4
		c-0.3-0.4-0.9-0.4-1.2-0.1l-2.7,2.3c-0.2,0.1-0.3,0.4-0.3,0.6c0,0.2,0.1,0.5,0.2,0.6l2,2.4c-0.6,0.8-1.1,1.6-1.4,2.5l-3.1-0.6
		c-0.5-0.1-0.9,0.2-1,0.7l-0.6,3.5c0,0.2,0,0.5,0.1,0.7c0.1,0.2,0.3,0.3,0.6,0.4l3.1,0.6c0.1,1,0.2,1.9,0.5,2.8l-2.8,1.6
		c-0.2,0.1-0.3,0.3-0.4,0.5c-0.1,0.2,0,0.5,0.1,0.7l1.8,3.1c0.1,0.2,0.3,0.3,0.5,0.4c0.1,0,0.2,0,0.2,0c0.2,0,0.3,0,0.4-0.1l2.8-1.6
		c0.6,0.7,1.4,1.3,2.2,1.8l-1.1,3c-0.1,0.2-0.1,0.5,0,0.7c0.1,0.2,0.3,0.4,0.5,0.5l3.4,1.2c0.1,0,0.2,0.1,0.3,0.1
		c0.1,0,0.3,0,0.4-0.1c0.2-0.1,0.4-0.3,0.5-0.5l1.1-3c0.5,0.1,0.9,0.1,1.4,0.1c0.5,0,1,0,1.4-0.1l1.1,3c0.1,0.2,0.2,0.4,0.5,0.5
		c0.1,0.1,0.2,0.1,0.4,0.1c0.1,0,0.2,0,0.3-0.1l3.4-1.2c0.2-0.1,0.4-0.2,0.5-0.5c0.1-0.2,0.1-0.4,0-0.7l-1.1-3
		c0.8-0.5,1.5-1.1,2.2-1.8l2.8,1.6c0.1,0.1,0.3,0.1,0.4,0.1c0.1,0,0.2,0,0.2,0c0.2-0.1,0.4-0.2,0.5-0.4l1.8-3.1
		c0.1-0.2,0.1-0.4,0.1-0.7c-0.1-0.2-0.2-0.4-0.4-0.5l-2.8-1.6c0.3-0.9,0.4-1.8,0.5-2.8l3.1-0.6c0.2,0,0.4-0.2,0.6-0.4
		C99.9,79.6,99.9,79.3,99.9,79.1z M84.3,84.7c-2.7,0-4.8-2.1-4.8-4.8s2.1-4.8,4.8-4.8c2.7,0,4.8,2.1,4.8,4.8S86.9,84.7,84.3,84.7z"
		/>
	<g>
		<path fill="#505150" d="M39.2,55.2c0-1.1-0.7-2.2-1.7-2.6l-9.4-4.4l9.4-4.4c1-0.5,1.7-1.5,1.7-2.6v-0.1c0-1-0.5-1.9-1.3-2.5
			c-0.5-0.3-1-0.5-1.6-0.5c-0.4,0-0.8,0.1-1.2,0.3l-15,7c-1,0.5-1.7,1.5-1.7,2.6v0.2c0,1.1,0.7,2.2,1.7,2.6l15,7
			c0.4,0.2,0.8,0.3,1.2,0.3c0.6,0,1.1-0.2,1.6-0.5C38.7,57.2,39.2,56.3,39.2,55.2L39.2,55.2L39.2,55.2z"/>
		<path fill="#505150" d="M54,31.2c-0.5-0.7-1.4-1.2-2.4-1.2h-0.1c-1.3,0-2.4,0.8-2.8,2L39,62.6c-0.3,0.9-0.1,1.9,0.4,2.6
			c0.5,0.7,1.4,1.2,2.4,1.2h0.1c1.3,0,2.4-0.8,2.8-2l9.9-30.6C54.7,32.9,54.6,31.9,54,31.2z"/>
		<path fill="#505150" d="M73.3,45.5l-15-7c-0.4-0.2-0.8-0.3-1.2-0.3c-0.6,0-1.1,0.2-1.6,0.5c-0.8,0.5-1.3,1.5-1.3,2.5v0.1
			c0,1.1,0.7,2.2,1.7,2.6l9.4,4.4l-9.4,4.4c-1,0.5-1.7,1.5-1.7,2.6v0.1c0,1,0.5,1.9,1.3,2.5c0.5,0.3,1,0.5,1.6,0.5
			c0.4,0,0.8-0.1,1.2-0.3l15-7c1-0.5,1.7-1.5,1.7-2.6v-0.2C75,47,74.3,46,73.3,45.5z"/>
	</g>
</g>
<g>
	<path fill="#5A9A6F" d="M67.3,83c-0.5-0.3-1-0.7-1.3-1.2c-0.2-0.2-0.3-0.5-0.4-0.7H6.8V23.1h79.8V61c1.7,0.2,3.1,1.3,3.7,2.8
		c0.5-0.3,1.1-0.5,1.7-0.5c0.4,0,0.8,0,1.2,0.1V8.7c0-3.1-2.5-5.6-5.6-5.6h-82c-3.1,0-5.6,2.5-5.6,5.6v73.5c0,3.1,2.5,5.6,5.6,5.6
		h61.1c-0.5-1-0.6-2.1-0.3-3.1C66.7,84.1,67,83.5,67.3,83z M80.4,12.5c0-1.1,0.9-2.1,2.1-2.1h2.1c1.1,0,2.1,0.9,2.1,2.1v2.3
		c0,1.1-0.9,2.1-2.1,2.1h-2.1c-1.1,0-2.1-0.9-2.1-2.1V12.5z M70.8,12.5c0-1.1,0.9-2.1,2.1-2.1H75c1.1,0,2.1,0.9,2.1,2.1v2.3
		c0,1.1-0.9,2.1-2.1,2.1h-2.1c-1.1,0-2.1-0.9-2.1-2.1V12.5z M61.2,12.5c0-1.1,0.9-2.1,2.1-2.1h2.1c1.1,0,2.1,0.9,2.1,2.1v2.3
		c0,1.1-0.9,2.1-2.1,2.1h-2.1c-1.1,0-2.1-0.9-2.1-2.1V12.5z"/>
</g>
</svg>
