<?xml version="1.0" encoding="utf-8"?>
<!-- Generator: Adobe Illustrator 18.1.1, SVG Export Plug-In . SVG Version: 6.00 Build 0)  -->
<!DOCTYPE svg PUBLIC "-//W3C//DTD SVG 1.1//EN" "http://www.w3.org/Graphics/SVG/1.1/DTD/svg11.dtd">
<svg version="1.1" id="Layer_1" xmlns="http://www.w3.org/2000/svg" xmlns:xlink="http://www.w3.org/1999/xlink" x="0px" y="0px"
	 viewBox="0 0 100 100" enable-background="new 0 0 100 100" xml:space="preserve">
<g>
	<g>
		<path fill="#505150" d="M96.5,59.7H69.2c-1.8,0-3.2,1.5-3.2,3.3v21.3c0,1.8,1.4,3.2,3.2,3.2h10.3v3.7h-3.9c-1.6,0-2.9,1.2-2.9,2.8
			v1.9h19V94c0-1.6-1.2-2.8-2.8-2.8h-3.5v-3.7h11.1c1.8,0,3.2-1.4,3.2-3.2V63C99.7,61.2,98.2,59.7,96.5,59.7z M95,82.6H70.7v-18H95
			V82.6z"/>
		<path fill="#505150" d="M19.9,61.8H2.6c-1.2,0-2.3,1-2.3,2.2v30.3c0,1.2,1.1,2.2,2.3,2.2h0.1h17.2h0.1c1.2,0,2.2-1,2.2-2.2V64
			C22.2,62.8,21.1,61.8,19.9,61.8z M17.9,87.7H4.8V66h13.1L17.9,87.7L17.9,87.7z"/>
		<circle fill="#505150" cx="43.9" cy="16.1" r="12.7"/>
		<path fill="#505150" d="M38.3,46.4c0-1.2,0.3-2.3,0.9-3.2l-5.5-7.6c-2.9,2-6.3,5.7-9.1,11.8h13.8L38.3,46.4L38.3,46.4z"/>
		<path fill="#505150" d="M49.2,42.1c1,1.1,1.7,2.6,1.7,4.3v0.9h12.2c-2.8-6.1-6.3-9.8-9.1-11.8L49.2,42.1z"/>
		<path fill="#505150" d="M51.4,36.4c0.4-0.3,0.5-0.7,0.5-1.1v-3.8c0-0.5-0.2-0.9-0.6-1.2c-0.4-0.3-0.8-0.3-1.3-0.1l-3,1.3
			c-0.6-1.1-1.8-1.8-3.1-1.8c-1.3,0-2.4,0.7-3.1,1.8l-3-1.3c-0.4-0.2-1-0.1-1.4,0.1c-0.4,0.3-0.7,0.7-0.7,1.2v3.8
			c0,0.5,0.3,0.9,0.6,1.1c0.4,0.3,0.9,0.3,1.3,0.2c1.2-0.4,2.7-0.8,3.5-1.1c0.7,0.8,1.6,1.3,2.8,1.3c1.1,0,2-0.5,2.7-1.2
			c0.9,0.3,2.3,0.7,3.6,1.1C50.7,36.8,51.1,36.7,51.4,36.4z"/>
	</g>
</g>
<g>
	<g>
		<path fill="#F05246" d="M63,76.6l-8.4-6.7c0.5-1.3,0.8-2.6,0.8-4c0-4.9-3.3-9-7.6-10.4v-9c0-1.8-1.5-3.3-3.3-3.3s-3.3,1.5-3.3,3.3
			v9c-4.5,1.4-7.7,5.5-7.7,10.4c0,1.4,0.2,2.6,0.7,3.8l-9,6.9c-1.4,1.1-1.7,3.1-0.6,4.6c0.6,0.8,1.6,1.3,2.6,1.3
			c0.7,0,1.4-0.2,2-0.7l9.1-6.9c1.7,1.2,3.9,1.9,6.2,1.9c2.2,0,4.3-0.7,6-1.8l8.5,6.8c0.6,0.5,1.3,0.7,2,0.7c1,0,1.9-0.4,2.6-1.2
			C64.7,79.7,64.4,77.7,63,76.6z"/>
	</g>
</g>
</svg>
