<?xml version="1.0" encoding="utf-8"?>
<!-- Generator: Adobe Illustrator 18.1.1, SVG Export Plug-In . SVG Version: 6.00 Build 0)  -->
<!DOCTYPE svg PUBLIC "-//W3C//DTD SVG 1.1//EN" "http://www.w3.org/Graphics/SVG/1.1/DTD/svg11.dtd">
<svg version="1.1" id="Layer_1" xmlns="http://www.w3.org/2000/svg" xmlns:xlink="http://www.w3.org/1999/xlink" x="0px" y="0px"
	 viewBox="0 0 100 100" enable-background="new 0 0 100 100" xml:space="preserve">
<path fill="#505150" d="M28.9,32.1h5.4v5.2h-5.4V32.1z M30.3,24.8h-5.5c0.1-0.8,0.2-1.6,0.5-2.4c0.3-0.8,0.7-1.5,1.3-2.1
	c0.6-0.6,1.3-1.1,2.2-1.5c0.9-0.4,2-0.6,3.3-0.6c1.3,0,2.3,0.2,3.2,0.5c0.9,0.3,1.6,0.8,2.1,1.3c0.5,0.5,0.9,1.1,1.2,1.8
	c0.3,0.6,0.4,1.2,0.4,1.8c0,0.8-0.1,1.5-0.3,1.9s-0.5,0.9-0.8,1.2s-0.7,0.6-1.1,0.8c-0.4,0.2-0.8,0.4-1.3,0.7
	c-0.3,0.2-0.5,0.3-0.7,0.5c-0.2,0.2-0.3,0.3-0.4,0.5s-0.2,0.4-0.2,0.6c0,0.2-0.1,0.5-0.1,0.8h-4.8c0-0.3,0-0.6,0-1
	c0-0.4,0.1-0.8,0.2-1.3c0.1-0.4,0.3-0.9,0.5-1.3c0.3-0.4,0.6-0.8,1.2-1c0.2-0.1,0.5-0.2,0.7-0.3c0.3-0.1,0.5-0.2,0.8-0.4
	c0.2-0.1,0.5-0.3,0.6-0.5c0.2-0.2,0.3-0.5,0.3-0.8c0-0.9-0.5-1.3-1.5-1.3c-0.6,0-1.1,0.2-1.3,0.7C30.3,23.7,30.2,24.2,30.3,24.8z
	 M60.6,63.5l6.1,4.1l-3.9,5.8l-6.1-4.1L60.6,63.5z M79.3,56.4c0.2,1,0.2,2,0,2.9c-0.2,0.9-0.5,1.7-0.9,2.4c-0.6,0.9-1.2,1.5-1.8,1.9
	c-0.6,0.4-1.2,0.7-1.9,0.8c-0.6,0.1-1.3,0.1-1.9,0.1c-0.6-0.1-1.3-0.1-1.9-0.2c-0.4-0.1-0.8-0.1-1.2,0c-0.3,0-0.6,0.1-0.9,0.2
	c-0.2,0.1-0.5,0.3-0.7,0.5c-0.2,0.2-0.4,0.5-0.7,0.8l-5.4-3.7c0.2-0.3,0.4-0.7,0.7-1.1c0.3-0.5,0.7-0.9,1.1-1.3c0.4-0.4,1-0.7,1.6-1
	c0.6-0.3,1.3-0.4,2.1-0.3c0.3,0,0.7,0.1,1.1,0.2c0.4,0.1,0.8,0.1,1.2,0.2c0.4,0,0.8,0,1.1-0.1c0.4-0.1,0.6-0.3,0.9-0.6
	c0.7-1,0.4-1.9-0.7-2.6c-0.7-0.5-1.4-0.6-2-0.2c-0.6,0.3-1.1,0.8-1.5,1.5l-6.1-4.1c0.7-0.9,1.5-1.7,2.4-2.3c0.9-0.7,1.9-1.1,3-1.4
	c1.1-0.3,2.3-0.3,3.6,0c1.3,0.2,2.7,0.8,4.1,1.8c1.4,1,2.5,2,3.2,3C78.7,54.4,79.1,55.4,79.3,56.4z M3.8,66.2l-3.1-0.2l0.3-3.2
	L4,62.9L3.8,66.2z M9.5,65.2c0-0.4-0.1-0.6-0.3-0.8c-0.3-0.2-0.6-0.3-0.9-0.3l0.3-3.2C9,61,9.5,61.1,9.9,61.3
	c0.5,0.2,0.9,0.5,1.2,0.9c0.3,0.4,0.6,0.8,0.8,1.4c0.2,0.6,0.3,1.2,0.2,2c-0.1,0.8-0.2,1.4-0.5,1.9c-0.2,0.5-0.5,0.9-0.9,1.2
	c-0.3,0.3-0.7,0.5-1.1,0.6c-0.4,0.1-0.8,0.2-1.1,0.2c-0.5,0-0.9-0.1-1.1-0.3c-0.3-0.1-0.5-0.3-0.7-0.5c-0.2-0.2-0.3-0.5-0.4-0.7
	c-0.1-0.3-0.2-0.5-0.3-0.8c-0.1-0.2-0.2-0.3-0.2-0.5c-0.1-0.1-0.2-0.2-0.3-0.3c-0.1-0.1-0.2-0.1-0.3-0.2c-0.1,0-0.3-0.1-0.5-0.1
	l0.2-2.9c0.2,0,0.4,0,0.6,0c0.2,0,0.5,0.1,0.8,0.2c0.3,0.1,0.5,0.2,0.7,0.4c0.2,0.2,0.4,0.4,0.6,0.7c0.1,0.1,0.1,0.3,0.2,0.5
	c0.1,0.2,0.1,0.3,0.2,0.5c0.1,0.2,0.2,0.3,0.3,0.4c0.1,0.1,0.3,0.2,0.4,0.2C9.2,66.1,9.5,65.8,9.5,65.2z M84.8,22.5l0.9,3l-3.1,0.9
	l-0.9-3L84.8,22.5z M78.2,19.9c-0.1-0.5-0.1-1-0.1-1.5c0-0.5,0.2-1,0.4-1.4c0.2-0.5,0.6-0.9,1-1.2c0.4-0.4,1-0.7,1.8-0.9
	c0.7-0.2,1.4-0.3,1.9-0.2c0.6,0.1,1,0.2,1.4,0.4s0.7,0.5,1,0.8c0.2,0.3,0.4,0.6,0.5,1c0.1,0.5,0.2,0.9,0.1,1.2
	c0,0.3-0.1,0.6-0.3,0.8c-0.1,0.2-0.3,0.5-0.5,0.7c-0.2,0.2-0.4,0.4-0.6,0.6c-0.1,0.1-0.3,0.3-0.3,0.4c-0.1,0.1-0.1,0.2-0.2,0.4
	c0,0.1,0,0.2,0,0.4c0,0.1,0,0.3,0.1,0.5l-2.8,0.8c-0.1-0.1-0.1-0.3-0.2-0.6c-0.1-0.2-0.1-0.5-0.1-0.8c0-0.3,0-0.5,0.1-0.8
	c0.1-0.3,0.2-0.5,0.5-0.8c0.1-0.1,0.2-0.2,0.4-0.3c0.1-0.1,0.3-0.2,0.4-0.4c0.1-0.1,0.2-0.3,0.3-0.4c0.1-0.1,0.1-0.3,0-0.5
	c-0.1-0.5-0.5-0.7-1.1-0.5c-0.4,0.1-0.6,0.3-0.7,0.6c-0.1,0.3-0.1,0.6,0.1,0.9L78.2,19.9z M60.9,29.5l1.9,0.2l-0.2,1.8l-1.9-0.2
	L60.9,29.5z M61.6,27l-1.9-0.2c0-0.3,0.1-0.6,0.2-0.8c0.1-0.3,0.3-0.5,0.5-0.7c0.2-0.2,0.5-0.4,0.8-0.5c0.3-0.1,0.7-0.1,1.2-0.1
	c0.4,0,0.8,0.1,1.1,0.3c0.3,0.1,0.5,0.3,0.7,0.5c0.2,0.2,0.3,0.4,0.4,0.6c0.1,0.2,0.1,0.4,0.1,0.6c0,0.3-0.1,0.5-0.2,0.7
	c-0.1,0.2-0.2,0.3-0.3,0.4c-0.1,0.1-0.3,0.2-0.4,0.2c-0.2,0.1-0.3,0.1-0.5,0.2c-0.1,0-0.2,0.1-0.3,0.1c-0.1,0.1-0.1,0.1-0.2,0.2
	c0,0.1-0.1,0.1-0.1,0.2c0,0.1,0,0.2-0.1,0.3L61,29c0-0.1,0-0.2,0-0.3c0-0.1,0-0.3,0.1-0.4s0.1-0.3,0.2-0.4c0.1-0.1,0.2-0.2,0.4-0.3
	c0.1,0,0.2-0.1,0.3-0.1c0.1,0,0.2-0.1,0.3-0.1c0.1,0,0.2-0.1,0.2-0.2c0.1-0.1,0.1-0.1,0.1-0.2c0-0.3-0.1-0.5-0.5-0.5
	c-0.2,0-0.4,0-0.5,0.2C61.7,26.6,61.6,26.8,61.6,27z M51,67.5c0.1,0.2,0.1,0.4,0.1,0.6c0,0.3-0.1,0.5-0.2,0.7
	c-0.1,0.2-0.2,0.3-0.3,0.4c-0.1,0.1-0.3,0.2-0.4,0.2c-0.2,0.1-0.3,0.1-0.5,0.2c-0.1,0-0.2,0.1-0.3,0.1c-0.1,0.1-0.1,0.1-0.2,0.2
	c0,0.1-0.1,0.1-0.1,0.2c0,0.1,0,0.2-0.1,0.3l-1.7-0.2c0-0.1,0-0.2,0-0.4c0-0.1,0-0.3,0.1-0.4c0-0.1,0.1-0.3,0.2-0.4
	c0.1-0.1,0.2-0.2,0.4-0.3c0.1,0,0.2-0.1,0.3-0.1c0.1,0,0.2-0.1,0.3-0.1c0.1,0,0.2-0.1,0.2-0.2c0.1-0.1,0.1-0.1,0.1-0.2
	c0-0.3-0.1-0.5-0.5-0.5c-0.2,0-0.4,0.1-0.5,0.2C48,67.9,48,68.1,48,68.3l-1.9-0.2c0-0.3,0.1-0.6,0.2-0.8c0.1-0.3,0.3-0.5,0.5-0.7
	c0.2-0.2,0.5-0.4,0.8-0.5c0.3-0.1,0.7-0.1,1.2-0.1c0.4,0,0.8,0.1,1.1,0.3c0.3,0.1,0.5,0.3,0.7,0.5C50.8,67.1,50.9,67.3,51,67.5z
	 M47.2,70.8l1.9,0.2l-0.2,1.8l-1.9-0.2L47.2,70.8z M11.6,13.5l-1.9-0.2c0-0.3,0.1-0.6,0.3-0.8c0.1-0.3,0.3-0.5,0.5-0.7
	c0.2-0.2,0.5-0.4,0.8-0.5c0.3-0.1,0.7-0.1,1.2-0.1c0.4,0,0.8,0.1,1.1,0.3c0.3,0.1,0.5,0.3,0.7,0.5c0.2,0.2,0.3,0.4,0.4,0.6
	c0.1,0.2,0.1,0.4,0.1,0.7c0,0.3-0.1,0.5-0.2,0.7c-0.1,0.2-0.2,0.3-0.3,0.4c-0.1,0.1-0.3,0.2-0.4,0.2c-0.2,0.1-0.3,0.1-0.5,0.2
	c-0.1,0-0.2,0.1-0.3,0.1c-0.1,0.1-0.1,0.1-0.2,0.2c0,0.1-0.1,0.1-0.1,0.2c0,0.1,0,0.2-0.1,0.3L11,15.5c0-0.1,0-0.2,0-0.3
	c0-0.1,0-0.3,0.1-0.4c0.1-0.1,0.1-0.3,0.2-0.4c0.1-0.1,0.2-0.2,0.4-0.3c0.1,0,0.2-0.1,0.3-0.1c0.1,0,0.2-0.1,0.3-0.1
	c0.1,0,0.2-0.1,0.2-0.2c0.1-0.1,0.1-0.1,0.1-0.2c0-0.3-0.1-0.5-0.5-0.5c-0.2,0-0.4,0-0.5,0.2C11.6,13.2,11.6,13.3,11.6,13.5z
	 M10.8,16l1.9,0.2L12.5,18l-1.9-0.2L10.8,16z M15.5,51.6L10.8,53l-1.3-4.5l4.7-1.3L15.5,51.6z M4.2,43.3C4,42.5,4,41.8,4,41
	c0.1-0.8,0.2-1.5,0.6-2.2c0.3-0.7,0.9-1.3,1.5-1.9c0.7-0.6,1.6-1,2.7-1.3c1.1-0.3,2.1-0.4,2.9-0.4c0.8,0.1,1.6,0.3,2.1,0.6
	c0.6,0.3,1.1,0.7,1.5,1.2c0.4,0.5,0.7,1,0.8,1.5c0.2,0.7,0.3,1.3,0.2,1.8c-0.1,0.5-0.2,0.9-0.4,1.3c-0.2,0.4-0.5,0.7-0.8,1
	c-0.3,0.3-0.6,0.6-0.9,0.9c-0.2,0.2-0.4,0.4-0.5,0.6c-0.1,0.2-0.2,0.4-0.3,0.5c0,0.2-0.1,0.4,0,0.6c0,0.2,0.1,0.4,0.1,0.7l-4.2,1.2
	c-0.1-0.2-0.2-0.5-0.3-0.9c-0.1-0.4-0.2-0.7-0.2-1.1c0-0.4,0-0.8,0.2-1.2c0.1-0.4,0.4-0.8,0.7-1.2c0.2-0.1,0.3-0.3,0.5-0.5
	c0.2-0.2,0.4-0.4,0.6-0.5c0.2-0.2,0.3-0.4,0.4-0.6c0.1-0.2,0.1-0.5,0-0.7c-0.2-0.8-0.8-1-1.6-0.8c-0.5,0.1-0.9,0.5-1,0.9
	c-0.1,0.5-0.1,0.9,0.1,1.4L4.2,43.3z M55,12.2l1.3,4.5L51.6,18l-1.3-4.5L55,12.2z M45,8.3c-0.2-0.7-0.2-1.5-0.2-2.2
	c0-0.8,0.2-1.5,0.6-2.2C45.8,3.2,46.3,2.6,47,2c0.7-0.6,1.6-1,2.7-1.3c1.1-0.3,2.1-0.4,2.9-0.4c0.8,0.1,1.5,0.3,2.1,0.6
	c0.6,0.3,1.1,0.7,1.5,1.2c0.4,0.5,0.6,1,0.8,1.5c0.2,0.7,0.3,1.3,0.2,1.8c-0.1,0.5-0.2,0.9-0.4,1.3c-0.2,0.4-0.5,0.7-0.8,1
	c-0.3,0.3-0.6,0.6-0.9,0.9c-0.2,0.2-0.4,0.4-0.5,0.6c-0.1,0.2-0.2,0.4-0.3,0.5c0,0.2-0.1,0.4,0,0.6c0,0.2,0.1,0.4,0.1,0.7l-4.2,1.2
	c-0.1-0.2-0.2-0.5-0.3-0.9c-0.1-0.4-0.2-0.7-0.2-1.1c0-0.4,0-0.8,0.2-1.2c0.1-0.4,0.4-0.8,0.7-1.2c0.2-0.1,0.3-0.3,0.5-0.5
	c0.2-0.2,0.4-0.4,0.6-0.5c0.2-0.2,0.3-0.4,0.4-0.6c0.1-0.2,0.1-0.5,0-0.7c-0.2-0.8-0.8-1-1.6-0.8c-0.5,0.2-0.9,0.5-1,0.9
	c-0.1,0.5-0.1,0.9,0.1,1.4L45,8.3z M26,60.7L22.4,60c0.1-0.5,0.3-1,0.6-1.5c0.3-0.5,0.6-0.9,1.1-1.2c0.5-0.3,1-0.6,1.6-0.7
	c0.6-0.1,1.4-0.1,2.2,0c0.8,0.2,1.5,0.4,2.1,0.7c0.5,0.3,0.9,0.7,1.2,1.1c0.3,0.4,0.5,0.9,0.6,1.3c0.1,0.4,0.1,0.9,0.1,1.2
	c-0.1,0.5-0.2,0.9-0.4,1.2c-0.2,0.3-0.4,0.5-0.7,0.7c-0.3,0.2-0.5,0.3-0.9,0.4c-0.3,0.1-0.6,0.2-0.9,0.3c-0.2,0.1-0.4,0.1-0.5,0.2
	c-0.1,0.1-0.3,0.2-0.4,0.3c-0.1,0.1-0.2,0.2-0.2,0.4c-0.1,0.1-0.1,0.3-0.1,0.5l-3.2-0.6c0-0.2,0.1-0.4,0.1-0.7
	c0-0.3,0.1-0.5,0.3-0.8c0.1-0.3,0.3-0.5,0.5-0.8c0.2-0.2,0.5-0.4,0.9-0.5c0.2,0,0.3-0.1,0.5-0.1c0.2-0.1,0.4-0.1,0.6-0.2
	c0.2-0.1,0.3-0.2,0.5-0.3c0.1-0.1,0.2-0.3,0.3-0.5c0.1-0.6-0.2-0.9-0.8-1.1c-0.4-0.1-0.7,0-1,0.3C26.2,60,26,60.3,26,60.7z
	 M24.2,65.3l3.6,0.7l-0.6,3.4l-3.6-0.7L24.2,65.3z"/>
<path fill="#682570" d="M42.8,34.9l-8.2,42.8h0L0.2,82.8l46,16.5l41-5.5l12.6-53.4L42.8,34.9z M34.7,92.9l-11.3-4.3l5.4-0.7
	l12.7,4.2L34.7,92.9z M83.5,89.3L37.9,76.4l7.3-37.8l48.9,5.8L83.5,89.3z"/>
</svg>
