<?xml version="1.0" encoding="utf-8"?>
<!-- Generator: Adobe Illustrator 18.1.1, SVG Export Plug-In . SVG Version: 6.00 Build 0)  -->
<!DOCTYPE svg PUBLIC "-//W3C//DTD SVG 1.1//EN" "http://www.w3.org/Graphics/SVG/1.1/DTD/svg11.dtd">
<svg version="1.1" id="Layer_1" xmlns="http://www.w3.org/2000/svg" xmlns:xlink="http://www.w3.org/1999/xlink" x="0px" y="0px"
	 viewBox="0 0 100 100" enable-background="new 0 0 100 100" xml:space="preserve">
<g>
	<path fill="#505150" d="M52.5,52.7V35.8l18.3,16.9h7.5L55.9,32c0.2-0.6,0.3-1.3,0.3-2c0-3.4-2.8-6.2-6.2-6.2
		c-3.4,0-6.2,2.8-6.2,6.2c0,0.7,0.1,1.4,0.3,2L21.7,52.7h7.5l18.3-16.9v16.9H52.5z"/>
	<path fill="#505150" d="M17.4,51.1l6.8-6.3C18,44.5,13,39.4,13,33.1c0-6.5,5.3-11.8,11.8-11.8c0.3,0,0.7,0,1,0.1
		c1.9,0.1,3.6-1.1,4-2.9C31.4,12,37.1,7.6,43.6,7.6c3.7,0,7.3,1.4,9.9,4.1c0.9,0.9,2.2,1.3,3.5,1c0.8-0.2,1.6-0.3,2.4-0.3
		c4.6,0,8.7,2.6,10.7,6.7c0.7,1.5,2.2,2.3,3.8,2.2c0.4,0,0.8-0.1,1.2-0.1c6.5,0,11.8,5.3,11.8,11.8c0,6.3-5,11.5-11.2,11.8l6.8,6.3
		c7.1-2.9,12.1-9.9,12.1-18.1c0-10.3-8-18.7-18-19.5c-0.5,0-1.1-0.3-1.4-0.8c-3.6-5-9.5-8.1-15.8-8.1c-0.4,0-0.9,0-1.3,0
		c-0.5,0-0.9-0.1-1.3-0.4c-3.8-2.9-8.4-4.5-13.3-4.5C35-0.1,27.3,5,23.8,12.6c-0.3,0.6-0.8,1-1.5,1.1c-9.6,1.2-17,9.5-17,19.4
		C5.3,41.2,10.3,48.2,17.4,51.1z"/>
</g>
<g>
	<path fill="#FEE000" d="M31,55.4H10.3c-1.5,0-2.7,1.2-2.7,2.7v39.4c0,1.5,1.2,2.7,2.7,2.7H31c1.5,0,2.7-1.2,2.7-2.7V58.1
		C33.6,56.6,32.4,55.4,31,55.4z M29.2,95.8H11.9V59.7h17.3C29.2,59.7,29.2,95.8,29.2,95.8z"/>
	<path fill="#FEE000" d="M27.8,84.6H13.4v9.5h14.4C27.8,94.1,27.8,84.6,27.8,84.6z M26.4,92.6H14.8V86h11.6
		C26.4,86,26.4,92.6,26.4,92.6z"/>
	<rect x="23.6" y="87.2" fill="#FEE000" width="1.4" height="4.3"/>
	<rect x="21.3" y="87.2" fill="#FEE000" width="1.5" height="4.3"/>
	<path fill="#FEE000" d="M17.7,91.6c1.3,0,2.3-1,2.3-2.3s-1-2.3-2.3-2.3s-2.3,1-2.3,2.3S16.4,91.6,17.7,91.6z M17.7,88.4
		c0.5,0,0.9,0.4,0.9,0.9c0,0.5-0.4,0.9-0.9,0.9c-0.5,0-0.9-0.4-0.9-0.9C16.8,88.8,17.2,88.4,17.7,88.4z"/>
	<path fill="#FEE000" d="M27.8,73.1H13.4v9.5h14.4C27.8,82.6,27.8,73.1,27.8,73.1z M26.4,81.1H14.8v-6.6h11.6
		C26.4,74.5,26.4,81.1,26.4,81.1z"/>
	<rect x="23.6" y="75.6" fill="#FEE000" width="1.4" height="4.3"/>
	<rect x="21.3" y="75.6" fill="#FEE000" width="1.5" height="4.3"/>
	<path fill="#FEE000" d="M17.7,80c1.3,0,2.3-1,2.3-2.3c0-1.3-1-2.3-2.3-2.3s-2.3,1-2.3,2.3C15.3,79,16.4,80,17.7,80z M17.7,76.8
		c0.5,0,0.9,0.4,0.9,0.9c0,0.5-0.4,0.9-0.9,0.9c-0.5,0-0.9-0.4-0.9-0.9C16.8,77.2,17.2,76.8,17.7,76.8z"/>
	<path fill="#FEE000" d="M27.8,61.5H13.4V71h14.4C27.8,71,27.8,61.5,27.8,61.5z M26.4,69.5H14.8v-6.6h11.6
		C26.4,62.9,26.4,69.5,26.4,69.5z"/>
	<rect x="23.6" y="64" fill="#FEE000" width="1.4" height="4.3"/>
	<rect x="21.3" y="64" fill="#FEE000" width="1.5" height="4.3"/>
	<path fill="#FEE000" d="M17.7,68.4c1.3,0,2.3-1,2.3-2.3c0-1.3-1-2.3-2.3-2.3s-2.3,1-2.3,2.3C15.3,67.4,16.4,68.4,17.7,68.4z
		 M17.7,65.2c0.5,0,0.9,0.4,0.9,0.9c0,0.5-0.4,0.9-0.9,0.9c-0.5,0-0.9-0.4-0.9-0.9C16.8,65.6,17.2,65.2,17.7,65.2z"/>
	<path fill="#FEE000" d="M60.3,55.4H39.6c-1.5,0-2.7,1.2-2.7,2.7v39.4c0,1.5,1.2,2.7,2.7,2.7h20.7c1.5,0,2.7-1.2,2.7-2.7V58.1
		C63,56.6,61.8,55.4,60.3,55.4z M58.6,95.8H41.3V59.7h17.3V95.8z"/>
	<path fill="#FEE000" d="M57.1,84.6H42.7v9.5h14.4V84.6z M55.7,92.6H44.1V86h11.6V92.6z"/>
	<rect x="52.9" y="87.2" fill="#FEE000" width="1.4" height="4.3"/>
	<rect x="50.6" y="87.2" fill="#FEE000" width="1.5" height="4.3"/>
	<path fill="#FEE000" d="M47,91.6c1.3,0,2.3-1,2.3-2.3S48.3,87,47,87c-1.3,0-2.3,1-2.3,2.3S45.7,91.6,47,91.6z M47,88.4
		c0.5,0,0.9,0.4,0.9,0.9c0,0.5-0.4,0.9-0.9,0.9c-0.5,0-0.9-0.4-0.9-0.9C46.1,88.8,46.5,88.4,47,88.4z"/>
	<path fill="#FEE000" d="M57.1,73.1H42.7v9.5h14.4V73.1z M55.7,81.1H44.1v-6.6h11.6V81.1z"/>
	<rect x="52.9" y="75.6" fill="#FEE000" width="1.4" height="4.3"/>
	<rect x="50.6" y="75.6" fill="#FEE000" width="1.5" height="4.3"/>
	<path fill="#FEE000" d="M47,80c1.3,0,2.3-1,2.3-2.3c0-1.3-1-2.3-2.3-2.3c-1.3,0-2.3,1-2.3,2.3C44.7,79,45.7,80,47,80z M47,76.8
		c0.5,0,0.9,0.4,0.9,0.9c0,0.5-0.4,0.9-0.9,0.9c-0.5,0-0.9-0.4-0.9-0.9C46.1,77.2,46.5,76.8,47,76.8z"/>
	<path fill="#FEE000" d="M57.1,61.5H42.7V71h14.4V61.5z M55.7,69.5H44.1v-6.6h11.6V69.5z"/>
	<rect x="52.9" y="64" fill="#FEE000" width="1.4" height="4.3"/>
	<rect x="50.6" y="64" fill="#FEE000" width="1.5" height="4.3"/>
	<path fill="#FEE000" d="M47,68.4c1.3,0,2.3-1,2.3-2.3c0-1.3-1-2.3-2.3-2.3c-1.3,0-2.3,1-2.3,2.3C44.7,67.4,45.7,68.4,47,68.4z
		 M47,65.2c0.5,0,0.9,0.4,0.9,0.9c0,0.5-0.4,0.9-0.9,0.9c-0.5,0-0.9-0.4-0.9-0.9C46.1,65.6,46.5,65.2,47,65.2z"/>
	<path fill="#FEE000" d="M89.6,55.4H68.9c-1.5,0-2.7,1.2-2.7,2.7v39.4c0,1.5,1.2,2.7,2.7,2.7h20.7c1.5,0,2.7-1.2,2.7-2.7V58.1
		C92.3,56.6,91.1,55.4,89.6,55.4z M87.9,95.8H70.6V59.7h17.3V95.8z"/>
	<path fill="#FEE000" d="M86.4,84.6H72.1v9.5h14.4C86.4,94.1,86.4,84.6,86.4,84.6z M85,92.6H73.4V86H85V92.6z"/>
	<rect x="82.3" y="87.2" fill="#FEE000" width="1.4" height="4.3"/>
	<rect x="80" y="87.2" fill="#FEE000" width="1.5" height="4.3"/>
	<path fill="#FEE000" d="M76.3,91.6c1.3,0,2.3-1,2.3-2.3s-1-2.3-2.3-2.3S74,88,74,89.3S75,91.6,76.3,91.6z M76.3,88.4
		c0.5,0,0.9,0.4,0.9,0.9c0,0.5-0.4,0.9-0.9,0.9s-0.9-0.4-0.9-0.9C75.4,88.8,75.8,88.4,76.3,88.4z"/>
	<path fill="#FEE000" d="M86.4,73.1H72.1v9.5h14.4C86.4,82.6,86.4,73.1,86.4,73.1z M85,81.1H73.4v-6.6H85V81.1z"/>
	<rect x="82.3" y="75.6" fill="#FEE000" width="1.4" height="4.3"/>
	<rect x="80" y="75.6" fill="#FEE000" width="1.5" height="4.3"/>
	<path fill="#FEE000" d="M76.3,80c1.3,0,2.3-1,2.3-2.3c0-1.3-1-2.3-2.3-2.3s-2.3,1-2.3,2.3C74,79,75,80,76.3,80z M76.3,76.8
		c0.5,0,0.9,0.4,0.9,0.9c0,0.5-0.4,0.9-0.9,0.9s-0.9-0.4-0.9-0.9C75.4,77.2,75.8,76.8,76.3,76.8z"/>
	<path fill="#FEE000" d="M86.4,61.5H72.1V71h14.4C86.4,71,86.4,61.5,86.4,61.5z M85,69.5H73.4v-6.6H85V69.5z"/>
	<rect x="82.3" y="64" fill="#FEE000" width="1.4" height="4.3"/>
	<rect x="80" y="64" fill="#FEE000" width="1.5" height="4.3"/>
	<path fill="#FEE000" d="M76.3,68.4c1.3,0,2.3-1,2.3-2.3c0-1.3-1-2.3-2.3-2.3s-2.3,1-2.3,2.3C74,67.4,75,68.4,76.3,68.4z M76.3,65.2
		c0.5,0,0.9,0.4,0.9,0.9c0,0.5-0.4,0.9-0.9,0.9s-0.9-0.4-0.9-0.9C75.4,65.6,75.8,65.2,76.3,65.2z"/>
</g>
</svg>
