<?xml version="1.0" encoding="utf-8"?>
<!-- Generator: Adobe Illustrator 18.1.1, SVG Export Plug-In . SVG Version: 6.00 Build 0)  -->
<!DOCTYPE svg PUBLIC "-//W3C//DTD SVG 1.1//EN" "http://www.w3.org/Graphics/SVG/1.1/DTD/svg11.dtd">
<svg version="1.1" id="Layer_1" xmlns="http://www.w3.org/2000/svg" xmlns:xlink="http://www.w3.org/1999/xlink" x="0px" y="0px"
	 viewBox="0 0 100 100" enable-background="new 0 0 100 100" xml:space="preserve">
<g>
	<g>
		<circle fill="#00AEC0" cx="50" cy="50" r="50"/>
		<path fill="#FFFFFF" d="M68.1,37c-3.5-2.5-5.6-6.6-5.6-10.9v-7.4h6.2v-6.2h-6.2h-25h-6.2v6.2h6.2v7.4c0,4.3-2.1,8.4-5.6,10.9
			C23.9,42.7,18.7,52,18.7,62.5c0,17.2,14,31.2,31.2,31.2c17.2,0,31.2-14,31.2-31.2C81.2,52,76,42.7,68.1,37z"/>
		<path id="_149931160_3_" fill="#4D4D4D" d="M46.2,69.3l-7.1-7.1v13.2h-2.7h-2.7h-5.1c4.4,7.2,12.3,12,21.3,12c9,0,17-4.8,21.3-12
			h-5.1h-4.8h-0.6V62.2l-7.1,7.1L50,73L46.2,69.3L46.2,69.3z"/>
		<path fill="#00AEC0" d="M64.4,42.1c-5.1-3.6-8.2-9.6-8.2-15.9v-7.5H43.7v7.5c0,6.3-3.1,12.2-8.2,15.9C29.1,46.6,25,54,25,62.5
			c0,2.8,0.4,5.4,1.3,7.9h7.5v-21L50,65.6l16.2-16.2v21h7.5c0.8-2.5,1.3-5.1,1.3-7.9C74.9,54,70.8,46.6,64.4,42.1z"/>
		<circle fill="#FFFFFF" cx="50" cy="32.1" r="3.1"/>
		<circle fill="#FFFFFF" cx="40.6" cy="46.8" r="3.1"/>
		<circle fill="#FFFFFF" cx="54.9" cy="45" r="4.9"/>
	</g>
</g>
</svg>
