<?xml version="1.0" encoding="utf-8"?>
<!-- Generator: Adobe Illustrator 18.1.1, SVG Export Plug-In . SVG Version: 6.00 Build 0)  -->
<!DOCTYPE svg PUBLIC "-//W3C//DTD SVG 1.1//EN" "http://www.w3.org/Graphics/SVG/1.1/DTD/svg11.dtd">
<svg version="1.1" id="Layer_1" xmlns="http://www.w3.org/2000/svg" xmlns:xlink="http://www.w3.org/1999/xlink" x="0px" y="0px"
	 viewBox="0 0 100 100" enable-background="new 0 0 100 100" xml:space="preserve">
<g>
	<g>
		<g>
			<path fill="#505150" d="M61.4,22.3h12.8l0,14.9l6.5-10.1v-8.4c0-0.5-0.2-1-0.6-1.4L63.5,0.9c-0.4-0.4-0.9-0.6-1.4-0.6H11.1
				c-3.2,0-5.8,2.6-5.8,5.8v88c0,3.2,2.6,5.8,5.8,5.8h63.7c3.2,0,5.8-2.6,5.8-5.8v-25l-6.5,9.9l0,14.4H11.7V6.8H59v13.2
				C59,21.3,60,22.3,61.4,22.3z"/>
			<path fill="#505150" d="M21.2,21.1h18.5c1.3,0,2.4-1.1,2.4-2.4s-1.1-2.4-2.4-2.4H21.2c-1.3,0-2.4,1.1-2.4,2.4
				S19.9,21.1,21.2,21.1z"/>
			<path fill="#505150" d="M56.3,30.6c0-1.3-1.1-2.4-2.4-2.4H21.2c-1.3,0-2.4,1.1-2.4,2.4c0,1.3,1.1,2.4,2.4,2.4h32.8
				C55.2,32.9,56.3,31.9,56.3,30.6z"/>
			<path fill="#505150" d="M21.2,44.8h18.5c1.3,0,2.4-1.1,2.4-2.4s-1.1-2.4-2.4-2.4H21.2c-1.3,0-2.4,1.1-2.4,2.4
				S19.9,44.8,21.2,44.8z"/>
			<path fill="#505150" d="M21.2,56.7h18.5c1.3,0,2.4-1.1,2.4-2.4c0-1.3-1.1-2.4-2.4-2.4H21.2c-1.3,0-2.4,1.1-2.4,2.4
				C18.8,55.6,19.9,56.7,21.2,56.7z"/>
			<path fill="#505150" d="M22.2,87.3c-0.5,0.6,0.4,1.4,0.8,0.8c1.5-1.9,2.7-4,3.7-6.1c0.6,0.4,1.5,0.3,2.2,0c1-0.4,1.8-1.1,2.6-1.8
				c0.5-0.4,1-1.1,1.7-1.1c0.5,0,1.2,0.4,1.7,0.4c1.3,0.2,2.8-0.2,4.1-0.5c1.2-0.3,2.6-0.8,3.3-1.8c0.4-0.6-0.6-1.2-1-0.6
				c-0.6,0.9-1.9,1.1-2.9,1.4c-1.1,0.3-2.3,0.5-3.5,0.3c-0.8-0.1-1.5-0.7-2.4-0.3c-1.2,0.5-2,1.6-3.1,2.3c-0.5,0.3-1,0.6-1.6,0.7
				c-0.2,0-0.4-0.1-0.6-0.2c0.1-0.3,0.3-0.6,0.4-0.9c1.2-2.9,1.7-5.8,2.2-8.8c0.3-1.5,0.7-4-1.5-4.1c-1.9-0.1-3.6,2.7-4.3,4.2
				c-0.6,1.3-0.6,2.9-0.6,4.3c0,0.9,0.3,1.8,0.6,2.7c-1.9,0.3-3.5,2.2-3.2,4.1c0.3,1.8,2.6,0.9,3.4,0.2c0.9-0.7,1.2-1.6,1.2-2.5
				c0.2,0.3,0.3,0.6,0.5,0.9C24.9,83.3,23.7,85.4,22.2,87.3z M24.2,80.6c-0.2,0.8-1.2,1.6-1.9,1.6c-0.6,0.1-0.2-1-0.1-1.3
				c0.4-0.8,1.3-1.3,2.1-1.5C24.3,79.9,24.3,80.3,24.2,80.6z M25.2,78.3c-0.2-0.9-0.5-1.9-0.6-2.7c-0.1-1.7,0.2-3.4,1-4.8
				c0.5-0.9,1.6-2.3,2.7-2.4c1-0.1,0.4,2.3,0.3,2.8c-0.3,1.5-0.5,3-0.8,4.5c-0.3,1.4-0.8,2.7-1.3,4.1C26.2,78.9,25.9,78.5,25.2,78.3
				z"/>
		</g>
	</g>
</g>
<g>
	<g>
		<g>
			<g>
				<path fill="#F05246" d="M87.8,46.8L85.2,45c-0.4-0.3-1-0.2-1.3,0.3l-14.4,22l-2.8-1.8l14.4-22c0.3-0.4,0.2-1-0.3-1.3l-2.7-1.7
					c-0.4-0.3-1-0.2-1.3,0.3l-21.6,33c-0.1,0.1-0.1,0.3-0.2,0.5l-0.6,11.5c0,0.3,0.1,0.7,0.4,0.8c0.3,0.2,0.6,0.2,0.9,0.1l10.3-5.1
					c0.2-0.1,0.3-0.2,0.4-0.3l21.6-33C88.4,47.6,88.3,47,87.8,46.8z"/>
				<path fill="#F05246" d="M96.7,33.2L87,26.9c-0.4-0.3-1-0.2-1.3,0.3l-6.5,10c-0.3,0.4-0.2,1,0.3,1.3l9.7,6.3
					c0.4,0.3,1,0.2,1.3-0.3l6.5-10C97.2,34.1,97.1,33.5,96.7,33.2z"/>
			</g>
		</g>
	</g>
</g>
</svg>
