<?xml version="1.0" encoding="utf-8"?>
<!-- Generator: Adobe Illustrator 18.1.1, SVG Export Plug-In . SVG Version: 6.00 Build 0)  -->
<!DOCTYPE svg PUBLIC "-//W3C//DTD SVG 1.1//EN" "http://www.w3.org/Graphics/SVG/1.1/DTD/svg11.dtd">
<svg version="1.1" id="Layer_1" xmlns="http://www.w3.org/2000/svg" xmlns:xlink="http://www.w3.org/1999/xlink" x="0px" y="0px"
	 viewBox="0 0 100 100" enable-background="new 0 0 100 100" xml:space="preserve">
<g>
	<g>
		<path fill="#505150" d="M75.3,41.3l-2.8,4.6c-0.5-0.2-1.1-0.4-1.8-0.4c-0.4,0-0.9,0.1-1.3,0.2l-2.8-5c-0.8,0.3-1.5,0.7-2.1,1.2
			l2.9,5.2c-0.7,0.8-1.1,1.8-1.1,3c0,2.5,2,4.5,4.5,4.5c2.5,0,4.5-2,4.5-4.5c0-0.9-0.3-1.8-0.8-2.5l2.9-4.7
			C76.7,42.2,76,41.8,75.3,41.3z M70.7,52.9c-1.6,0-2.9-1.3-2.9-2.9s1.3-2.9,2.9-2.9c1.6,0,2.9,1.3,2.9,2.9
			C73.6,51.6,72.3,52.9,70.7,52.9z"/>
		<path fill="#505150" d="M80.7,37.2l7.5-12.1c0.4,0.1,0.8,0.2,1.2,0.2c2.5,0,4.5-2,4.5-4.5s-2-4.5-4.5-4.5c-2.5,0-4.5,2-4.5,4.5
			c0,1.2,0.4,2.2,1.2,3l-7.5,12C79.4,36.2,80.1,36.7,80.7,37.2z M89.5,17.9c1.6,0,2.9,1.3,2.9,2.9c0,1.6-1.3,2.9-2.9,2.9
			c-1.6,0-2.9-1.3-2.9-2.9C86.7,19.2,87.9,17.9,89.5,17.9z"/>
		<path fill="#505150" d="M56.2,30.7c0.3,0.1,0.6,0.1,0.9,0.1c0.4,0,0.8-0.1,1.2-0.2l3.1,5.5c0.7-0.4,1.4-0.8,2.1-1.2l-3.1-5.6
			c0.7-0.8,1.2-1.9,1.2-3c0-2.5-2-4.5-4.5-4.5c-2.5,0-4.5,2-4.5,4.5c0,1.3,0.6,2.5,1.4,3.3l-10,21c-0.4-0.1-0.8-0.2-1.3-0.2
			c-0.4,0-0.8,0.1-1.2,0.2l-9-16.7c0.6-0.8,1-1.7,1-2.8c0-2.5-2-4.5-4.5-4.5s-4.5,2-4.5,4.5c0,0.5,0.1,0.9,0.2,1.3L7.8,43
			c-0.8-0.7-1.8-1.2-3-1.2c-2.5,0-4.5,2-4.5,4.5c0,2.5,2,4.5,4.5,4.5c2.5,0,4.5-2,4.5-4.5c0-0.4-0.1-0.8-0.2-1.2l17-10.6
			c0.8,0.7,1.8,1.1,2.9,1.1c0.5,0,1-0.1,1.5-0.3l8.9,16.5c-0.7,0.8-1.2,1.9-1.2,3c0,2.5,2,4.5,4.5,4.5c2.5,0,4.5-2,4.5-4.5
			c0-1.1-0.4-2.2-1.1-3L56.2,30.7z M57.1,23.5c1.6,0,2.9,1.3,2.9,2.9c0,1.6-1.3,2.9-2.9,2.9c-1.6,0-2.9-1.3-2.9-2.9
			C54.2,24.8,55.5,23.5,57.1,23.5z M4.8,49.2c-1.6,0-2.9-1.3-2.9-2.9c0-1.6,1.3-2.9,2.9-2.9c1.6,0,2.9,1.3,2.9,2.9
			C7.6,47.9,6.3,49.2,4.8,49.2z M29,34c-1.6,0-2.9-1.3-2.9-2.9c0-1.6,1.3-2.9,2.9-2.9s2.9,1.3,2.9,2.9C31.9,32.7,30.6,34,29,34z
			 M42.7,57.7c-1.6,0-2.9-1.3-2.9-2.9c0-1.6,1.3-2.9,2.9-2.9c1.6,0,2.9,1.3,2.9,2.9C45.6,56.4,44.3,57.7,42.7,57.7z"/>
	</g>
</g>
<g>
	<path fill="#5A9A6F" d="M99.3,80.6L81.5,60.1c5-5.7,5.1-14.3,0.1-20.1c-5.5-6.4-15.2-7-21.6-1.5c-6.4,5.5-7,15.2-1.5,21.6
		c5.1,5.8,13.6,6.9,19.9,2.7l17.9,20.5c0.7,0.8,2,0.9,2.9,0.2C100,82.7,100.1,81.4,99.3,80.6z M77.4,58.5
		c-4.7,4.1-11.8,3.6-15.8-1.1c-4.1-4.7-3.6-11.8,1.1-15.8c4.7-4.1,11.8-3.6,15.8,1.1C82.5,47.3,82,54.4,77.4,58.5z"/>
</g>
</svg>
