<?xml version="1.0" encoding="utf-8"?>
<!-- Generator: Adobe Illustrator 18.0.0, SVG Export Plug-In . SVG Version: 6.00 Build 0)  -->
<!DOCTYPE svg PUBLIC "-//W3C//DTD SVG 1.1//EN" "http://www.w3.org/Graphics/SVG/1.1/DTD/svg11.dtd">
<svg version="1.1" xmlns="http://www.w3.org/2000/svg" xmlns:xlink="http://www.w3.org/1999/xlink" x="0px" y="0px"
	 viewBox="135.2 267.5 315 109.5" enable-background="new 135.2 267.5 315 109.5" xml:space="preserve">
<g id="Guides_For_Artboard">
</g>
<g id="Layer_1">
	<path id="_149931032_2_" fill="#FF6600" d="M192.4,286.8c-20.4,0-36.9,16.5-36.9,36.9c0,4.1,0.7,8,1.9,11.7h11v-31l24,24l24-24v31
		h11c1.2-3.7,1.9-7.6,1.9-11.7C229.3,303.3,212.8,286.8,192.4,286.8L192.4,286.8z"/>
	<path id="_149931160_2_" fill="#4C4C4C" d="M186.9,333.8l-10.5-10.5v19.5h-4h-4h-7.5c6.5,10.6,18.2,17.7,31.5,17.7
		s25.1-7.1,31.5-17.7h-7.5h-7.2h-0.8v-19.5L198,333.8l-5.5,5.5L186.9,333.8L186.9,333.8z"/>
	<path fill="#4C4C4C" d="M431.9,315.3c-3.1-3.2-6.9-4.7-11.2-4.7c-2.9,0-5.6,0.7-8,2.2c-2.5,1.4-4.5,3.4-5.9,5.9
		c-1.4,2.5-2.1,5.2-2.1,8.1c0,4.4,1.5,8.2,4.6,11.4c3.1,3.2,6.9,4.8,11.5,4.8c4.4,0,8.2-1.6,11.3-4.7c3.1-3.1,4.6-6.9,4.6-11.4
		C436.6,322.3,435.1,318.4,431.9,315.3z M427.8,334.2c-2,2-4.3,3-7.1,3c-2.5,0-4.6-0.8-6.5-2.3c-2.4-2-3.7-4.7-3.7-8.1
		c0-3.1,1-5.6,2.9-7.6c1.9-2,4.3-3,7.2-3c2.8,0,5.2,1,7.2,3c2,2,3,4.5,3,7.4C430.8,329.7,429.8,332.2,427.8,334.2z"/>
	<path fill="#4C4C4C" d="M394.4,328.5c2-0.7,3.6-1.8,4.6-3.2c1-1.4,1.5-3.2,1.5-5.3c0-2-0.5-3.8-1.4-5.3c-0.9-1.5-2.1-2.5-3.7-3.2
		s-4.1-1-7.6-1h-11.3v32.3h6.2v-13.7h5.4l7.3,13.7h6.7L394.4,328.5z M393.4,322.4c-0.7,0.5-1.1,0.8-3.1,0.8h-7.7v-6.6h7.5
		c1.5,0,1.8,0.1,2.4,0.3c0.6,0.2,1.1,0.6,1.5,1.1c0.4,0.5,0.5,1.1,0.5,1.8C394.5,321.1,394.2,321.9,393.4,322.4z"/>
	<polygon fill="#4C4C4C" points="348.9,310.6 369.9,310.6 369.9,316.6 355,316.6 355,323.2 369.9,323.2 369.9,329.1 355,329.1 
		355,336.8 369.9,336.8 369.9,342.9 348.9,342.9 348.9,310.6 	"/>
	<polygon fill="#4C4C4C" points="316.4,310.6 322.3,310.6 336.2,331.8 336.2,310.6 342.3,310.6 342.3,342.9 336.4,342.9 
		322.6,321.7 322.6,342.9 316.4,342.9 	"/>
	<path fill="#4C4C4C" d="M306.9,315.3c-3.1-3.1-6.9-4.7-11.2-4.7c-2.9,0-5.5,0.7-8,2.2c-2.5,1.4-4.4,3.4-5.9,5.9
		c-1.4,2.5-2.1,5.2-2.1,8.1c0,4.4,1.5,8.2,4.6,11.4c3,3.2,6.9,4.8,11.5,4.8c4.4,0,8.1-1.5,11.2-4.7c3.1-3.1,4.6-6.9,4.6-11.4
		C311.5,322.3,310,318.4,306.9,315.3z M302.8,334.1c-1.9,2-4.3,3-7.1,3c-2.5,0-4.6-0.8-6.5-2.3c-2.4-2-3.7-4.7-3.7-8.1
		c0-3,1-5.6,2.9-7.5c1.9-2,4.3-3,7.2-3c2.8,0,5.2,1,7.2,3c2,2,3,4.5,3,7.4C305.7,329.7,304.7,332.1,302.8,334.1z"/>
	<path id="_74749088_2_" fill="#4C4C4C" d="M244.8,310.6h6l7.5,22.6l7.6-22.6h5.9l5.4,32.3h-5.9l-3.5-20.4l-6.9,20.4h-5.4l-6.8-20.4
		l-3.5,20.4h-6L244.8,310.6L244.8,310.6z"/>
</g>
</svg>
