<?xml version="1.0" encoding="utf-8"?>
<!-- Generator: Adobe Illustrator 18.1.1, SVG Export Plug-In . SVG Version: 6.00 Build 0)  -->
<!DOCTYPE svg PUBLIC "-//W3C//DTD SVG 1.1//EN" "http://www.w3.org/Graphics/SVG/1.1/DTD/svg11.dtd">
<svg version="1.1" id="Layer_1" xmlns="http://www.w3.org/2000/svg" xmlns:xlink="http://www.w3.org/1999/xlink" x="0px" y="0px"
	 viewBox="0 0 612 792" enable-background="new 0 0 612 792" xml:space="preserve">
<path id="_149931032_2_" fill="#F26822" d="M305.3,359.4c-20.4,0-36.9,16.5-36.9,36.9c0,4.1,0.7,8,1.9,11.7h11v-31l24,24l24-24v31
	h11c1.2-3.7,1.9-7.6,1.9-11.7C342.2,375.9,325.7,359.4,305.3,359.4L305.3,359.4z"/>
<path id="_149931160_2_" fill="#4D4D4D" d="M299.8,406.4l-10.5-10.5v19.5h-4h-4h-7.5c6.5,10.6,18.2,17.7,31.5,17.7
	c13.4,0,25.1-7.1,31.5-17.7h-7.5h-7.2h-0.8v-19.5l-10.5,10.5l-5.5,5.5L299.8,406.4L299.8,406.4z"/>
</svg>
