<?xml version="1.0" encoding="utf-8"?>
<!-- Generator: Adobe Illustrator 18.1.1, SVG Export Plug-In . SVG Version: 6.00 Build 0)  -->
<!DOCTYPE svg PUBLIC "-//W3C//DTD SVG 1.1//EN" "http://www.w3.org/Graphics/SVG/1.1/DTD/svg11.dtd">
<svg version="1.1" id="Layer_1" xmlns="http://www.w3.org/2000/svg" xmlns:xlink="http://www.w3.org/1999/xlink" x="0px" y="0px"
	 viewBox="0 0 100 100" enable-background="new 0 0 100 100" xml:space="preserve">
<g>
	<g>
		<path fill="#505150" d="M13.6,32.6h-0.3c-3.3,0-6,2.7-6,6v26c0,3.3,2.7,6,6,6h0.3c3.3,0,6-2.7,6-6v-26
			C19.5,35.3,16.9,32.6,13.6,32.6z"/>
		<path fill="#505150" d="M22.4,74.5c0,3,2.5,5.5,5.5,5.5h5.9v14c0,3.3,2.7,6,6,6h0.3c3.3,0,6-2.7,6-6V80h8.2v14c0,3.3,2.7,6,6,6
			h0.3c3.3,0,6-2.7,6-6V80h5.9c3,0,5.5-2.5,5.5-5.5v-41H22.4V74.5z"/>
		<path fill="#505150" d="M63.8,8.7l4.7-7.2c0.3-0.5,0.2-1.1-0.3-1.4C67.7-0.1,67,0,66.7,0.5l-4.8,7.4C58.3,6.4,54.3,5.6,50,5.6
			c-4.3,0-8.3,0.8-11.9,2.3l-4.8-7.4C33,0,32.3-0.1,31.9,0.2c-0.5,0.3-0.6,0.9-0.3,1.4l4.7,7.2c-8.4,4.1-14,11.9-14,20.8
			c0,0.5,0,1.1,0.1,1.6h55.4c0-0.5,0.1-1.1,0.1-1.6C77.8,20.6,72.1,12.8,63.8,8.7z M37.2,21.6c-1.5,0-2.7-1.2-2.7-2.7
			s1.2-2.7,2.7-2.7c1.5,0,2.7,1.2,2.7,2.7S38.6,21.6,37.2,21.6z M62.9,21.6c-1.5,0-2.7-1.2-2.7-2.7s1.2-2.7,2.7-2.7
			c1.5,0,2.7,1.2,2.7,2.7S64.3,21.6,62.9,21.6z"/>
		<path fill="#505150" d="M86.7,32.6h-0.2c-3.3,0-6,2.7-6,6v26c0,3.3,2.7,6,6,6h0.3c3.3,0,6-2.7,6-6v-26
			C92.7,35.3,90,32.6,86.7,32.6z"/>
	</g>
</g>
</svg>
