<?xml version="1.0" encoding="utf-8"?>
<!-- Generator: Adobe Illustrator 18.1.1, SVG Export Plug-In . SVG Version: 6.00 Build 0)  -->
<!DOCTYPE svg PUBLIC "-//W3C//DTD SVG 1.1//EN" "http://www.w3.org/Graphics/SVG/1.1/DTD/svg11.dtd">
<svg version="1.1" id="Layer_1" xmlns="http://www.w3.org/2000/svg" xmlns:xlink="http://www.w3.org/1999/xlink" x="0px" y="0px"
	 viewBox="0 0 100 100" enable-background="new 0 0 100 100" xml:space="preserve">
<path fill="#505050" d="M91.4,73.5c-0.5,1.6-1.1,3.1-1.7,4.6c-1.5,3.5-3.2,6.7-5.2,9.6c-2.7,4-5,6.8-6.7,8.3
	c-2.7,2.5-5.5,3.8-8.6,3.9c-2.2,0-4.8-0.6-7.9-1.9s-5.9-1.9-8.5-1.9c-2.7,0-5.7,0.7-8.8,1.9s-5.7,2-7.6,2c-2.9,0.1-5.9-1.2-8.8-4
	c-1.9-1.7-4.2-4.5-7-8.6c-3-4.3-5.5-9.4-7.4-15.1c-2.1-6.2-3.1-12.2-3.1-18c0-6.7,1.4-12.4,4.2-17.2c2.2-3.9,5.1-6.9,8.8-9.1
	s7.6-3.4,11.9-3.4c2.3,0,5.4,0.7,9.2,2.2s6.2,2.2,7.3,2.2c0.8,0,3.5-0.9,8.1-2.6c4.3-1.6,8-2.3,11-2c8.1,0.7,14.2,4,18.3,9.9
	c-7.3,4.5-10.8,10.9-10.8,19c0.1,6.3,2.3,11.6,6.7,15.8C86.7,70.9,89,72.4,91.4,73.5z M70.7,0.3c0.1,0.7,0.1,1.3,0.1,2
	c0,5-1.8,9.7-5.3,14c-4.3,5.1-9.2,7.5-14.8,7c-0.1-0.6-0.1-1.2-0.1-1.9c0-4.8,1.8-9.3,5.4-13.5c1.8-2.1,4.1-3.9,6.8-5.3
	C65.6,1.2,68.2,0.4,70.7,0.3z"/>
</svg>
