<?xml version="1.0" encoding="utf-8"?>
<!-- Generator: Adobe Illustrator 18.1.1, SVG Export Plug-In . SVG Version: 6.00 Build 0)  -->
<!DOCTYPE svg PUBLIC "-//W3C//DTD SVG 1.1//EN" "http://www.w3.org/Graphics/SVG/1.1/DTD/svg11.dtd">
<svg version="1.1" id="Layer_1" xmlns="http://www.w3.org/2000/svg" xmlns:xlink="http://www.w3.org/1999/xlink" x="0px" y="0px"
	 viewBox="0 0 100 100" enable-background="new 0 0 100 100" xml:space="preserve">
<g transform="matrix(1 0 0 -1 0 708.6484)">
	<g>
		<g>
			<path fill="#505150" d="M35.3,642.5H27l-2.5,6.4H10.5l-2.3-6.4H0l12.5,32.3h9L35.3,642.5z M17.1,667.1l-4.6-12.5h9.6L17.1,667.1z
				"/>
			<path fill="#505150" d="M51,674.8c6.4,0,10.2-4.4,10.2-9.3c0-3.5-1.8-6.2-5.3-7.9c3.2-1.7,4.2-5.6,8.5-15.1h-8.5
				c-3.3,6.9-4.6,13.1-8.8,13.1h-2.2v-13.1h-7.8v32.3H51z M44.9,661.6H49c2.1,0,4.2,0.9,4.2,3.7c0,2.4-1.5,3.6-4.4,3.6h-3.9V661.6z"
				/>
			<path fill="#505150" d="M93.2,674.8h6.8v-32.3h-7.8v20.2l-8.4-10.1h-1.2l-8.4,10.1v-20.2h-7.8v32.3h6.7l10-12L93.2,674.8z"/>
		</g>
	</g>
</g>
</svg>
