<?xml version="1.0" encoding="utf-8"?>
<!-- Generator: Adobe Illustrator 18.1.1, SVG Export Plug-In . SVG Version: 6.00 Build 0)  -->
<!DOCTYPE svg PUBLIC "-//W3C//DTD SVG 1.1//EN" "http://www.w3.org/Graphics/SVG/1.1/DTD/svg11.dtd">
<svg version="1.1" id="Layer_1" xmlns="http://www.w3.org/2000/svg" xmlns:xlink="http://www.w3.org/1999/xlink" x="0px" y="0px"
	 viewBox="0 0 100 100" enable-background="new 0 0 100 100" xml:space="preserve">
<g>
	<path fill="#505150" d="M41.7,5.9L41.7,5.9c22.8,0,41.4,15,41.4,33.5S64.6,72.8,41.7,72.8c-2.2,0-4.3-0.1-6.4-0.4
		c-8.9,8.8-19.1,10.4-29.4,10.7v-2.2c5.5-2.7,10-7.6,10-13.2c0-0.8-0.1-1.6-0.2-2.3c-9.4-6.1-15.3-15.5-15.3-26
		C0.4,20.9,18.9,5.9,41.7,5.9z M86.2,80.9c0,4.8,3.1,9,7.9,11.4v1.9c-8.9-0.2-17-1.6-24.7-9.1c-1.8,0.2-3.7,0.3-5.6,0.3
		c-8.2,0-15.8-2.2-21.9-5.9c12.5,0,24.2-4,33.2-11.3c4.5-3.6,8-7.9,10.5-12.7c2.7-5.1,4-10.5,4-16.1c0-0.9,0-1.8-0.1-2.7
		c6.3,5.2,10.1,12.2,10.1,20c0,9-5.2,17-13.3,22.3C86.2,79.6,86.2,80.2,86.2,80.9z"/>
</g>
</svg>
