<?xml version="1.0" encoding="utf-8"?>
<!-- Generator: Adobe Illustrator 18.1.1, SVG Export Plug-In . SVG Version: 6.00 Build 0)  -->
<!DOCTYPE svg PUBLIC "-//W3C//DTD SVG 1.1//EN" "http://www.w3.org/Graphics/SVG/1.1/DTD/svg11.dtd">
<svg version="1.1" id="Layer_1" xmlns="http://www.w3.org/2000/svg" xmlns:xlink="http://www.w3.org/1999/xlink" x="0px" y="0px"
	 viewBox="0 0 100 100" enable-background="new 0 0 100 100" xml:space="preserve">
<g>
	<g>
		<path fill="#505150" d="M85.2,38.4c-2.7,2.7-10.4-0.4-17-7.1c-6.7-6.7-9.8-14.3-7.1-17c0.5-0.5,1.3-0.8,2.2-0.9
			c-5.5-2.4-11.6-3.8-18-3.8C20.2,9.6,0,29.8,0,54.8c0,25,20.2,45.2,45.2,45.2s45.2-20.2,45.2-45.2c0-6.8-1.6-13.3-4.3-19.1
			C86.1,36.8,85.9,37.7,85.2,38.4z"/>
		<path fill="#505150" d="M81.1,36.2c0,0,21.7-29.8,16.2-35.3C91.9-4.6,62.8,17,62.8,17S64.5,30.4,81.1,36.2z"/>
		<path fill="#505150" d="M27.6,10.5c0,0-11.9-10.5-16.3-7.5c-4.4,3,1,17.4,1,17.4S17,9.9,27.6,10.5z"/>
	</g>
</g>
</svg>
