<?xml version="1.0" encoding="utf-8"?>
<!-- Generator: Adobe Illustrator 18.1.1, SVG Export Plug-In . SVG Version: 6.00 Build 0)  -->
<!DOCTYPE svg PUBLIC "-//W3C//DTD SVG 1.1//EN" "http://www.w3.org/Graphics/SVG/1.1/DTD/svg11.dtd">
<svg version="1.1" id="Layer_1" xmlns="http://www.w3.org/2000/svg" xmlns:xlink="http://www.w3.org/1999/xlink" x="0px" y="0px"
	 viewBox="0 0 100 100" enable-background="new 0 0 100 100" xml:space="preserve">
<g>
	<path fill="#505150" d="M93.3,26.1c-4.5-7.7-10.5-13.7-18.2-18.2c-7.7-4.5-16-6.7-25.1-6.7c-9.1,0-17.4,2.2-25.1,6.7
		c-7.7,4.5-13.7,10.5-18.2,18.2C2.2,33.8,0,42.1,0,51.2c0,10.9,3.2,20.7,9.5,29.4c6.4,8.7,14.6,14.7,24.6,18.1
		c1.2,0.2,2,0.1,2.6-0.5c0.6-0.5,0.8-1.2,0.8-2c0-0.1,0-1.3,0-3.5c0-2.2,0-4.1,0-5.8l-1.5,0.3c-1,0.2-2.2,0.2-3.6,0.2
		c-1.5,0-3-0.2-4.5-0.5c-1.6-0.3-3-0.9-4.4-2c-1.3-1-2.3-2.4-2.9-4l-0.7-1.5c-0.4-1-1.1-2.1-2.1-3.3c-0.9-1.2-1.9-2-2.8-2.5
		l-0.5-0.3c-0.3-0.2-0.6-0.5-0.8-0.8c-0.3-0.3-0.5-0.6-0.6-0.9c-0.1-0.3,0-0.6,0.3-0.8c0.3-0.2,1-0.3,1.9-0.3l1.3,0.2
		c0.9,0.2,1.9,0.7,3.2,1.6c1.3,0.9,2.3,2,3.2,3.4c1,1.8,2.2,3.1,3.6,4.1c1.4,0.9,2.8,1.4,4.3,1.4s2.7-0.1,3.7-0.3c1-0.2,2-0.5,2.9-1
		c0.4-2.9,1.5-5.1,3.2-6.7c-2.5-0.3-4.7-0.7-6.7-1.2c-2-0.5-4-1.4-6.1-2.5c-2.1-1.2-3.9-2.6-5.2-4.4c-1.4-1.7-2.5-4-3.4-6.8
		c-0.9-2.8-1.3-6.1-1.3-9.8c0-5.3,1.7-9.7,5.1-13.4c-1.6-4-1.5-8.4,0.5-13.3c1.3-0.4,3.1-0.1,5.6,0.9c2.5,1,4.3,1.8,5.4,2.5
		c1.2,0.7,2.1,1.3,2.8,1.8c4-1.1,8.2-1.7,12.5-1.7s8.5,0.6,12.5,1.7l2.5-1.6c1.7-1,3.7-2,6-2.9c2.3-0.9,4.1-1.1,5.3-0.7
		c2,4.9,2.1,9.3,0.5,13.3c3.4,3.7,5.1,8.2,5.1,13.4c0,3.7-0.4,7-1.3,9.8c-0.9,2.8-2,5.1-3.4,6.8c-1.4,1.7-3.2,3.2-5.3,4.3
		c-2.1,1.2-4.1,2-6.1,2.5c-2,0.5-4.2,0.9-6.7,1.2c2.3,2,3.4,5,3.4,9.2v13.7c0,0.8,0.3,1.4,0.8,2c0.5,0.5,1.4,0.7,2.6,0.5
		c10.1-3.3,18.3-9.4,24.7-18.1c6.4-8.7,9.5-18.5,9.5-29.4C100,42.1,97.8,33.8,93.3,26.1z"/>
</g>
</svg>
