<?xml version="1.0" encoding="utf-8"?>
<!-- Generator: Adobe Illustrator 19.2.1, SVG Export Plug-In . SVG Version: 6.00 Build 0)  -->
<!DOCTYPE svg PUBLIC "-//W3C//DTD SVG 1.1//EN" "http://www.w3.org/Graphics/SVG/1.1/DTD/svg11.dtd">
<svg version="1.1" id="Capa_1" xmlns="http://www.w3.org/2000/svg" xmlns:xlink="http://www.w3.org/1999/xlink" x="0px" y="0px"
	 viewBox="0 0 100 100" style="enable-background:new 0 0 100 100;" xml:space="preserve">
<style type="text/css">
	.st0{fill:#505150;}
</style>
<g>
	<g>
		<path class="st0" d="M47.9,53.7c0,0-5.5-10.6-5.3-18.4c0.1-5.5,12.7-11,17.6-19c4.9-8-0.6-15.7-0.6-15.7s1.2,5.7-2,11.6
			c-3.3,5.9-15.3,9.4-20,19.6S47.9,53.7,47.9,53.7z"/>
		<path class="st0" d="M68.6,21.4c0,0-18.8,7.2-18.8,15.3c0,8.2,5.1,10.8,5.9,13.5c0.8,2.7-1.4,7.2-1.4,7.2s7.4-5.1,6.1-11
			c-1.2-5.9-6.9-7.8-3.7-13.7C58.9,28.6,68.6,21.4,68.6,21.4z"/>
		<path class="st0" d="M45.9,64.5c17.4-0.6,23.7-6.1,23.7-6.1c-11.2,3.1-41.1,2.9-41.3,0.6c-0.2-2.2,9.2-4.1,9.2-4.1
			s-14.7,0-15.9,3.7C20.4,62.2,28.6,65.1,45.9,64.5z"/>
		<path class="st0" d="M71,73.1c0,0,17-3.6,15.3-12.9c-2-11.2-13.9-4.9-13.9-4.9s8.4,0,9.2,5.1C82.5,65.5,71,73.1,71,73.1z"/>
		<path class="st0" d="M62.7,68.2c0,0-4.3,1.1-10.6,1.8c-8.5,1-18.8,0.2-19.6-1.2c-0.8-1.4,1.4-2.2,1.4-2.2
			c-10.2,2.5-4.6,6.7,7.3,7.6C51.5,74.8,66.7,71,66.7,71L62.7,68.2z"/>
		<path class="st0" d="M36.3,77.1c0,0-4.6,0.1-4.9,2.6c-0.3,2.4,2.9,4.6,14.3,5.3c11.4,0.7,19.5-3.1,19.5-3.1L60,78.7
			c0,0-3.3,0.7-8.3,1.4c-5,0.7-15.4-0.5-15.8-1.5C35.5,77.6,36.3,77.1,36.3,77.1z"/>
		<path class="st0" d="M80.8,88.1c1.8-1.9-0.5-3.4-0.5-3.4s0.8,1-0.3,2c-1.1,1.1-11,3.8-27,4.6c-15.9,0.8-33.2-1.5-33.8-3.5
			c-0.5-2,8.9-3.7,8.9-3.7c-1.1,0.1-14.2,0.4-14.6,4c-0.4,3.5,5.7,6.4,30.2,6.4C68.3,94.5,79.1,90,80.8,88.1z"/>
		<path class="st0" d="M71.3,96.2C60.5,98.3,27.9,97,27.9,97s21.2,5,45.5,0.8c11.6-2,12.3-7.6,12.3-7.6S82.1,94,71.3,96.2z"/>
	</g>
</g>
</svg>
