<?xml version="1.0" encoding="utf-8"?>
<!-- Generator: Adobe Illustrator 18.1.1, SVG Export Plug-In . SVG Version: 6.00 Build 0)  -->
<!DOCTYPE svg PUBLIC "-//W3C//DTD SVG 1.1//EN" "http://www.w3.org/Graphics/SVG/1.1/DTD/svg11.dtd">
<svg version="1.1" id="Layer_1" xmlns="http://www.w3.org/2000/svg" xmlns:xlink="http://www.w3.org/1999/xlink" x="0px" y="0px"
	 viewBox="0 0 100 100" enable-background="new 0 0 100 100" xml:space="preserve">
<g>
	<path fill="#505150" d="M90.4,81.6c-2.6-1.1-4.8-2.8-4.7-6.1c0.2-3.3-2.3-5.4-2.3-5.4s2.2-7.2,0.2-13.1c-2-5.9-8.7-15.4-13.8-22.5
		c-5.1-7.2-0.8-15.4-5.4-26C59.6-2,47.5-1.4,41,3.1c-6.5,4.5-4.5,15.7-4.2,21c0.3,5.3,0.1,9-0.5,10.4c-0.6,1.4-4.8,6.4-7.6,10.6
		c-2.8,4.2-4.8,12.9-6.8,16.5c-2,3.6-0.6,6.8-0.6,6.8s-1.4,0.5-2.5,2.8c-1.1,2.3-3.3,3.4-7.1,4.2c-3.9,0.8-3.9,3.3-3,6.1
		c0.9,2.8,0,4.4-1.1,7.9c-1.1,3.6,4.4,4.7,9.6,5.3c5.3,0.6,11.2,4,16.2,4.7c5,0.6,6.5-3.4,6.5-3.4s5.6-1.3,11.5-1.4
		c5.9-0.2,11.5,1.2,11.5,1.2s1.1,2.5,3.1,3.6c2,1.1,6.4,1.2,9.2-1.7c2.8-3,10.3-6.7,14.5-9C93.8,86.2,93.1,82.6,90.4,81.6z M54,13
		c2.7,0,4.8,2.6,4.8,5.9c0,2.3-1.1,4.3-2.7,5.3c-0.4-0.2-0.8-0.4-1.3-0.5c0.9-0.5,1.6-1.7,1.6-3.1c0-1.8-1.1-3.3-2.5-3.3
		c-1.4,0-2.5,1.5-2.5,3.3c0,0.7,0.2,1.3,0.4,1.9c-0.8-0.3-1.6-0.6-2.2-0.9c-0.3-0.8-0.5-1.7-0.5-2.6C49.2,15.7,51.4,13,54,13z
		 M53.7,25.5c1.3,0.5,2.8,1.3,2.7,2.2c-0.2,0.9-0.9,0.9-2.7,2c-1.8,1.1-5.7,3.5-7,3.7c-1.3,0.2-2-0.5-3.3-1.4
		c-1.3-0.9-3.8-2.9-3.2-4c0,0,2-1.5,2.8-2.3c0.9-0.8,3.1-2.7,4.4-2.4C48.8,23.4,52.4,25,53.7,25.5z M41.7,14c2.1,0,3.8,2.5,3.8,5.6
		c0,0.6-0.1,1.1-0.2,1.6c-0.5,0.2-1,0.5-1.5,0.9c-0.3,0.2-0.5,0.4-0.7,0.6c0.3-0.6,0.5-1.5,0.3-2.4c-0.3-1.7-1.4-2.9-2.5-2.7
		c-1.1,0.2-1.8,1.7-1.5,3.4c0.3,1.7,1.4,2.9,2.5,2.7c0.1,0,0.1,0,0.2-0.1c-0.5,0.5-1,1-1.6,1.3c-1.5-0.7-2.7-2.8-2.7-5.3
		C37.9,16.5,39.6,14,41.7,14z M37.6,92.5c-0.5,2.2-3.1,3.8-3.1,3.8c-2.4,0.7-8.9-2.1-11.9-3.4c-3-1.2-10.6-1.6-11.6-2.7
		c-1-1.1,0.5-3.6,0.9-6c0.4-2.4-0.7-3.9-0.4-5.5c0.4-1.6,5.2-1.6,7.1-2.7c1.9-1.1,2.2-4.4,3.7-5.2c1.5-0.9,4.2,2.2,5.3,4
		c1.1,1.7,5.3,9.2,7.1,11C36.5,87.8,38.1,90.3,37.6,92.5z M65.1,70.8c-0.4,2.2-0.4,10.1-0.4,10.1s-4.8,6.7-12.3,7.8
		C44.9,89.8,41.1,89,41.1,89l-4.2-4.8c0,0,3.3-0.5,2.8-3.7c-0.5-3.3-9.9-7.8-11.7-11.8c-1.7-4-0.3-10.9,1.9-14.3
		c2.2-3.4,3.6-10.9,5.7-13.4c2.2-2.5,3.9-7.8,3.1-10.1c0,0,4.7,5.6,7.9,4.7c3.3-0.9,10.6-6.4,11.7-5.4c1.1,0.9,10.4,21.4,11.3,28
		c0.9,6.5-0.6,11.5-0.6,11.5S65.5,68.7,65.1,70.8z M88.9,85.5c-1.5,1.3-9.5,4.6-12,7.1c-2.4,2.5-5.6,4.6-7.5,4
		c-1.9-0.6-3.6-3.3-2.8-7.1c0.8-3.9,1.6-8.1,1.5-10.5c-0.1-2.4-0.6-5.7,0-6.2c0.6-0.5,1.6-0.2,1.6-0.2s-0.5,4.6,2.3,5.8
		c2.8,1.2,6.8-0.5,8-1.7c1.2-1.2,2.1-3,2.1-3s1.2,0.6,1.1,2.5c-0.1,1.9,0.8,4.7,2.7,5.7C87.6,82.8,90.4,84.2,88.9,85.5z"/>
</g>
</svg>
