<?xml version="1.0" encoding="utf-8"?>
<!-- Generator: Adobe Illustrator 18.1.1, SVG Export Plug-In . SVG Version: 6.00 Build 0)  -->
<!DOCTYPE svg PUBLIC "-//W3C//DTD SVG 1.1//EN" "http://www.w3.org/Graphics/SVG/1.1/DTD/svg11.dtd">
<svg version="1.1" id="Layer_1" xmlns="http://www.w3.org/2000/svg" xmlns:xlink="http://www.w3.org/1999/xlink" x="0px" y="0px"
	 viewBox="0 0 100 100" enable-background="new 0 0 100 100" xml:space="preserve">
<g>
	<path fill="#505050" d="M45.8,7.9c18-2.7,35.9-5.3,53.9-7.8c0,15.8,0,31.5,0,47.3c-18,0.1-35.9,0.3-53.9,0.4
		C45.8,34.5,45.8,21.2,45.8,7.9z"/>
	<path fill="#505050" d="M0.2,14.3c13.5-2.1,27.1-3.9,40.7-5.6c0,13.1,0,26.1,0,39.2c-13.6,0-27.1,0.2-40.7,0.2
		C0.2,48.1,0.2,14.3,0.2,14.3z"/>
	<path fill="#505050" d="M0.2,52.2c13.6,0,27.1,0.2,40.7,0.1c0,13.1,0,26.2,0,39.3c-13.5-2-27.1-3.8-40.7-5.6
		C0.2,86,0.2,52.2,0.2,52.2z"/>
	<path fill="#505050" d="M45.7,52.7c18,0,36,0,54,0c0,15.7,0,31.4,0,47.2c-18-2.7-35.9-5.2-53.9-7.6C45.8,79.1,45.8,65.9,45.7,52.7z
		"/>
</g>
</svg>
