<?xml version="1.0" encoding="utf-8"?>
<!-- Generator: Adobe Illustrator 18.1.1, SVG Export Plug-In . SVG Version: 6.00 Build 0)  -->
<!DOCTYPE svg PUBLIC "-//W3C//DTD SVG 1.1//EN" "http://www.w3.org/Graphics/SVG/1.1/DTD/svg11.dtd">
<svg version="1.1" id="Layer_1" xmlns="http://www.w3.org/2000/svg" xmlns:xlink="http://www.w3.org/1999/xlink" x="0px" y="0px"
	 viewBox="0 31.9 100 36.2" enable-background="new 0 31.9 100 36.2" xml:space="preserve">
<g>
	<g>
		
			<linearGradient id="SVGID_1_" gradientUnits="userSpaceOnUse" x1="17.1" y1="31.8749" x2="17.1" y2="61.3282" gradientTransform="matrix(1 0 0 -1 0 100)">
			<stop  offset="0" style="stop-color:#00AEEF"/>
			<stop  offset="0.1623" style="stop-color:#00ABED"/>
			<stop  offset="0.2927" style="stop-color:#00A6E9"/>
			<stop  offset="0.4121" style="stop-color:#009EE2"/>
			<stop  offset="0.5249" style="stop-color:#0094D8"/>
			<stop  offset="0.6331" style="stop-color:#0085CC"/>
			<stop  offset="0.7379" style="stop-color:#0074BE"/>
			<stop  offset="0.84" style="stop-color:#0060AE"/>
			<stop  offset="0.9373" style="stop-color:#18469D"/>
			<stop  offset="1" style="stop-color:#2E3192"/>
		</linearGradient>
		<path fill="url(#SVGID_1_)" d="M17,38.7c-5.6,0-10.2,4.6-10.2,10.2c0,4,2.3,7.4,5.7,9.1v5.6c0,1.3,1,2.3,2.3,2.3
			c0,1.3,1,2.3,2.3,2.3s2.3-1,2.3-2.3c1.3,0,2.3-1,2.3-2.3V58c3.3-1.7,5.7-5.1,5.7-9.1C27.2,43.2,22.7,38.7,17,38.7z M19.3,63.6
			h-4.5v-2.3h4.5V63.6z M20.6,55.9l-1.3,0.6V59h-4.5v-2.5l-1.3-0.6c-2.7-1.4-4.4-4.1-4.4-7.1c0-4.4,3.6-7.9,7.9-7.9s7.9,3.6,7.9,7.9
			C25,51.9,23.3,54.6,20.6,55.9z"/>
	</g>
	<g>
		<path id="_149931032_2_" fill="#F26822" d="M17.1,41.9c-3.8,0-7,3.1-7,7c0,0.8,0.1,1.5,0.4,2.2h2.1v-5.9l4.5,4.5l4.5-4.5v5.9h2.1
			c0.2-0.7,0.4-1.4,0.4-2.2C24,45.1,20.9,41.9,17.1,41.9L17.1,41.9z"/>
		<path id="_149931160_2_" fill="#4D4D4D" d="M16,50.8l-2-2v3.7h-0.8h-0.8H11c1.2,2,3.4,3.3,5.9,3.3s4.7-1.3,5.9-3.3h-1.4H20h-0.2
			v-3.7l-2,2l-1,1L16,50.8L16,50.8z"/>
	</g>
	<path fill="#505150" d="M15.9,36.4V33c0-0.6,0.5-1.1,1.1-1.1s1.1,0.5,1.1,1.1v3.4c0,0.6-0.5,1.1-1.1,1.1S15.9,37,15.9,36.4z"/>
	<path fill="#505150" d="M26.8,43.2c-0.3-0.5-0.1-1.2,0.4-1.5l2.9-1.7c0.5-0.3,1.2-0.1,1.5,0.4s0.1,1.2-0.4,1.5l-2.9,1.7
		c-0.2,0.1-0.4,0.2-0.6,0.2C27.4,43.8,27,43.6,26.8,43.2z"/>
	<path fill="#505150" d="M22.2,37.5l1.7-2.9c0.3-0.5,1-0.7,1.5-0.4s0.7,1,0.4,1.5l-1.7,2.9c-0.2,0.4-0.6,0.6-1,0.6
		c-0.2,0-0.4,0-0.6-0.2C22.1,38.7,21.9,38.1,22.2,37.5z"/>
	<path fill="#505150" d="M7.2,54.5C7.5,55,7.3,55.7,6.8,56l-2.9,1.7c-0.2,0.1-0.4,0.2-0.6,0.2c-0.4,0-0.8-0.2-1-0.6
		c-0.3-0.5-0.1-1.2,0.4-1.5l2.9-1.7C6.2,53.8,6.9,54,7.2,54.5z"/>
	<path fill="#505150" d="M4.5,50H1.1C0.5,50,0,49.5,0,48.9s0.5-1.1,1.1-1.1h3.4c0.6,0,1.1,0.5,1.1,1.1C5.7,49.5,5.2,50,4.5,50z"/>
	<path fill="#505150" d="M2.3,40.4c0.3-0.5,1-0.7,1.5-0.4l2.9,1.7c0.5,0.3,0.7,1,0.4,1.5c-0.2,0.4-0.6,0.6-1,0.6
		c-0.2,0-0.4,0-0.6-0.2l-2.9-1.7C2.2,41.6,2,40.9,2.3,40.4z"/>
	<path fill="#505150" d="M8.1,35.7c-0.3-0.5-0.1-1.2,0.4-1.5C9,33.8,9.7,34,10,34.6l1.7,2.9c0.3,0.5,0.1,1.2-0.4,1.5
		c-0.2,0.1-0.4,0.2-0.6,0.2c-0.4,0-0.8-0.2-1-0.6L8.1,35.7z"/>
	<path fill="#505150" d="M31.7,57.4c-0.2,0.4-0.6,0.6-1,0.6c-0.2,0-0.4,0-0.6-0.2l-2.9-1.7c-0.5-0.3-0.7-1-0.4-1.5
		c0.3-0.5,1-0.7,1.5-0.4l2.9,1.7C31.8,56.1,32,56.8,31.7,57.4z"/>
	<path fill="#505150" d="M34,48.9c0,0.6-0.5,1.1-1.1,1.1h-3.4c-0.6,0-1.1-0.5-1.1-1.1s0.5-1.1,1.1-1.1h3.4
		C33.5,47.7,34,48.2,34,48.9z"/>
</g>
<g>
	
		<linearGradient id="SVGID_2_" gradientUnits="userSpaceOnUse" x1="57.95" y1="38.9814" x2="57.95" y2="61.3564" gradientTransform="matrix(1 0 0 -1 0 100)">
		<stop  offset="0" style="stop-color:#29ABE2"/>
		<stop  offset="0.1765" style="stop-color:#2AA9E0"/>
		<stop  offset="0.3184" style="stop-color:#2AA3DB"/>
		<stop  offset="0.4483" style="stop-color:#2B98D3"/>
		<stop  offset="0.571" style="stop-color:#2D8AC8"/>
		<stop  offset="0.6887" style="stop-color:#2E79BA"/>
		<stop  offset="0.8026" style="stop-color:#2E65AC"/>
		<stop  offset="0.9113" style="stop-color:#2E4E9D"/>
		<stop  offset="1" style="stop-color:#2E368F"/>
	</linearGradient>
	<path fill="url(#SVGID_2_)" d="M57.7,46.2h3.7c0.1,0.3,0.1,0.5,0.1,0.7s0,0.4,0,0.6s0,0.4,0,0.7c0,0.2-0.1,0.5-0.1,0.7h-7V38.7
		c0.3-0.1,0.6-0.1,0.9-0.1c0.3,0,0.6,0,0.8,0s0.5,0,0.8,0s0.6,0.1,0.8,0.1V46.2z"/>
	
		<linearGradient id="SVGID_3_" gradientUnits="userSpaceOnUse" x1="64.65" y1="38.9814" x2="64.65" y2="61.3564" gradientTransform="matrix(1 0 0 -1 0 100)">
		<stop  offset="0" style="stop-color:#29ABE2"/>
		<stop  offset="0.1765" style="stop-color:#2AA9E0"/>
		<stop  offset="0.3184" style="stop-color:#2AA3DB"/>
		<stop  offset="0.4483" style="stop-color:#2B98D3"/>
		<stop  offset="0.571" style="stop-color:#2D8AC8"/>
		<stop  offset="0.6887" style="stop-color:#2E79BA"/>
		<stop  offset="0.8026" style="stop-color:#2E65AC"/>
		<stop  offset="0.9113" style="stop-color:#2E4E9D"/>
		<stop  offset="1" style="stop-color:#2E368F"/>
	</linearGradient>
	<path fill="url(#SVGID_3_)" d="M66.3,49c-0.3,0-0.6,0-0.9,0.1c-0.3,0-0.5,0-0.7,0s-0.5,0-0.7,0C63.6,49,63.3,49,63,49V38.8
		c0.3-0.1,0.6-0.1,0.9-0.1s0.6,0,0.8,0c0.2,0,0.5,0,0.8,0s0.6,0.1,0.8,0.1C66.3,38.8,66.3,49,66.3,49z"/>
	
		<linearGradient id="SVGID_4_" gradientUnits="userSpaceOnUse" x1="72.6" y1="38.9814" x2="72.6" y2="61.3564" gradientTransform="matrix(1 0 0 -1 0 100)">
		<stop  offset="0" style="stop-color:#29ABE2"/>
		<stop  offset="0.1765" style="stop-color:#2AA9E0"/>
		<stop  offset="0.3184" style="stop-color:#2AA3DB"/>
		<stop  offset="0.4483" style="stop-color:#2B98D3"/>
		<stop  offset="0.571" style="stop-color:#2D8AC8"/>
		<stop  offset="0.6887" style="stop-color:#2E79BA"/>
		<stop  offset="0.8026" style="stop-color:#2E65AC"/>
		<stop  offset="0.9113" style="stop-color:#2E4E9D"/>
		<stop  offset="1" style="stop-color:#2E368F"/>
	</linearGradient>
	<path fill="url(#SVGID_4_)" d="M73.3,49.2c-0.9,0-1.7-0.1-2.4-0.4c-0.7-0.3-1.2-0.7-1.6-1.2s-0.7-1.1-0.9-1.7S68,44.6,68,43.8
		c0-0.7,0.1-1.4,0.3-2c0.2-0.6,0.6-1.2,1-1.7c0.5-0.5,1-0.8,1.7-1.1s1.4-0.4,2.3-0.4c0.5,0,1,0.1,1.5,0.2c0.6,0.1,1.2,0.3,1.8,0.6
		c0,0.2,0,0.4-0.1,0.6s-0.1,0.4-0.1,0.6c-0.1,0.2-0.1,0.4-0.2,0.6c-0.1,0.2-0.2,0.5-0.3,0.8c-0.4-0.2-0.9-0.3-1.2-0.4
		c-0.4-0.1-0.7-0.1-1-0.1c-0.4,0-0.8,0.1-1.1,0.2c-0.3,0.1-0.5,0.3-0.7,0.5s-0.3,0.5-0.4,0.8s-0.1,0.6-0.1,0.9
		c0,0.9,0.2,1.5,0.6,1.9s0.9,0.6,1.7,0.6H74v-2.9c0.3-0.1,0.6-0.1,0.9-0.1s0.5,0,0.7,0c0.5,0,1,0.1,1.6,0.2v5
		c-0.4,0.1-0.9,0.3-1.6,0.5S74.2,49.2,73.3,49.2z"/>
	
		<linearGradient id="SVGID_5_" gradientUnits="userSpaceOnUse" x1="83.95" y1="38.9814" x2="83.95" y2="61.3564" gradientTransform="matrix(1 0 0 -1 0 100)">
		<stop  offset="0" style="stop-color:#29ABE2"/>
		<stop  offset="0.1765" style="stop-color:#2AA9E0"/>
		<stop  offset="0.3184" style="stop-color:#2AA3DB"/>
		<stop  offset="0.4483" style="stop-color:#2B98D3"/>
		<stop  offset="0.571" style="stop-color:#2D8AC8"/>
		<stop  offset="0.6887" style="stop-color:#2E79BA"/>
		<stop  offset="0.8026" style="stop-color:#2E65AC"/>
		<stop  offset="0.9113" style="stop-color:#2E4E9D"/>
		<stop  offset="1" style="stop-color:#2E368F"/>
	</linearGradient>
	<path fill="url(#SVGID_5_)" d="M85.3,45.2h-2.9V49c-0.3,0.1-0.6,0.1-0.9,0.1s-0.5,0-0.7,0s-0.5,0-0.7,0c-0.3,0-0.6-0.1-0.9-0.1
		V38.8c0.3-0.1,0.6-0.1,0.9-0.1s0.6,0,0.8,0c0.2,0,0.5,0,0.8,0s0.6,0.1,0.8,0.1v3.5h2.9v-3.5c0.3-0.1,0.6-0.1,0.9-0.1s0.6,0,0.8,0
		c0.2,0,0.5,0,0.8,0s0.6,0.1,0.8,0.1V49c-0.4,0-0.7,0-1,0.1c-0.3,0-0.5,0-0.7,0s-0.5,0-0.7,0C86,49,85.7,49,85.3,49V45.2z"/>
	
		<linearGradient id="SVGID_6_" gradientUnits="userSpaceOnUse" x1="94.8" y1="38.9814" x2="94.8" y2="61.3564" gradientTransform="matrix(1 0 0 -1 0 100)">
		<stop  offset="0" style="stop-color:#29ABE2"/>
		<stop  offset="0.1765" style="stop-color:#2AA9E0"/>
		<stop  offset="0.3184" style="stop-color:#2AA3DB"/>
		<stop  offset="0.4483" style="stop-color:#2B98D3"/>
		<stop  offset="0.571" style="stop-color:#2D8AC8"/>
		<stop  offset="0.6887" style="stop-color:#2E79BA"/>
		<stop  offset="0.8026" style="stop-color:#2E65AC"/>
		<stop  offset="0.9113" style="stop-color:#2E4E9D"/>
		<stop  offset="1" style="stop-color:#2E368F"/>
	</linearGradient>
	<path fill="url(#SVGID_6_)" d="M93.1,41.6h-2.9c-0.1-0.3-0.1-0.5-0.1-0.7s0-0.4,0-0.7s0-0.4,0-0.6c0-0.2,0.1-0.5,0.1-0.7h9.2
		c0.1,0.3,0.1,0.5,0.1,0.7s0,0.4,0,0.6s0,0.4,0,0.7c0,0.2-0.1,0.5-0.1,0.7h-2.9V49c-0.3,0.1-0.6,0.1-0.9,0.1s-0.5,0-0.7,0
		s-0.5,0-0.7,0c-0.3,0-0.6-0.1-0.9-0.1v-7.4H93.1z"/>
	
		<linearGradient id="SVGID_7_" gradientUnits="userSpaceOnUse" x1="43.85" y1="38.9814" x2="43.85" y2="61.3564" gradientTransform="matrix(1 0 0 -1 0 100)">
		<stop  offset="0" style="stop-color:#29ABE2"/>
		<stop  offset="0.1765" style="stop-color:#2AA9E0"/>
		<stop  offset="0.3184" style="stop-color:#2AA3DB"/>
		<stop  offset="0.4483" style="stop-color:#2B98D3"/>
		<stop  offset="0.571" style="stop-color:#2D8AC8"/>
		<stop  offset="0.6887" style="stop-color:#2E79BA"/>
		<stop  offset="0.8026" style="stop-color:#2E65AC"/>
		<stop  offset="0.9113" style="stop-color:#2E4E9D"/>
		<stop  offset="1" style="stop-color:#2E368F"/>
	</linearGradient>
	<path fill="url(#SVGID_7_)" d="M49.2,47.1c0.3-0.1,0.6-0.1,0.9-0.1s0.5,0,0.7,0c0.3,0,0.5,0,0.8,0s0.6,0.1,1,0.1l-3.4,14.1
		c-0.2,0-0.4,0.1-0.8,0.1c-0.3,0-0.6,0.1-1,0.1s-0.7,0-1.1-0.1s-0.6-0.1-0.7-0.1L43.8,53l-2,8.1c-0.1,0-0.3,0.1-0.7,0.1
		c-0.3,0-0.7,0.1-1,0.1c-0.4,0-0.7,0-1-0.1c-0.3,0-0.5-0.1-0.7-0.1l-3.3-14c0.4-0.1,0.7-0.1,1.1-0.1c0.3,0,0.6,0,0.9,0
		c0.2,0,0.5,0,0.8,0s0.6,0.1,0.9,0.1l1.6,9c0.3-1.4,0.7-2.9,1-4.5s0.6-3.1,1-4.5c0.2,0,0.5-0.1,0.8-0.1s0.6,0,0.9,0
		c0.3,0,0.5,0,0.8,0s0.5,0.1,0.7,0.1l2,9.1L49.2,47.1z"/>
	
		<linearGradient id="SVGID_8_" gradientUnits="userSpaceOnUse" x1="56.85" y1="38.9814" x2="56.85" y2="61.3564" gradientTransform="matrix(1 0 0 -1 0 100)">
		<stop  offset="0" style="stop-color:#29ABE2"/>
		<stop  offset="0.1765" style="stop-color:#2AA9E0"/>
		<stop  offset="0.3184" style="stop-color:#2AA3DB"/>
		<stop  offset="0.4483" style="stop-color:#2B98D3"/>
		<stop  offset="0.571" style="stop-color:#2D8AC8"/>
		<stop  offset="0.6887" style="stop-color:#2E79BA"/>
		<stop  offset="0.8026" style="stop-color:#2E65AC"/>
		<stop  offset="0.9113" style="stop-color:#2E4E9D"/>
		<stop  offset="1" style="stop-color:#2E368F"/>
	</linearGradient>
	<path fill="url(#SVGID_8_)" d="M52.5,57.9c0-0.6,0.1-1.2,0.4-1.6s0.6-0.8,1.1-1c0.4-0.2,0.9-0.4,1.4-0.5s1-0.1,1.5-0.1h1.2
		c0-0.2-0.1-0.4-0.2-0.6s-0.3-0.3-0.5-0.4c-0.2-0.1-0.4-0.1-0.6-0.2c-0.2,0-0.5,0-0.7,0c-0.3,0-0.7,0-1.1,0.1
		c-0.4,0.1-0.9,0.2-1.3,0.3c-0.1-0.2-0.2-0.4-0.3-0.6c-0.1-0.2-0.2-0.4-0.2-0.6s-0.1-0.4-0.1-0.6c0-0.2,0-0.4,0-0.7
		c0.6-0.2,1.3-0.4,1.9-0.5c0.6-0.1,1.2-0.2,1.7-0.2c0.7,0,1.3,0.1,1.9,0.2c0.6,0.2,1,0.4,1.4,0.8c0.4,0.3,0.7,0.8,0.9,1.3
		s0.3,1.2,0.3,1.9v5.8c-0.5,0.1-1.1,0.3-1.8,0.4s-1.5,0.2-2.2,0.2s-1.3-0.1-1.9-0.2c-0.6-0.1-1.1-0.3-1.5-0.6s-0.7-0.6-1-1.1
		C52.6,59.1,52.5,58.5,52.5,57.9z M57.1,59c0.1,0,0.3,0,0.5,0s0.4-0.1,0.5-0.1v-2.2H57c-0.5,0-0.8,0.1-1.2,0.3
		c-0.3,0.2-0.5,0.5-0.5,0.8s0.1,0.5,0.2,0.6c0.1,0.2,0.3,0.3,0.4,0.3c0.2,0.1,0.4,0.1,0.6,0.2C56.7,59,56.9,59,57.1,59z"/>
	
		<linearGradient id="SVGID_9_" gradientUnits="userSpaceOnUse" x1="66.85" y1="38.9814" x2="66.85" y2="61.3564" gradientTransform="matrix(1 0 0 -1 0 100)">
		<stop  offset="0" style="stop-color:#29ABE2"/>
		<stop  offset="0.1765" style="stop-color:#2AA9E0"/>
		<stop  offset="0.3184" style="stop-color:#2AA3DB"/>
		<stop  offset="0.4483" style="stop-color:#2B98D3"/>
		<stop  offset="0.571" style="stop-color:#2D8AC8"/>
		<stop  offset="0.6887" style="stop-color:#2E79BA"/>
		<stop  offset="0.8026" style="stop-color:#2E65AC"/>
		<stop  offset="0.9113" style="stop-color:#2E4E9D"/>
		<stop  offset="1" style="stop-color:#2E368F"/>
	</linearGradient>
	<path fill="url(#SVGID_9_)" d="M66.6,58.4h3.7c0.1,0.3,0.1,0.5,0.1,0.7s0,0.4,0,0.6s0,0.4,0,0.7c0,0.2-0.1,0.5-0.1,0.7h-7V50.9
		c0.3-0.1,0.6-0.1,0.9-0.1s0.6,0,0.8,0c0.2,0,0.5,0,0.8,0s0.6,0.1,0.8,0.1L66.6,58.4z"/>
	
		<linearGradient id="SVGID_10_" gradientUnits="userSpaceOnUse" x1="75.45" y1="38.9814" x2="75.45" y2="61.3564" gradientTransform="matrix(1 0 0 -1 0 100)">
		<stop  offset="0" style="stop-color:#29ABE2"/>
		<stop  offset="0.1765" style="stop-color:#2AA9E0"/>
		<stop  offset="0.3184" style="stop-color:#2AA3DB"/>
		<stop  offset="0.4483" style="stop-color:#2B98D3"/>
		<stop  offset="0.571" style="stop-color:#2D8AC8"/>
		<stop  offset="0.6887" style="stop-color:#2E79BA"/>
		<stop  offset="0.8026" style="stop-color:#2E65AC"/>
		<stop  offset="0.9113" style="stop-color:#2E4E9D"/>
		<stop  offset="1" style="stop-color:#2E368F"/>
	</linearGradient>
	<path fill="url(#SVGID_10_)" d="M75.2,58.4h3.7c0.1,0.3,0.1,0.5,0.1,0.7s0,0.4,0,0.6s0,0.4,0,0.7c0,0.2-0.1,0.5-0.1,0.7h-7V50.9
		c0.3-0.1,0.6-0.1,0.9-0.1s0.6,0,0.8,0c0.2,0,0.5,0,0.8,0s0.6,0.1,0.8,0.1L75.2,58.4z"/>
	
		<linearGradient id="SVGID_11_" gradientUnits="userSpaceOnUse" x1="84.55" y1="38.9814" x2="84.55" y2="61.3564" gradientTransform="matrix(1 0 0 -1 0 100)">
		<stop  offset="0" style="stop-color:#29ABE2"/>
		<stop  offset="0.1765" style="stop-color:#2AA9E0"/>
		<stop  offset="0.3184" style="stop-color:#2AA3DB"/>
		<stop  offset="0.4483" style="stop-color:#2B98D3"/>
		<stop  offset="0.571" style="stop-color:#2D8AC8"/>
		<stop  offset="0.6887" style="stop-color:#2E79BA"/>
		<stop  offset="0.8026" style="stop-color:#2E65AC"/>
		<stop  offset="0.9113" style="stop-color:#2E4E9D"/>
		<stop  offset="1" style="stop-color:#2E368F"/>
	</linearGradient>
	<path fill="url(#SVGID_11_)" d="M83.1,57.2c0.1,0.5,0.4,0.9,0.8,1.1c0.4,0.2,0.8,0.3,1.4,0.3c0.4,0,0.8,0,1.3-0.1s0.9-0.2,1.4-0.4
		c0.2,0.3,0.3,0.7,0.5,1.2c0.1,0.5,0.2,1,0.2,1.5c-1.2,0.4-2.4,0.6-3.6,0.6c-0.9,0-1.8-0.1-2.4-0.4c-0.7-0.2-1.2-0.6-1.7-1
		c-0.4-0.5-0.7-1-0.9-1.7c-0.2-0.6-0.3-1.3-0.3-2.1c0-0.7,0.1-1.4,0.3-2.1s0.5-1.2,0.9-1.7s0.9-0.9,1.6-1.2s1.4-0.4,2.2-0.4
		c0.7,0,1.3,0.1,1.9,0.4c0.5,0.2,1,0.6,1.4,1s0.7,0.9,0.9,1.5s0.3,1.2,0.3,1.9c0,0.4,0,0.7,0,1s-0.1,0.5-0.1,0.7h-6.1V57.2z
		 M84.7,53.3c-0.4,0-0.8,0.1-1.1,0.4s-0.5,0.7-0.5,1.2h3.1c0-0.5-0.2-0.8-0.4-1.2C85.6,53.4,85.2,53.3,84.7,53.3z"/>
	
		<linearGradient id="SVGID_12_" gradientUnits="userSpaceOnUse" x1="94.8" y1="38.9814" x2="94.8" y2="61.3564" gradientTransform="matrix(1 0 0 -1 0 100)">
		<stop  offset="0" style="stop-color:#29ABE2"/>
		<stop  offset="0.1765" style="stop-color:#2AA9E0"/>
		<stop  offset="0.3184" style="stop-color:#2AA3DB"/>
		<stop  offset="0.4483" style="stop-color:#2B98D3"/>
		<stop  offset="0.571" style="stop-color:#2D8AC8"/>
		<stop  offset="0.6887" style="stop-color:#2E79BA"/>
		<stop  offset="0.8026" style="stop-color:#2E65AC"/>
		<stop  offset="0.9113" style="stop-color:#2E4E9D"/>
		<stop  offset="1" style="stop-color:#2E368F"/>
	</linearGradient>
	<path fill="url(#SVGID_12_)" d="M93.1,53.8h-2.9c-0.1-0.3-0.1-0.5-0.1-0.7s0-0.4,0-0.7c0-0.2,0-0.4,0-0.6c0-0.2,0.1-0.5,0.1-0.7
		h9.2c0.1,0.3,0.1,0.5,0.1,0.7s0,0.4,0,0.6c0,0.2,0,0.4,0,0.7s-0.1,0.5-0.1,0.7h-2.9v7.4c-0.3,0.1-0.6,0.1-0.9,0.1s-0.5,0-0.7,0
		s-0.5,0-0.7,0s-0.6-0.1-0.9-0.1v-7.4H93.1z"/>
</g>
</svg>
