<?xml version="1.0" encoding="utf-8"?>
<!-- Generator: Adobe Illustrator 18.1.1, SVG Export Plug-In . SVG Version: 6.00 Build 0)  -->
<!DOCTYPE svg PUBLIC "-//W3C//DTD SVG 1.1//EN" "http://www.w3.org/Graphics/SVG/1.1/DTD/svg11.dtd">
<svg version="1.1" id="Layer_1" xmlns="http://www.w3.org/2000/svg" xmlns:xlink="http://www.w3.org/1999/xlink" x="0px" y="0px"
	 viewBox="0 0 100 30.4" enable-background="new 0 0 100 30.4" xml:space="preserve">
<g>
	<g>
		<path fill="#2BB673" d="M10.4,12.6c0.1-0.3,0.2-0.5,0.4-0.8c0.1-0.3,0.3-0.5,0.4-0.8l6.2-10.4c0.1-0.1,0.2-0.2,0.3-0.3
			c0.1-0.1,0.2-0.1,0.3-0.2c0.1,0,0.2-0.1,0.3-0.1c0.1,0,0.3,0,0.4,0h2.9l-2.3,18.8h-3.3l1.4-11.7c0-0.2,0.1-0.5,0.1-0.7
			c0-0.3,0.1-0.6,0.2-0.8l-6.1,10.3c-0.2,0.3-0.4,0.5-0.6,0.6c-0.2,0.1-0.5,0.2-0.8,0.2H9.6c-0.3,0-0.5-0.1-0.8-0.2
			c-0.2-0.1-0.4-0.3-0.5-0.6L4.8,5.7c0,0.3,0,0.5,0,0.8c0,0.3,0,0.5-0.1,0.7L3.3,18.9H0L2.3,0.1h2.8c0.2,0,0.3,0,0.4,0
			c0.1,0,0.2,0,0.3,0.1c0.1,0,0.2,0.1,0.2,0.2c0.1,0.1,0.2,0.2,0.2,0.3L10,11.1C10.1,11.6,10.3,12.1,10.4,12.6z"/>
		<path fill="#2BB673" d="M27.4,18.9c-0.7,0-1.4-0.1-2.1-0.4c-0.6-0.2-1.2-0.6-1.7-1.1c-0.5-0.5-0.8-1.1-1.1-1.8
			c-0.3-0.7-0.4-1.5-0.4-2.4c0-1.2,0.2-2.2,0.6-3.2c0.4-1,0.9-1.9,1.5-2.6c0.6-0.7,1.4-1.3,2.3-1.7c0.9-0.4,1.8-0.6,2.7-0.6
			c0.7,0,1.4,0.1,2.1,0.4C32,5.8,32.6,6.1,33,6.6s0.8,1.1,1.1,1.8c0.3,0.7,0.4,1.5,0.4,2.4c0,1.2-0.2,2.2-0.6,3.2
			c-0.4,1-0.9,1.9-1.5,2.6c-0.7,0.7-1.4,1.3-2.3,1.7C29.3,18.7,28.4,18.9,27.4,18.9z M27.7,16.2c0.5,0,1-0.1,1.3-0.4
			c0.4-0.3,0.7-0.7,1-1.2c0.3-0.5,0.5-1.1,0.6-1.7c0.2-0.7,0.2-1.4,0.2-2.1c0-1-0.2-1.8-0.5-2.2c-0.3-0.5-0.8-0.7-1.5-0.7
			c-0.5,0-0.9,0.1-1.3,0.4c-0.4,0.3-0.7,0.7-1,1.2c-0.3,0.5-0.5,1.1-0.6,1.7c-0.2,0.7-0.2,1.4-0.2,2.1c0,1,0.2,1.8,0.5,2.2
			C26.6,16,27.1,16.2,27.7,16.2z"/>
		<path fill="#2BB673" d="M35.7,18.9l1.6-13.4h1.8c0.4,0,0.7,0.1,0.9,0.3c0.2,0.2,0.3,0.5,0.3,0.9l0,1.4C41,7.2,41.7,6.5,42.5,6
			c0.8-0.4,1.6-0.7,2.5-0.7c0.6,0,1.1,0.1,1.5,0.3c0.4,0.2,0.8,0.6,1.1,1c0.3,0.4,0.5,1,0.6,1.6c0.1,0.6,0.1,1.4,0,2.2l-1,8.5h-3.6
			l1-8.5c0.1-0.8,0.1-1.4-0.1-1.7c-0.2-0.3-0.5-0.5-1-0.5c-0.3,0-0.7,0.1-1,0.3s-0.7,0.5-1,0.8c-0.3,0.4-0.6,0.8-0.9,1.3
			c-0.3,0.5-0.5,1.1-0.6,1.7l-0.7,6.6H35.7z"/>
		<path fill="#2BB673" d="M61.4,8.6c0,0.6-0.1,1.1-0.4,1.6c-0.2,0.5-0.7,1-1.3,1.3c-0.6,0.4-1.4,0.7-2.5,1c-1,0.3-2.3,0.5-3.9,0.7v0
			c0,2,0.8,3,2.5,3c0.6,0,1-0.1,1.4-0.2c0.4-0.1,0.6-0.3,0.9-0.5c0.3-0.2,0.5-0.3,0.7-0.5c0.2-0.1,0.5-0.2,0.7-0.2
			c0.1,0,0.2,0,0.3,0.1c0.1,0.1,0.2,0.1,0.3,0.2l0.9,1.1c-0.5,0.5-0.9,0.9-1.4,1.2c-0.4,0.3-0.9,0.6-1.4,0.8c-0.5,0.2-1,0.4-1.5,0.5
			c-0.5,0.1-1.1,0.2-1.7,0.2c-0.8,0-1.5-0.1-2.2-0.4c-0.6-0.3-1.2-0.6-1.7-1.1c-0.5-0.5-0.8-1.1-1.1-1.8s-0.4-1.5-0.4-2.3
			c0-0.7,0.1-1.4,0.2-2.1c0.2-0.7,0.4-1.3,0.7-1.9c0.3-0.6,0.6-1.2,1.1-1.7c0.4-0.5,0.9-0.9,1.4-1.3c0.5-0.4,1.1-0.7,1.8-0.9
			c0.6-0.2,1.3-0.3,2-0.3c0.7,0,1.3,0.1,1.9,0.3s1,0.5,1.4,0.8C60.7,6.6,61,7,61.2,7.4C61.4,7.8,61.4,8.2,61.4,8.6z M56.9,7.6
			c-0.4,0-0.7,0.1-1.1,0.2c-0.3,0.2-0.6,0.4-0.9,0.7c-0.3,0.3-0.5,0.6-0.7,1C54,10,53.8,10.5,53.7,11c1-0.1,1.7-0.3,2.3-0.4
			c0.6-0.2,1.1-0.3,1.4-0.5c0.3-0.2,0.5-0.4,0.7-0.6c0.1-0.2,0.2-0.4,0.2-0.7c0-0.1,0-0.2-0.1-0.4C58.1,8.2,58,8.1,57.9,8
			c-0.1-0.1-0.2-0.2-0.4-0.2C57.3,7.7,57.1,7.6,56.9,7.6z"/>
		<path fill="#2BB673" d="M62.6,18.9l1.6-13.4h1.8c0.4,0,0.7,0.1,0.9,0.3c0.2,0.2,0.3,0.5,0.3,0.9l-0.1,1.9c0.3-0.6,0.7-1.2,1.1-1.6
			c0.4-0.4,0.8-0.8,1.2-1c0.4-0.2,0.8-0.4,1.2-0.4s0.9,0,1.3,0.2l-0.6,3.4c-0.5-0.2-1-0.3-1.4-0.3c-0.4,0-0.9,0.2-1.2,0.5
			c-0.4,0.3-0.7,0.8-1,1.4c-0.3,0.6-0.6,1.3-0.8,2.3l-0.7,6H62.6z"/>
		<path fill="#2BB673" d="M76.9,18.9c-0.7,0-1.4-0.1-2.1-0.4c-0.6-0.2-1.2-0.6-1.7-1.1s-0.8-1.1-1.1-1.8c-0.3-0.7-0.4-1.5-0.4-2.4
			c0-1.2,0.2-2.2,0.6-3.2s0.9-1.9,1.5-2.6c0.6-0.7,1.4-1.3,2.3-1.7c0.9-0.4,1.8-0.6,2.7-0.6c0.7,0,1.4,0.1,2.1,0.4
			c0.6,0.2,1.2,0.6,1.7,1.1s0.8,1.1,1.1,1.8c0.3,0.7,0.4,1.5,0.4,2.4c0,1.2-0.2,2.2-0.6,3.2c-0.4,1-0.9,1.9-1.5,2.6
			c-0.7,0.7-1.4,1.3-2.3,1.7C78.8,18.7,77.9,18.9,76.9,18.9z M77.2,16.2c0.5,0,1-0.1,1.3-0.4c0.4-0.3,0.7-0.7,1-1.2
			c0.3-0.5,0.5-1.1,0.6-1.7c0.2-0.7,0.2-1.4,0.2-2.1c0-1-0.2-1.8-0.5-2.2c-0.3-0.5-0.8-0.7-1.5-0.7c-0.5,0-0.9,0.1-1.3,0.4
			c-0.4,0.3-0.7,0.7-1,1.2c-0.3,0.5-0.5,1.1-0.6,1.7c-0.2,0.7-0.2,1.4-0.2,2.1c0,1,0.2,1.8,0.5,2.2C76.1,16,76.6,16.2,77.2,16.2z"/>
		<g>
			<g>
				<g>
					<path fill="#333333" d="M90.8,7.2L90,5.5c-0.3-0.7-1.1-0.9-1.7-0.6l-0.5,0.2c0,0,0,0,0,0l0.3,0.7c0,0,0,0,0,0l0.5-0.2
						c0.2-0.1,0.5,0,0.7,0.2l0.8,1.7c0.1,0.2,0,0.5-0.2,0.7l-0.3,0.1c-0.2,0.1-0.5,0-0.7-0.2l-0.4-0.8c-0.3,0.1-0.6,0-0.9-0.1
						l0.5,1.2c0.3,0.7,1.1,0.9,1.7,0.6l0.3-0.1C90.8,8.6,91.1,7.8,90.8,7.2z"/>
					<path fill="#333333" d="M86.2,1l0.3-0.1c0.2-0.1,0.5,0,0.7,0.2l0.8,1.7c0.1,0.2,0,0.5-0.2,0.7l-0.5,0.2c0,0,0,0,0,0l0.3,0.7
						c0,0,0,0,0,0L88,4.2c0.7-0.3,0.9-1.1,0.6-1.7l-0.8-1.7c-0.3-0.7-1.1-0.9-1.7-0.6l-0.3,0.1c-0.7,0.3-0.9,1.1-0.6,1.7l0.5,1.2
						c0.1-0.3,0.3-0.6,0.5-0.8l-0.4-0.8C85.8,1.4,85.9,1.1,86.2,1z"/>
					<path fill="#333333" d="M89.2,6.5l-0.3-0.7L88.3,6c-0.2,0.1-0.5,0-0.7-0.2l-0.8-1.7c-0.1-0.2,0-0.5,0.2-0.7l0.6-0.3l-0.3-0.7
						l-0.6,0.3c-0.7,0.3-0.9,1.1-0.6,1.7l0.8,1.7c0.3,0.7,1.1,0.9,1.7,0.6L89.2,6.5z"/>
				</g>
			</g>
			<g>
				<g>
					<path fill="#333333" d="M94.3,11.5l0.8,1.7c0.3,0.7,1.1,0.9,1.7,0.6l0.5-0.2c0,0,0,0,0,0L97,12.8c0,0,0,0,0,0l-0.5,0.2
						c-0.2,0.1-0.5,0-0.7-0.2L95,11.1c-0.1-0.2,0-0.5,0.2-0.7l0.3-0.1c0.2-0.1,0.5,0,0.7,0.2l0.4,0.8c0.3-0.1,0.6,0,0.9,0.1
						l-0.5-1.2c-0.3-0.7-1.1-0.9-1.7-0.6l-0.3,0.1C94.2,10,93.9,10.8,94.3,11.5z"/>
					<path fill="#333333" d="M98.9,17.7l-0.3,0.1c-0.2,0.1-0.5,0-0.7-0.2l-0.8-1.7c-0.1-0.2,0-0.5,0.2-0.7l0.5-0.2c0,0,0,0,0,0
						l-0.3-0.7c0,0,0,0,0,0l-0.5,0.2c-0.7,0.3-0.9,1.1-0.6,1.7l0.8,1.7c0.3,0.7,1.1,0.9,1.7,0.6l0.3-0.1c0.7-0.3,0.9-1.1,0.6-1.7
						l-0.5-1.2c-0.1,0.3-0.3,0.6-0.5,0.8l0.4,0.8C99.3,17.2,99.2,17.5,98.9,17.7z"/>
					<path fill="#333333" d="M95.9,12.1l0.3,0.7l0.5-0.2c0.2-0.1,0.5,0,0.7,0.2l0.8,1.7c0.1,0.2,0,0.5-0.2,0.7l-0.6,0.3l0.3,0.7
						l0.6-0.3c0.7-0.3,0.9-1.1,0.6-1.7l-0.8-1.7c-0.3-0.7-1.1-0.9-1.7-0.6L95.9,12.1z"/>
				</g>
			</g>
			<path id="_149931032_2_" fill="#2BB673" d="M92.5,7.4c-0.9,0-1.7,0.8-1.7,1.7c0,0.2,0,0.4,0.1,0.5h0.5V8.2l1.1,1.1l1.1-1.1v1.4
				h0.5c0.1-0.2,0.1-0.3,0.1-0.5C94.2,8.2,93.5,7.4,92.5,7.4L92.5,7.4z"/>
			<path id="_149931160_2_" fill="#333333" d="M92.3,9.5l-0.5-0.5V10h-0.2h-0.2h-0.3c0.3,0.5,0.8,0.8,1.4,0.8c0.6,0,1.1-0.3,1.4-0.8
				h-0.3h-0.3h0V9.1l-0.5,0.5l-0.3,0.3L92.3,9.5L92.3,9.5z"/>
			<g>
				<g>
					<path fill="#333333" d="M90.2,9.7l-0.3-0.1c-0.7-0.3-1.4,0-1.7,0.6l-0.5,1.2c0.3-0.1,0.6-0.1,0.9-0.1l0.4-0.8
						c0.1-0.2,0.4-0.4,0.7-0.2l0.3,0.1c0.2,0.1,0.4,0.4,0.2,0.7l-0.8,1.7c-0.1,0.2-0.4,0.4-0.7,0.2l-0.5-0.2c0,0,0,0,0,0l-0.3,0.7
						c0,0,0,0,0,0l0.5,0.2c0.7,0.3,1.4,0,1.7-0.6l0.8-1.7C91.1,10.8,90.8,10,90.2,9.7z"/>
					<path fill="#333333" d="M85.9,17l0.4-0.8c-0.3-0.2-0.4-0.5-0.5-0.8l-0.5,1.2c-0.3,0.7,0,1.4,0.6,1.7l0.3,0.1
						c0.7,0.3,1.4,0,1.7-0.6l0.8-1.7c0.3-0.7,0-1.4-0.6-1.7l-0.5-0.2c0,0,0,0,0,0L87.1,15c0,0,0,0,0,0l0.5,0.2
						c0.2,0.1,0.4,0.4,0.2,0.7l-0.8,1.7c-0.1,0.2-0.4,0.4-0.7,0.2l-0.3-0.1C85.9,17.5,85.8,17.2,85.9,17z"/>
					<path fill="#333333" d="M88.6,11.9c-0.7-0.3-1.4,0-1.7,0.6l-0.8,1.7c-0.3,0.7,0,1.4,0.6,1.7l0.6,0.3l0.3-0.7l-0.6-0.3
						c-0.2-0.1-0.4-0.4-0.2-0.7l0.8-1.7c0.1-0.2,0.4-0.4,0.7-0.2l0.5,0.2l0.3-0.7L88.6,11.9z"/>
				</g>
			</g>
			<g>
				<g>
					<path fill="#333333" d="M94.9,8.9L95.2,9c0.7,0.3,1.4,0,1.7-0.6l0.5-1.2c-0.3,0.1-0.6,0.1-0.9,0.1l-0.4,0.8
						c-0.1,0.2-0.4,0.4-0.7,0.2l-0.3-0.1C95,8.1,94.9,7.8,95,7.5l0.8-1.7c0.1-0.2,0.4-0.4,0.7-0.2l0.5,0.2c0,0,0,0,0,0l0.3-0.7
						c0,0,0,0,0,0l-0.5-0.2c-0.7-0.3-1.4,0-1.7,0.6l-0.8,1.7C93.9,7.8,94.2,8.6,94.9,8.9z"/>
					<path fill="#333333" d="M99.2,1.7l-0.4,0.8c0.3,0.2,0.4,0.5,0.5,0.8L99.9,2c0.3-0.7,0-1.4-0.6-1.7L99,0.1
						c-0.7-0.3-1.4,0-1.7,0.6l-0.8,1.7c-0.3,0.7,0,1.4,0.6,1.7l0.5,0.2c0,0,0,0,0,0l0.3-0.7c0,0,0,0,0,0l-0.5-0.2
						c-0.2-0.1-0.4-0.4-0.2-0.7L98,1.1c0.1-0.2,0.4-0.4,0.7-0.2L98.9,1C99.2,1.1,99.3,1.4,99.2,1.7z"/>
					<path fill="#333333" d="M96.4,6.7c0.7,0.3,1.4,0,1.7-0.6L99,4.4c0.3-0.7,0-1.4-0.6-1.7l-0.6-0.3l-0.3,0.7L98,3.4
						c0.2,0.1,0.4,0.4,0.2,0.7l-0.8,1.7C97.3,6,97,6.1,96.8,6l-0.5-0.2l-0.3,0.7L96.4,6.7z"/>
				</g>
			</g>
		</g>
	</g>
	<defs>
		<filter id="Adobe_OpacityMaskFilter" filterUnits="userSpaceOnUse" x="0" y="18.9" width="100" height="18.9">
			<feColorMatrix  type="matrix" values="1 0 0 0 0  0 1 0 0 0  0 0 1 0 0  0 0 0 1 0"/>
		</filter>
	</defs>
	<mask maskUnits="userSpaceOnUse" x="0" y="18.9" width="100" height="18.9" id="SVGID_1_">
		<g filter="url(#Adobe_OpacityMaskFilter)">
			<linearGradient id="SVGID_2_" gradientUnits="userSpaceOnUse" x1="50" y1="18.9162" x2="50" y2="45.4485">
				<stop  offset="0" style="stop-color:#FFFFFF"/>
				<stop  offset="7.380247e-03" style="stop-color:#F6F6F6"/>
				<stop  offset="4.767627e-02" style="stop-color:#C8C8C8"/>
				<stop  offset="9.308982e-02" style="stop-color:#9D9D9D"/>
				<stop  offset="0.1419" style="stop-color:#777777"/>
				<stop  offset="0.195" style="stop-color:#575757"/>
				<stop  offset="0.2537" style="stop-color:#3B3B3B"/>
				<stop  offset="0.32" style="stop-color:#252525"/>
				<stop  offset="0.3974" style="stop-color:#141414"/>
				<stop  offset="0.4931" style="stop-color:#090909"/>
				<stop  offset="0.6274" style="stop-color:#020202"/>
				<stop  offset="1" style="stop-color:#000000"/>
			</linearGradient>
			<rect y="18.9" fill="url(#SVGID_2_)" width="100" height="26.5"/>
		</g>
	</mask>
	<g opacity="0.35" mask="url(#SVGID_1_)">
		<path fill="#2BB673" d="M10,26.8L6.3,37.1c-0.1,0.1-0.2,0.2-0.2,0.3c-0.1,0.1-0.2,0.1-0.2,0.2c-0.1,0-0.2,0.1-0.3,0.1
			c-0.1,0-0.2,0-0.4,0H2.3L0,18.9h3.3l1.4,11.7c0,0.2,0,0.5,0.1,0.7c0,0.3,0,0.5,0,0.8l3.6-10.3c0.1-0.3,0.3-0.5,0.5-0.6
			c0.2-0.1,0.5-0.2,0.8-0.2h0.5c0.3,0,0.6,0.1,0.8,0.2c0.2,0.1,0.4,0.3,0.6,0.6l6.1,10.3c-0.1-0.3-0.1-0.6-0.2-0.8
			c0-0.3-0.1-0.5-0.1-0.7l-1.4-11.7h3.3l2.3,18.8h-2.9c-0.2,0-0.3,0-0.4,0c-0.1,0-0.2,0-0.3-0.1c-0.1,0-0.2-0.1-0.3-0.2
			c-0.1-0.1-0.2-0.2-0.3-0.3l-6.2-10.4c-0.1-0.3-0.3-0.5-0.4-0.8c-0.1-0.3-0.3-0.5-0.4-0.8C10.3,25.8,10.1,26.3,10,26.8z"/>
		<path fill="#2BB673" d="M30.2,19.5c0.9,0.4,1.6,1,2.3,1.7c0.7,0.7,1.2,1.6,1.5,2.6c0.4,1,0.6,2.1,0.6,3.2c0,0.9-0.1,1.7-0.4,2.4
			c-0.3,0.7-0.6,1.3-1.1,1.8c-0.5,0.5-1,0.8-1.7,1.1c-0.6,0.2-1.3,0.4-2.1,0.4c-1,0-1.9-0.2-2.7-0.6c-0.9-0.4-1.6-1-2.3-1.7
			c-0.6-0.7-1.2-1.6-1.5-2.6c-0.4-1-0.6-2.1-0.6-3.2c0-0.9,0.1-1.7,0.4-2.4c0.3-0.7,0.6-1.3,1.1-1.8c0.5-0.5,1-0.8,1.7-1.1
			c0.6-0.2,1.3-0.4,2.1-0.4C28.4,18.9,29.3,19.1,30.2,19.5z M26.2,22.3c-0.3,0.5-0.5,1.2-0.5,2.2c0,0.7,0.1,1.4,0.2,2.1
			c0.2,0.7,0.4,1.2,0.6,1.7c0.3,0.5,0.6,0.9,1,1.2c0.4,0.3,0.8,0.4,1.3,0.4c0.7,0,1.2-0.2,1.5-0.7s0.5-1.2,0.5-2.2
			c0-0.7-0.1-1.4-0.2-2.1c-0.2-0.7-0.4-1.2-0.6-1.7c-0.3-0.5-0.6-0.9-1-1.2c-0.4-0.3-0.8-0.4-1.3-0.4C27.1,21.6,26.6,21.8,26.2,22.3
			z"/>
		<path fill="#2BB673" d="M39.3,18.9l0.7,6.6c0.2,0.6,0.4,1.2,0.6,1.7c0.3,0.5,0.6,0.9,0.9,1.3c0.3,0.4,0.7,0.6,1,0.8s0.7,0.3,1,0.3
			c0.5,0,0.8-0.2,1-0.5c0.2-0.3,0.2-0.9,0.1-1.7l-1-8.5h3.6l1,8.5c0.1,0.8,0.1,1.5,0,2.2c-0.1,0.6-0.3,1.2-0.6,1.6
			c-0.3,0.4-0.7,0.8-1.1,1c-0.4,0.2-1,0.3-1.5,0.3c-0.9,0-1.7-0.2-2.5-0.7c-0.8-0.4-1.5-1.1-2.2-2.1l0,1.4c0,0.4-0.1,0.7-0.3,0.9
			c-0.2,0.2-0.5,0.3-0.9,0.3h-1.8l-1.6-13.4H39.3z"/>
		<path fill="#2BB673" d="M61.2,30.5c-0.2,0.4-0.5,0.8-0.8,1.1c-0.4,0.3-0.8,0.6-1.4,0.8s-1.2,0.3-1.9,0.3c-0.7,0-1.4-0.1-2-0.3
			c-0.6-0.2-1.2-0.5-1.8-0.9c-0.5-0.4-1-0.8-1.4-1.3c-0.4-0.5-0.8-1.1-1.1-1.7c-0.3-0.6-0.5-1.2-0.7-1.9c-0.2-0.7-0.2-1.4-0.2-2.1
			c0-0.8,0.1-1.6,0.4-2.3s0.6-1.3,1.1-1.8c0.5-0.5,1-0.9,1.7-1.1c0.6-0.3,1.4-0.4,2.2-0.4c0.6,0,1.2,0.1,1.7,0.2
			c0.5,0.1,1,0.3,1.5,0.5c0.5,0.2,0.9,0.5,1.4,0.8c0.4,0.3,0.9,0.7,1.4,1.2l-0.9,1.1c-0.1,0.1-0.2,0.2-0.3,0.2
			C59.8,23,59.7,23,59.6,23c-0.3,0-0.5-0.1-0.7-0.2s-0.4-0.3-0.7-0.5s-0.6-0.3-0.9-0.5c-0.3-0.1-0.8-0.2-1.4-0.2c-1.7,0-2.5,1-2.5,3
			v0c1.6,0.2,2.9,0.4,3.9,0.7c1,0.3,1.9,0.6,2.5,1c0.6,0.4,1,0.8,1.3,1.3c0.2,0.5,0.4,1,0.4,1.6C61.4,29.7,61.4,30.1,61.2,30.5z
			 M57.5,30.1c0.2-0.1,0.3-0.1,0.4-0.2c0.1-0.1,0.2-0.2,0.2-0.3c0.1-0.1,0.1-0.2,0.1-0.4c0-0.3-0.1-0.5-0.2-0.7
			c-0.1-0.2-0.3-0.4-0.7-0.6c-0.3-0.2-0.8-0.4-1.4-0.5c-0.6-0.2-1.4-0.3-2.3-0.4c0.1,0.5,0.3,1,0.5,1.4c0.2,0.4,0.4,0.8,0.7,1
			c0.3,0.3,0.6,0.5,0.9,0.7c0.3,0.2,0.7,0.2,1.1,0.2C57.1,30.2,57.3,30.2,57.5,30.1z"/>
		<path fill="#2BB673" d="M66.1,18.9l0.7,6c0.2,0.9,0.5,1.7,0.8,2.3c0.3,0.6,0.6,1,1,1.4c0.4,0.3,0.8,0.5,1.2,0.5
			c0.4,0,0.9-0.1,1.4-0.3l0.6,3.4c-0.4,0.2-0.9,0.3-1.3,0.2s-0.8-0.2-1.2-0.4c-0.4-0.2-0.8-0.6-1.2-1c-0.4-0.4-0.7-1-1.1-1.6
			l0.1,1.9c0,0.4-0.1,0.7-0.3,0.9c-0.2,0.2-0.5,0.3-0.9,0.3h-1.8l-1.6-13.4H66.1z"/>
		<path fill="#2BB673" d="M79.7,19.5c0.9,0.4,1.6,1,2.3,1.7c0.7,0.7,1.2,1.6,1.5,2.6c0.4,1,0.6,2.1,0.6,3.2c0,0.9-0.1,1.7-0.4,2.4
			c-0.3,0.7-0.6,1.3-1.1,1.8c-0.5,0.5-1,0.8-1.7,1.1c-0.6,0.2-1.3,0.4-2.1,0.4c-1,0-1.9-0.2-2.7-0.6c-0.9-0.4-1.6-1-2.3-1.7
			c-0.6-0.7-1.2-1.6-1.5-2.6c-0.4-1-0.6-2.1-0.6-3.2c0-0.9,0.1-1.7,0.4-2.4c0.3-0.7,0.6-1.3,1.1-1.8s1-0.8,1.7-1.1
			c0.6-0.2,1.3-0.4,2.1-0.4C77.9,18.9,78.8,19.1,79.7,19.5z M75.8,22.3c-0.3,0.5-0.5,1.2-0.5,2.2c0,0.7,0.1,1.4,0.2,2.1
			c0.2,0.7,0.4,1.2,0.6,1.7c0.3,0.5,0.6,0.9,1,1.2c0.4,0.3,0.8,0.4,1.3,0.4c0.7,0,1.2-0.2,1.5-0.7c0.3-0.5,0.5-1.2,0.5-2.2
			c0-0.7-0.1-1.4-0.2-2.1c-0.2-0.7-0.4-1.2-0.6-1.7c-0.3-0.5-0.6-0.9-1-1.2c-0.4-0.3-0.8-0.4-1.3-0.4C76.6,21.6,76.1,21.8,75.8,22.3
			z"/>
		<g>
			<g>
				<g>
					<path fill="#333333" d="M90.8,30.7L90,32.4c-0.3,0.7-1.1,0.9-1.7,0.6l-0.5-0.2c0,0,0,0,0,0l0.3-0.7c0,0,0,0,0,0l0.5,0.2
						c0.2,0.1,0.5,0,0.7-0.2l0.8-1.7c0.1-0.2,0-0.5-0.2-0.7l-0.3-0.1c-0.2-0.1-0.5,0-0.7,0.2l-0.4,0.8c-0.3-0.1-0.6,0-0.9,0.1
						l0.5-1.2c0.3-0.7,1.1-0.9,1.7-0.6l0.3,0.1C90.8,29.2,91.1,30,90.8,30.7z"/>
					<path fill="#333333" d="M86.2,36.9l0.3,0.1c0.2,0.1,0.5,0,0.7-0.2l0.8-1.7c0.1-0.2,0-0.5-0.2-0.7l-0.5-0.2c0,0,0,0,0,0l0.3-0.7
						c0,0,0,0,0,0l0.5,0.2c0.7,0.3,0.9,1.1,0.6,1.7l-0.8,1.7c-0.3,0.7-1.1,0.9-1.7,0.6l-0.3-0.1c-0.7-0.3-0.9-1.1-0.6-1.7l0.5-1.2
						c0.1,0.3,0.3,0.6,0.5,0.8l-0.4,0.8C85.8,36.4,85.9,36.7,86.2,36.9z"/>
					<path fill="#333333" d="M89.2,31.3l-0.3,0.7l-0.5-0.2c-0.2-0.1-0.5,0-0.7,0.2l-0.8,1.7c-0.1,0.2,0,0.5,0.2,0.7l0.6,0.3
						l-0.3,0.7l-0.6-0.3c-0.7-0.3-0.9-1.1-0.6-1.7l0.8-1.7c0.3-0.7,1.1-0.9,1.7-0.6L89.2,31.3z"/>
				</g>
			</g>
			<g>
				<g>
					<path fill="#333333" d="M94.3,26.4l0.8-1.7c0.3-0.7,1.1-0.9,1.7-0.6l0.5,0.2c0,0,0,0,0,0L97,25c0,0,0,0,0,0l-0.5-0.2
						c-0.2-0.1-0.5,0-0.7,0.2L95,26.7c-0.1,0.2,0,0.5,0.2,0.7l0.3,0.1c0.2,0.1,0.5,0,0.7-0.2l0.4-0.8c0.3,0.1,0.6,0,0.9-0.1
						l-0.5,1.2c-0.3,0.7-1.1,0.9-1.7,0.6l-0.3-0.1C94.2,27.8,93.9,27,94.3,26.4z"/>
					<path fill="#333333" d="M98.9,20.2l-0.3-0.1c-0.2-0.1-0.5,0-0.7,0.2L97.2,22c-0.1,0.2,0,0.5,0.2,0.7l0.5,0.2c0,0,0,0,0,0
						l-0.3,0.7c0,0,0,0,0,0l-0.5-0.2c-0.7-0.3-0.9-1.1-0.6-1.7l0.8-1.7c0.3-0.7,1.1-0.9,1.7-0.6l0.3,0.1c0.7,0.3,0.9,1.1,0.6,1.7
						l-0.5,1.2c-0.1-0.3-0.3-0.6-0.5-0.8l0.4-0.8C99.3,20.6,99.2,20.3,98.9,20.2z"/>
					<path fill="#333333" d="M95.9,25.7l0.3-0.7l0.5,0.2c0.2,0.1,0.5,0,0.7-0.2l0.8-1.7c0.1-0.2,0-0.5-0.2-0.7l-0.6-0.3l0.3-0.7
						l0.6,0.3c0.7,0.3,0.9,1.1,0.6,1.7l-0.8,1.7c-0.3,0.7-1.1,0.9-1.7,0.6L95.9,25.7z"/>
				</g>
			</g>
			<path id="_149931032_1_" fill="#2BB673" d="M92.5,30.4c-0.9,0-1.7-0.8-1.7-1.7c0-0.2,0-0.4,0.1-0.5h0.5v1.4l1.1-1.1l1.1,1.1v-1.4
				h0.5c0.1,0.2,0.1,0.3,0.1,0.5C94.2,29.7,93.5,30.4,92.5,30.4L92.5,30.4z"/>
			<path id="_149931160_1_" fill="#333333" d="M92.3,28.3l-0.5,0.5v-0.9h-0.2h-0.2h-0.3c0.3-0.5,0.8-0.8,1.4-0.8
				c0.6,0,1.1,0.3,1.4,0.8h-0.3h-0.3h0v0.9l-0.5-0.5L92.5,28L92.3,28.3L92.3,28.3z"/>
			<g>
				<g>
					<path fill="#333333" d="M90.2,28.1l-0.3,0.1c-0.7,0.3-1.4,0-1.7-0.6l-0.5-1.2c0.3,0.1,0.6,0.1,0.9,0.1l0.4,0.8
						c0.1,0.2,0.4,0.4,0.7,0.2l0.3-0.1c0.2-0.1,0.4-0.4,0.2-0.7L89.3,25c-0.1-0.2-0.4-0.4-0.7-0.2L88.1,25c0,0,0,0,0,0l-0.3-0.7
						c0,0,0,0,0,0l0.5-0.2c0.7-0.3,1.4,0,1.7,0.6l0.8,1.7C91.1,27,90.8,27.8,90.2,28.1z"/>
					<path fill="#333333" d="M85.9,20.8l0.4,0.8c-0.3,0.2-0.4,0.5-0.5,0.8l-0.5-1.2c-0.3-0.7,0-1.4,0.6-1.7l0.3-0.1
						c0.7-0.3,1.4,0,1.7,0.6l0.8,1.7c0.3,0.7,0,1.4-0.6,1.7l-0.5,0.2c0,0,0,0,0,0l-0.3-0.7c0,0,0,0,0,0l0.5-0.2
						c0.2-0.1,0.4-0.4,0.2-0.7l-0.8-1.7c-0.1-0.2-0.4-0.4-0.7-0.2l-0.3,0.1C85.9,20.3,85.8,20.6,85.9,20.8z"/>
					<path fill="#333333" d="M88.6,25.9c-0.7,0.3-1.4,0-1.7-0.6l-0.8-1.7c-0.3-0.7,0-1.4,0.6-1.7l0.6-0.3l0.3,0.7l-0.6,0.3
						c-0.2,0.1-0.4,0.4-0.2,0.7l0.8,1.7c0.1,0.2,0.4,0.4,0.7,0.2l0.5-0.2l0.3,0.7L88.6,25.9z"/>
				</g>
			</g>
			<g>
				<g>
					<path fill="#333333" d="M94.9,28.9l0.3-0.1c0.7-0.3,1.4,0,1.7,0.6l0.5,1.2c-0.3-0.1-0.6-0.1-0.9-0.1l-0.4-0.8
						c-0.1-0.2-0.4-0.4-0.7-0.2l-0.3,0.1c-0.2,0.1-0.4,0.4-0.2,0.7l0.8,1.7c0.1,0.2,0.4,0.4,0.7,0.2l0.5-0.2c0,0,0,0,0,0l0.3,0.7
						c0,0,0,0,0,0L96.8,33c-0.7,0.3-1.4,0-1.7-0.6l-0.8-1.7C93.9,30,94.2,29.2,94.9,28.9z"/>
					<path fill="#333333" d="M99.2,36.2l-0.4-0.8c0.3-0.2,0.4-0.5,0.5-0.8l0.5,1.2c0.3,0.7,0,1.4-0.6,1.7L99,37.7
						c-0.7,0.3-1.4,0-1.7-0.6l-0.8-1.7c-0.3-0.7,0-1.4,0.6-1.7l0.5-0.2c0,0,0,0,0,0l0.3,0.7c0,0,0,0,0,0l-0.5,0.2
						c-0.2,0.1-0.4,0.4-0.2,0.7l0.8,1.7c0.1,0.2,0.4,0.4,0.7,0.2l0.3-0.1C99.2,36.7,99.3,36.4,99.2,36.2z"/>
					<path fill="#333333" d="M96.4,31.1c0.7-0.3,1.4,0,1.7,0.6l0.8,1.7c0.3,0.7,0,1.4-0.6,1.7l-0.6,0.3l-0.3-0.7l0.6-0.3
						c0.2-0.1,0.4-0.4,0.2-0.7l-0.8-1.7c-0.1-0.2-0.4-0.4-0.7-0.2l-0.5,0.2l-0.3-0.7L96.4,31.1z"/>
				</g>
			</g>
		</g>
	</g>
</g>
</svg>
