<?xml version="1.0" encoding="utf-8"?>
<!-- Generator: Adobe Illustrator 18.1.1, SVG Export Plug-In . SVG Version: 6.00 Build 0)  -->
<!DOCTYPE svg PUBLIC "-//W3C//DTD SVG 1.1//EN" "http://www.w3.org/Graphics/SVG/1.1/DTD/svg11.dtd">
<svg version="1.1" id="Layer_1" xmlns="http://www.w3.org/2000/svg" xmlns:xlink="http://www.w3.org/1999/xlink" x="0px" y="0px"
	 viewBox="0 0 100 100" enable-background="new 0 0 100 100" xml:space="preserve">
<g>
	<g>
		<path fill="#2BB673" d="M10.4,49c0.1-0.3,0.2-0.5,0.4-0.8c0.1-0.3,0.3-0.5,0.4-0.8l6.2-10.4c0.1-0.1,0.2-0.2,0.3-0.3
			c0.1-0.1,0.2-0.1,0.3-0.2c0.1,0,0.2-0.1,0.3-0.1c0.1,0,0.3,0,0.4,0h2.9l-2.3,18.8h-3.3l1.4-11.7c0-0.2,0.1-0.5,0.1-0.7
			c0-0.3,0.1-0.6,0.2-0.8l-6.1,10.3c-0.2,0.3-0.4,0.5-0.6,0.6c-0.2,0.1-0.5,0.2-0.8,0.2H9.6c-0.3,0-0.5-0.1-0.8-0.2
			c-0.2-0.1-0.4-0.3-0.5-0.6L4.8,42.1c0,0.3,0,0.5,0,0.8c0,0.3,0,0.5-0.1,0.7L3.3,55.4H0l2.3-18.8h2.8c0.2,0,0.3,0,0.4,0
			c0.1,0,0.2,0,0.3,0.1c0.1,0,0.2,0.1,0.2,0.2c0.1,0.1,0.2,0.2,0.2,0.3L10,47.5C10.1,48,10.3,48.5,10.4,49z"/>
		<path fill="#2BB673" d="M27.4,55.4c-0.7,0-1.4-0.1-2.1-0.4c-0.6-0.2-1.2-0.6-1.7-1.1c-0.5-0.5-0.8-1.1-1.1-1.8
			c-0.3-0.7-0.4-1.5-0.4-2.4c0-1.2,0.2-2.2,0.6-3.2c0.4-1,0.9-1.9,1.5-2.6c0.6-0.7,1.4-1.3,2.3-1.7c0.9-0.4,1.8-0.6,2.7-0.6
			c0.7,0,1.4,0.1,2.1,0.4c0.6,0.2,1.2,0.6,1.7,1.1c0.5,0.5,0.8,1.1,1.1,1.8c0.3,0.7,0.4,1.5,0.4,2.4c0,1.2-0.2,2.2-0.6,3.2
			c-0.4,1-0.9,1.9-1.5,2.6c-0.7,0.7-1.4,1.3-2.3,1.7C29.3,55.1,28.4,55.4,27.4,55.4z M27.7,52.7c0.5,0,1-0.1,1.3-0.4
			c0.4-0.3,0.7-0.7,1-1.2c0.3-0.5,0.5-1.1,0.6-1.7c0.2-0.7,0.2-1.4,0.2-2.1c0-1-0.2-1.8-0.5-2.2c-0.3-0.5-0.8-0.7-1.5-0.7
			c-0.5,0-0.9,0.1-1.3,0.4c-0.4,0.3-0.7,0.7-1,1.2c-0.3,0.5-0.5,1.1-0.6,1.7c-0.2,0.7-0.2,1.4-0.2,2.1c0,1,0.2,1.8,0.5,2.2
			C26.6,52.4,27.1,52.7,27.7,52.7z"/>
		<path fill="#2BB673" d="M35.7,55.4L37.4,42h1.8c0.4,0,0.7,0.1,0.9,0.3c0.2,0.2,0.3,0.5,0.3,0.9l0,1.4c0.7-0.9,1.4-1.6,2.2-2.1
			c0.8-0.4,1.6-0.7,2.5-0.7c0.6,0,1.1,0.1,1.5,0.3c0.4,0.2,0.8,0.6,1.1,1c0.3,0.4,0.5,1,0.6,1.6c0.1,0.6,0.1,1.4,0,2.2l-1,8.5h-3.6
			l1-8.5c0.1-0.8,0.1-1.4-0.1-1.7c-0.2-0.3-0.5-0.5-1-0.5c-0.3,0-0.7,0.1-1,0.3s-0.7,0.5-1,0.8c-0.3,0.4-0.6,0.8-0.9,1.3
			c-0.3,0.5-0.5,1.1-0.6,1.7l-0.7,6.6H35.7z"/>
		<path fill="#2BB673" d="M61.4,45c0,0.6-0.1,1.1-0.4,1.6c-0.2,0.5-0.7,1-1.3,1.3c-0.6,0.4-1.4,0.7-2.5,1c-1,0.3-2.3,0.5-3.9,0.7v0
			c0,2,0.8,3,2.5,3c0.6,0,1-0.1,1.4-0.2c0.4-0.1,0.6-0.3,0.9-0.5s0.5-0.3,0.7-0.5s0.5-0.2,0.7-0.2c0.1,0,0.2,0,0.3,0.1
			c0.1,0.1,0.2,0.1,0.3,0.2l0.9,1.1c-0.5,0.5-0.9,0.9-1.4,1.2c-0.4,0.3-0.9,0.6-1.4,0.8c-0.5,0.2-1,0.4-1.5,0.5
			c-0.5,0.1-1.1,0.2-1.7,0.2c-0.8,0-1.5-0.1-2.2-0.4c-0.6-0.3-1.2-0.6-1.7-1.1c-0.5-0.5-0.8-1.1-1.1-1.8c-0.3-0.7-0.4-1.5-0.4-2.3
			c0-0.7,0.1-1.4,0.2-2.1c0.2-0.7,0.4-1.3,0.7-1.9c0.3-0.6,0.6-1.2,1.1-1.7c0.4-0.5,0.9-0.9,1.4-1.3c0.5-0.4,1.1-0.7,1.8-0.9
			c0.6-0.2,1.3-0.3,2-0.3c0.7,0,1.3,0.1,1.9,0.3s1,0.5,1.4,0.8c0.4,0.3,0.6,0.7,0.8,1.1C61.4,44.2,61.4,44.6,61.4,45z M56.9,44.1
			c-0.4,0-0.7,0.1-1.1,0.2c-0.3,0.2-0.6,0.4-0.9,0.7c-0.3,0.3-0.5,0.6-0.7,1c-0.2,0.4-0.4,0.9-0.5,1.4c1-0.1,1.7-0.3,2.3-0.4
			c0.6-0.2,1.1-0.3,1.4-0.5c0.3-0.2,0.5-0.4,0.7-0.6c0.1-0.2,0.2-0.4,0.2-0.7c0-0.1,0-0.2-0.1-0.4c-0.1-0.1-0.1-0.2-0.2-0.3
			c-0.1-0.1-0.2-0.2-0.4-0.2C57.3,44.1,57.1,44.1,56.9,44.1z"/>
		<path fill="#2BB673" d="M62.6,55.4L64.2,42h1.8c0.4,0,0.7,0.1,0.9,0.3c0.2,0.2,0.3,0.5,0.3,0.9L67.2,45c0.3-0.6,0.7-1.2,1.1-1.6
			c0.4-0.4,0.8-0.8,1.2-1c0.4-0.2,0.8-0.4,1.2-0.4s0.9,0,1.3,0.2l-0.6,3.4c-0.5-0.2-1-0.3-1.4-0.3c-0.4,0-0.9,0.2-1.2,0.5
			c-0.4,0.3-0.7,0.8-1,1.4c-0.3,0.6-0.6,1.3-0.8,2.3l-0.7,6H62.6z"/>
		<path fill="#2BB673" d="M76.9,55.4c-0.7,0-1.4-0.1-2.1-0.4c-0.6-0.2-1.2-0.6-1.7-1.1c-0.5-0.5-0.8-1.1-1.1-1.8
			c-0.3-0.7-0.4-1.5-0.4-2.4c0-1.2,0.2-2.2,0.6-3.2s0.9-1.9,1.5-2.6c0.6-0.7,1.4-1.3,2.3-1.7c0.9-0.4,1.8-0.6,2.7-0.6
			c0.7,0,1.4,0.1,2.1,0.4c0.6,0.2,1.2,0.6,1.7,1.1s0.8,1.1,1.1,1.8c0.3,0.7,0.4,1.5,0.4,2.4c0,1.2-0.2,2.2-0.6,3.2
			c-0.4,1-0.9,1.9-1.5,2.6c-0.7,0.7-1.4,1.3-2.3,1.7C78.8,55.2,77.9,55.4,76.9,55.4z M77.2,52.7c0.5,0,1-0.1,1.3-0.4
			c0.4-0.3,0.7-0.7,1-1.2c0.3-0.5,0.5-1.1,0.6-1.7c0.2-0.7,0.2-1.4,0.2-2.1c0-1-0.2-1.8-0.5-2.2c-0.3-0.5-0.8-0.7-1.5-0.7
			c-0.5,0-0.9,0.1-1.3,0.4c-0.4,0.3-0.7,0.7-1,1.2c-0.3,0.5-0.5,1.1-0.6,1.7c-0.2,0.7-0.2,1.4-0.2,2.1c0,1,0.2,1.8,0.5,2.2
			C76.1,52.4,76.6,52.7,77.2,52.7z"/>
		<g>
			<g>
				<g>
					<path fill="#333333" d="M90.8,43.6L90,41.9c-0.3-0.7-1.1-0.9-1.7-0.6l-0.5,0.2c0,0,0,0,0,0l0.3,0.7c0,0,0,0,0,0l0.5-0.2
						c0.2-0.1,0.5,0,0.7,0.2l0.8,1.7c0.1,0.2,0,0.5-0.2,0.7l-0.3,0.1c-0.2,0.1-0.5,0-0.7-0.2l-0.4-0.8c-0.3,0.1-0.6,0-0.9-0.1
						l0.5,1.2c0.3,0.7,1.1,0.9,1.7,0.6l0.3-0.1C90.8,45,91.1,44.3,90.8,43.6z"/>
					<path fill="#333333" d="M86.2,37.4l0.3-0.1c0.2-0.1,0.5,0,0.7,0.2l0.8,1.7c0.1,0.2,0,0.5-0.2,0.7l-0.5,0.2c0,0,0,0,0,0l0.3,0.7
						c0,0,0,0,0,0l0.5-0.2c0.7-0.3,0.9-1.1,0.6-1.7l-0.8-1.7c-0.3-0.7-1.1-0.9-1.7-0.6l-0.3,0.1c-0.7,0.3-0.9,1.1-0.6,1.7l0.5,1.2
						c0.1-0.3,0.3-0.6,0.5-0.8l-0.4-0.8C85.8,37.8,85.9,37.5,86.2,37.4z"/>
					<path fill="#333333" d="M89.2,42.9l-0.3-0.7l-0.5,0.2c-0.2,0.1-0.5,0-0.7-0.2l-0.8-1.7c-0.1-0.2,0-0.5,0.2-0.7l0.6-0.3
						l-0.3-0.7l-0.6,0.3c-0.7,0.3-0.9,1.1-0.6,1.7l0.8,1.7c0.3,0.7,1.1,0.9,1.7,0.6L89.2,42.9z"/>
				</g>
			</g>
			<g>
				<g>
					<path fill="#333333" d="M94.3,47.9l0.8,1.7c0.3,0.7,1.1,0.9,1.7,0.6l0.5-0.2c0,0,0,0,0,0L97,49.3c0,0,0,0,0,0l-0.5,0.2
						c-0.2,0.1-0.5,0-0.7-0.2L95,47.6c-0.1-0.2,0-0.5,0.2-0.7l0.3-0.1c0.2-0.1,0.5,0,0.7,0.2l0.4,0.8c0.3-0.1,0.6,0,0.9,0.1
						l-0.5-1.2c-0.3-0.7-1.1-0.9-1.7-0.6l-0.3,0.1C94.2,46.5,93.9,47.3,94.3,47.9z"/>
					<path fill="#333333" d="M98.9,54.1l-0.3,0.1c-0.2,0.1-0.5,0-0.7-0.2l-0.8-1.7c-0.1-0.2,0-0.5,0.2-0.7l0.5-0.2c0,0,0,0,0,0
						l-0.3-0.7c0,0,0,0,0,0l-0.5,0.2c-0.7,0.3-0.9,1.1-0.6,1.7l0.8,1.7c0.3,0.7,1.1,0.9,1.7,0.6l0.3-0.1c0.7-0.3,0.9-1.1,0.6-1.7
						l-0.5-1.2c-0.1,0.3-0.3,0.6-0.5,0.8l0.4,0.8C99.3,53.7,99.2,54,98.9,54.1z"/>
					<path fill="#333333" d="M95.9,48.6l0.3,0.7l0.5-0.2c0.2-0.1,0.5,0,0.7,0.2l0.8,1.7c0.1,0.2,0,0.5-0.2,0.7L97.4,52l0.3,0.7
						l0.6-0.3c0.7-0.3,0.9-1.1,0.6-1.7L98.2,49c-0.3-0.7-1.1-0.9-1.7-0.6L95.9,48.6z"/>
				</g>
			</g>
			<path id="_149931032_2_" fill="#2BB673" d="M92.5,43.8c-0.9,0-1.7,0.8-1.7,1.7c0,0.2,0,0.4,0.1,0.5h0.5v-1.4l1.1,1.1l1.1-1.1v1.4
				h0.5c0.1-0.2,0.1-0.3,0.1-0.5C94.2,44.6,93.5,43.8,92.5,43.8L92.5,43.8z"/>
			<path id="_149931160_2_" fill="#333333" d="M92.3,46l-0.5-0.5v0.9h-0.2h-0.2h-0.3c0.3,0.5,0.8,0.8,1.4,0.8c0.6,0,1.1-0.3,1.4-0.8
				h-0.3h-0.3h0v-0.9L92.8,46l-0.3,0.3L92.3,46L92.3,46z"/>
			<g>
				<g>
					<path fill="#333333" d="M90.2,46.2l-0.3-0.1c-0.7-0.3-1.4,0-1.7,0.6l-0.5,1.2c0.3-0.1,0.6-0.1,0.9-0.1l0.4-0.8
						c0.1-0.2,0.4-0.4,0.7-0.2l0.3,0.1c0.2,0.1,0.4,0.4,0.2,0.7l-0.8,1.7c-0.1,0.2-0.4,0.4-0.7,0.2l-0.5-0.2c0,0,0,0,0,0L87.8,50
						c0,0,0,0,0,0l0.5,0.2c0.7,0.3,1.4,0,1.7-0.6l0.8-1.7C91.1,47.3,90.8,46.5,90.2,46.2z"/>
					<path fill="#333333" d="M85.9,53.4l0.4-0.8c-0.3-0.2-0.4-0.5-0.5-0.8l-0.5,1.2c-0.3,0.7,0,1.4,0.6,1.7l0.3,0.1
						c0.7,0.3,1.4,0,1.7-0.6l0.8-1.7c0.3-0.7,0-1.4-0.6-1.7l-0.5-0.2c0,0,0,0,0,0l-0.3,0.7c0,0,0,0,0,0l0.5,0.2
						c0.2,0.1,0.4,0.4,0.2,0.7L87.1,54c-0.1,0.2-0.4,0.4-0.7,0.2l-0.3-0.1C85.9,54,85.8,53.7,85.9,53.4z"/>
					<path fill="#333333" d="M88.6,48.3c-0.7-0.3-1.4,0-1.7,0.6l-0.8,1.7c-0.3,0.7,0,1.4,0.6,1.7l0.6,0.3l0.3-0.7l-0.6-0.3
						c-0.2-0.1-0.4-0.4-0.2-0.7l0.8-1.7c0.1-0.2,0.4-0.4,0.7-0.2l0.5,0.2l0.3-0.7L88.6,48.3z"/>
				</g>
			</g>
			<g>
				<g>
					<path fill="#333333" d="M94.9,45.3l0.3,0.1c0.7,0.3,1.4,0,1.7-0.6l0.5-1.2c-0.3,0.1-0.6,0.1-0.9,0.1l-0.4,0.8
						c-0.1,0.2-0.4,0.4-0.7,0.2l-0.3-0.1c-0.2-0.1-0.4-0.4-0.2-0.7l0.8-1.7c0.1-0.2,0.4-0.4,0.7-0.2l0.5,0.2c0,0,0,0,0,0l0.3-0.7
						c0,0,0,0,0,0l-0.5-0.2c-0.7-0.3-1.4,0-1.7,0.6l-0.8,1.7C93.9,44.3,94.2,45,94.9,45.3z"/>
					<path fill="#333333" d="M99.2,38.1l-0.4,0.8c0.3,0.2,0.4,0.5,0.5,0.8l0.5-1.2c0.3-0.7,0-1.4-0.6-1.7L99,36.6
						c-0.7-0.3-1.4,0-1.7,0.6l-0.8,1.7c-0.3,0.7,0,1.4,0.6,1.7l0.5,0.2c0,0,0,0,0,0l0.3-0.7c0,0,0,0,0,0l-0.5-0.2
						c-0.2-0.1-0.4-0.4-0.2-0.7l0.8-1.7c0.1-0.2,0.4-0.4,0.7-0.2l0.3,0.1C99.2,37.5,99.3,37.8,99.2,38.1z"/>
					<path fill="#333333" d="M96.4,43.2c0.7,0.3,1.4,0,1.7-0.6l0.8-1.7c0.3-0.7,0-1.4-0.6-1.7l-0.6-0.3l-0.3,0.7l0.6,0.3
						c0.2,0.1,0.4,0.4,0.2,0.7l-0.8,1.7c-0.1,0.2-0.4,0.4-0.7,0.2l-0.5-0.2l-0.3,0.7L96.4,43.2z"/>
				</g>
			</g>
		</g>
	</g>
	<defs>
		<filter id="Adobe_OpacityMaskFilter" filterUnits="userSpaceOnUse" x="0" y="55.4" width="100" height="18.9">
			<feColorMatrix  type="matrix" values="1 0 0 0 0  0 1 0 0 0  0 0 1 0 0  0 0 0 1 0"/>
		</filter>
	</defs>
	<mask maskUnits="userSpaceOnUse" x="0" y="55.4" width="100" height="18.9" id="SVGID_1_">
		<g filter="url(#Adobe_OpacityMaskFilter)">
			<linearGradient id="SVGID_2_" gradientUnits="userSpaceOnUse" x1="50" y1="55.3561" x2="50" y2="81.8885">
				<stop  offset="0" style="stop-color:#FFFFFF"/>
				<stop  offset="7.380247e-03" style="stop-color:#F6F6F6"/>
				<stop  offset="4.767627e-02" style="stop-color:#C8C8C8"/>
				<stop  offset="9.308982e-02" style="stop-color:#9D9D9D"/>
				<stop  offset="0.1419" style="stop-color:#777777"/>
				<stop  offset="0.195" style="stop-color:#575757"/>
				<stop  offset="0.2537" style="stop-color:#3B3B3B"/>
				<stop  offset="0.32" style="stop-color:#252525"/>
				<stop  offset="0.3974" style="stop-color:#141414"/>
				<stop  offset="0.4931" style="stop-color:#090909"/>
				<stop  offset="0.6274" style="stop-color:#020202"/>
				<stop  offset="1" style="stop-color:#000000"/>
			</linearGradient>
			<rect y="55.4" fill="url(#SVGID_2_)" width="100" height="26.5"/>
		</g>
	</mask>
	<g opacity="0.35" mask="url(#SVGID_1_)">
		<path fill="#2BB673" d="M10,63.2L6.3,73.6c-0.1,0.1-0.2,0.2-0.2,0.3C6,74,5.9,74,5.8,74.1c-0.1,0-0.2,0.1-0.3,0.1
			c-0.1,0-0.2,0-0.4,0H2.3L0,55.4h3.3l1.4,11.7c0,0.2,0,0.5,0.1,0.7c0,0.3,0,0.5,0,0.8l3.6-10.3c0.1-0.3,0.3-0.5,0.5-0.6
			c0.2-0.1,0.5-0.2,0.8-0.2h0.5c0.3,0,0.6,0.1,0.8,0.2c0.2,0.1,0.4,0.3,0.6,0.6l6.1,10.3c-0.1-0.3-0.1-0.6-0.2-0.8
			c0-0.3-0.1-0.5-0.1-0.7l-1.4-11.7h3.3l2.3,18.8h-2.9c-0.2,0-0.3,0-0.4,0c-0.1,0-0.2,0-0.3-0.1c-0.1,0-0.2-0.1-0.3-0.2
			c-0.1-0.1-0.2-0.2-0.3-0.3l-6.2-10.4c-0.1-0.3-0.3-0.5-0.4-0.8c-0.1-0.3-0.3-0.5-0.4-0.8C10.3,62.2,10.1,62.7,10,63.2z"/>
		<path fill="#2BB673" d="M30.2,56c0.9,0.4,1.6,1,2.3,1.7c0.7,0.7,1.2,1.6,1.5,2.6c0.4,1,0.6,2.1,0.6,3.2c0,0.9-0.1,1.7-0.4,2.4
			c-0.3,0.7-0.6,1.3-1.1,1.8c-0.5,0.5-1,0.8-1.7,1.1c-0.6,0.2-1.3,0.4-2.1,0.4c-1,0-1.9-0.2-2.7-0.6c-0.9-0.4-1.6-1-2.3-1.7
			c-0.6-0.7-1.2-1.6-1.5-2.6c-0.4-1-0.6-2.1-0.6-3.2c0-0.9,0.1-1.7,0.4-2.4c0.3-0.7,0.6-1.3,1.1-1.8c0.5-0.5,1-0.8,1.7-1.1
			c0.6-0.2,1.3-0.4,2.1-0.4C28.4,55.4,29.3,55.6,30.2,56z M26.2,58.8c-0.3,0.5-0.5,1.2-0.5,2.2c0,0.7,0.1,1.4,0.2,2.1
			c0.2,0.7,0.4,1.2,0.6,1.7c0.3,0.5,0.6,0.9,1,1.2c0.4,0.3,0.8,0.4,1.3,0.4c0.7,0,1.2-0.2,1.5-0.7c0.3-0.5,0.5-1.2,0.5-2.2
			c0-0.7-0.1-1.4-0.2-2.1c-0.2-0.7-0.4-1.2-0.6-1.7c-0.3-0.5-0.6-0.9-1-1.2c-0.4-0.3-0.8-0.4-1.3-0.4C27.1,58,26.6,58.3,26.2,58.8z"
			/>
		<path fill="#2BB673" d="M39.3,55.4l0.7,6.6c0.2,0.6,0.4,1.2,0.6,1.7c0.3,0.5,0.6,0.9,0.9,1.3c0.3,0.4,0.7,0.6,1,0.8
			c0.3,0.2,0.7,0.3,1,0.3c0.5,0,0.8-0.2,1-0.5c0.2-0.3,0.2-0.9,0.1-1.7l-1-8.5h3.6l1,8.5c0.1,0.8,0.1,1.5,0,2.2
			c-0.1,0.6-0.3,1.2-0.6,1.6c-0.3,0.4-0.7,0.8-1.1,1c-0.4,0.2-1,0.3-1.5,0.3c-0.9,0-1.7-0.2-2.5-0.7c-0.8-0.4-1.5-1.1-2.2-2.1l0,1.4
			c0,0.4-0.1,0.7-0.3,0.9c-0.2,0.2-0.5,0.3-0.9,0.3h-1.8l-1.6-13.4H39.3z"/>
		<path fill="#2BB673" d="M61.2,66.9c-0.2,0.4-0.5,0.8-0.8,1.1c-0.4,0.3-0.8,0.6-1.4,0.8s-1.2,0.3-1.9,0.3c-0.7,0-1.4-0.1-2-0.3
			c-0.6-0.2-1.2-0.5-1.8-0.9c-0.5-0.4-1-0.8-1.4-1.3c-0.4-0.5-0.8-1.1-1.1-1.7c-0.3-0.6-0.5-1.2-0.7-1.9c-0.2-0.7-0.2-1.4-0.2-2.1
			c0-0.8,0.1-1.6,0.4-2.3c0.3-0.7,0.6-1.3,1.1-1.8c0.5-0.5,1-0.9,1.7-1.1c0.6-0.3,1.4-0.4,2.2-0.4c0.6,0,1.2,0.1,1.7,0.2
			c0.5,0.1,1,0.3,1.5,0.5c0.5,0.2,0.9,0.5,1.4,0.8c0.4,0.3,0.9,0.7,1.4,1.2l-0.9,1.1c-0.1,0.1-0.2,0.2-0.3,0.2
			c-0.1,0.1-0.2,0.1-0.3,0.1c-0.3,0-0.5-0.1-0.7-0.2s-0.4-0.3-0.7-0.5c-0.3-0.2-0.6-0.3-0.9-0.5c-0.3-0.1-0.8-0.2-1.4-0.2
			c-1.7,0-2.5,1-2.5,3v0c1.6,0.2,2.9,0.4,3.9,0.7c1,0.3,1.9,0.6,2.5,1c0.6,0.4,1,0.8,1.3,1.3c0.2,0.5,0.4,1,0.4,1.6
			C61.4,66.1,61.4,66.5,61.2,66.9z M57.5,66.5c0.2-0.1,0.3-0.1,0.4-0.2c0.1-0.1,0.2-0.2,0.2-0.3c0.1-0.1,0.1-0.2,0.1-0.4
			c0-0.3-0.1-0.5-0.2-0.7c-0.1-0.2-0.3-0.4-0.7-0.6c-0.3-0.2-0.8-0.4-1.4-0.5c-0.6-0.2-1.4-0.3-2.3-0.4c0.1,0.5,0.3,1,0.5,1.4
			c0.2,0.4,0.4,0.8,0.7,1c0.3,0.3,0.6,0.5,0.9,0.7c0.3,0.2,0.7,0.2,1.1,0.2C57.1,66.6,57.3,66.6,57.5,66.5z"/>
		<path fill="#2BB673" d="M66.1,55.4l0.7,6c0.2,0.9,0.5,1.7,0.8,2.3c0.3,0.6,0.6,1,1,1.4c0.4,0.3,0.8,0.5,1.2,0.5
			c0.4,0,0.9-0.1,1.4-0.3l0.6,3.4c-0.4,0.2-0.9,0.3-1.3,0.2s-0.8-0.2-1.2-0.4c-0.4-0.2-0.8-0.6-1.2-1c-0.4-0.4-0.7-1-1.1-1.6
			l0.1,1.9c0,0.4-0.1,0.7-0.3,0.9c-0.2,0.2-0.5,0.3-0.9,0.3h-1.8l-1.6-13.4H66.1z"/>
		<path fill="#2BB673" d="M79.7,56c0.9,0.4,1.6,1,2.3,1.7c0.7,0.7,1.2,1.6,1.5,2.6c0.4,1,0.6,2.1,0.6,3.2c0,0.9-0.1,1.7-0.4,2.4
			c-0.3,0.7-0.6,1.3-1.1,1.8c-0.5,0.5-1,0.8-1.7,1.1c-0.6,0.2-1.3,0.4-2.1,0.4c-1,0-1.9-0.2-2.7-0.6c-0.9-0.4-1.6-1-2.3-1.7
			c-0.6-0.7-1.2-1.6-1.5-2.6c-0.4-1-0.6-2.1-0.6-3.2c0-0.9,0.1-1.7,0.4-2.4c0.3-0.7,0.6-1.3,1.1-1.8c0.5-0.5,1-0.8,1.7-1.1
			c0.6-0.2,1.3-0.4,2.1-0.4C77.9,55.4,78.8,55.6,79.7,56z M75.8,58.8c-0.3,0.5-0.5,1.2-0.5,2.2c0,0.7,0.1,1.4,0.2,2.1
			c0.2,0.7,0.4,1.2,0.6,1.7c0.3,0.5,0.6,0.9,1,1.2c0.4,0.3,0.8,0.4,1.3,0.4c0.7,0,1.2-0.2,1.5-0.7c0.3-0.5,0.5-1.2,0.5-2.2
			c0-0.7-0.1-1.4-0.2-2.1c-0.2-0.7-0.4-1.2-0.6-1.7c-0.3-0.5-0.6-0.9-1-1.2c-0.4-0.3-0.8-0.4-1.3-0.4C76.6,58,76.1,58.3,75.8,58.8z"
			/>
		<g>
			<g>
				<g>
					<path fill="#333333" d="M90.8,67.1L90,68.8c-0.3,0.7-1.1,0.9-1.7,0.6l-0.5-0.2c0,0,0,0,0,0l0.3-0.7c0,0,0,0,0,0l0.5,0.2
						c0.2,0.1,0.5,0,0.7-0.2l0.8-1.7c0.1-0.2,0-0.5-0.2-0.7L89.6,66c-0.2-0.1-0.5,0-0.7,0.2L88.6,67c-0.3-0.1-0.6,0-0.9,0.1l0.5-1.2
						c0.3-0.7,1.1-0.9,1.7-0.6l0.3,0.1C90.8,65.7,91.1,66.5,90.8,67.1z"/>
					<path fill="#333333" d="M86.2,73.3l0.3,0.1c0.2,0.1,0.5,0,0.7-0.2l0.8-1.7c0.1-0.2,0-0.5-0.2-0.7l-0.5-0.2c0,0,0,0,0,0l0.3-0.7
						c0,0,0,0,0,0l0.5,0.2c0.7,0.3,0.9,1.1,0.6,1.7l-0.8,1.7c-0.3,0.7-1.1,0.9-1.7,0.6L85.8,74c-0.7-0.3-0.9-1.1-0.6-1.7l0.5-1.2
						c0.1,0.3,0.3,0.6,0.5,0.8l-0.4,0.8C85.8,72.9,85.9,73.2,86.2,73.3z"/>
					<path fill="#333333" d="M89.2,67.8l-0.3,0.7l-0.5-0.2c-0.2-0.1-0.5,0-0.7,0.2l-0.8,1.7c-0.1,0.2,0,0.5,0.2,0.7l0.6,0.3
						l-0.3,0.7l-0.6-0.3c-0.7-0.3-0.9-1.1-0.6-1.7l0.8-1.7c0.3-0.7,1.1-0.9,1.7-0.6L89.2,67.8z"/>
				</g>
			</g>
			<g>
				<g>
					<path fill="#333333" d="M94.3,62.8l0.8-1.7c0.3-0.7,1.1-0.9,1.7-0.6l0.5,0.2c0,0,0,0,0,0L97,61.4c0,0,0,0,0,0l-0.5-0.2
						c-0.2-0.1-0.5,0-0.7,0.2L95,63.1c-0.1,0.2,0,0.5,0.2,0.7l0.3,0.1c0.2,0.1,0.5,0,0.7-0.2l0.4-0.8c0.3,0.1,0.6,0,0.9-0.1L96.9,64
						c-0.3,0.7-1.1,0.9-1.7,0.6l-0.3-0.1C94.2,64.2,93.9,63.5,94.3,62.8z"/>
					<path fill="#333333" d="M98.9,56.6l-0.3-0.1c-0.2-0.1-0.5,0-0.7,0.2l-0.8,1.7c-0.1,0.2,0,0.5,0.2,0.7l0.5,0.2c0,0,0,0,0,0
						l-0.3,0.7c0,0,0,0,0,0l-0.5-0.2c-0.7-0.3-0.9-1.1-0.6-1.7l0.8-1.7c0.3-0.7,1.1-0.9,1.7-0.6l0.3,0.1c0.7,0.3,0.9,1.1,0.6,1.7
						l-0.5,1.2c-0.1-0.3-0.3-0.6-0.5-0.8l0.4-0.8C99.3,57,99.2,56.7,98.9,56.6z"/>
					<path fill="#333333" d="M95.9,62.1l0.3-0.7l0.5,0.2c0.2,0.1,0.5,0,0.7-0.2l0.8-1.7c0.1-0.2,0-0.5-0.2-0.7l-0.6-0.3l0.3-0.7
						l0.6,0.3c0.7,0.3,0.9,1.1,0.6,1.7l-0.8,1.7c-0.3,0.7-1.1,0.9-1.7,0.6L95.9,62.1z"/>
				</g>
			</g>
			<path id="_149931032_1_" fill="#2BB673" d="M92.5,66.9c-0.9,0-1.7-0.8-1.7-1.7c0-0.2,0-0.4,0.1-0.5h0.5v1.4l1.1-1.1l1.1,1.1v-1.4
				h0.5c0.1,0.2,0.1,0.3,0.1,0.5C94.2,66.1,93.5,66.9,92.5,66.9L92.5,66.9z"/>
			<path id="_149931160_1_" fill="#333333" d="M92.3,64.7l-0.5,0.5v-0.9h-0.2h-0.2h-0.3c0.3-0.5,0.8-0.8,1.4-0.8
				c0.6,0,1.1,0.3,1.4,0.8h-0.3h-0.3h0v0.9l-0.5-0.5l-0.3-0.3L92.3,64.7L92.3,64.7z"/>
			<g>
				<g>
					<path fill="#333333" d="M90.2,64.5l-0.3,0.1c-0.7,0.3-1.4,0-1.7-0.6l-0.5-1.2c0.3,0.1,0.6,0.1,0.9,0.1l0.4,0.8
						c0.1,0.2,0.4,0.4,0.7,0.2l0.3-0.1c0.2-0.1,0.4-0.4,0.2-0.7l-0.8-1.7c-0.1-0.2-0.4-0.4-0.7-0.2l-0.5,0.2c0,0,0,0,0,0l-0.3-0.7
						c0,0,0,0,0,0l0.5-0.2c0.7-0.3,1.4,0,1.7,0.6l0.8,1.7C91.1,63.5,90.8,64.2,90.2,64.5z"/>
					<path fill="#333333" d="M85.9,57.3l0.4,0.8c-0.3,0.2-0.4,0.5-0.5,0.8l-0.5-1.2c-0.3-0.7,0-1.4,0.6-1.7l0.3-0.1
						c0.7-0.3,1.4,0,1.7,0.6l0.8,1.7c0.3,0.7,0,1.4-0.6,1.7l-0.5,0.2c0,0,0,0,0,0l-0.3-0.7c0,0,0,0,0,0l0.5-0.2
						c0.2-0.1,0.4-0.4,0.2-0.7l-0.8-1.7c-0.1-0.2-0.4-0.4-0.7-0.2l-0.3,0.1C85.9,56.7,85.8,57,85.9,57.3z"/>
					<path fill="#333333" d="M88.6,62.4c-0.7,0.3-1.4,0-1.7-0.6l-0.8-1.7c-0.3-0.7,0-1.4,0.6-1.7l0.6-0.3l0.3,0.7L87.1,59
						c-0.2,0.1-0.4,0.4-0.2,0.7l0.8,1.7c0.1,0.2,0.4,0.4,0.7,0.2l0.5-0.2l0.3,0.7L88.6,62.4z"/>
				</g>
			</g>
			<g>
				<g>
					<path fill="#333333" d="M94.9,65.4l0.3-0.1c0.7-0.3,1.4,0,1.7,0.6l0.5,1.2c-0.3-0.1-0.6-0.1-0.9-0.1l-0.4-0.8
						C96,66,95.8,65.9,95.5,66l-0.3,0.1c-0.2,0.1-0.4,0.4-0.2,0.7l0.8,1.7c0.1,0.2,0.4,0.4,0.7,0.2l0.5-0.2c0,0,0,0,0,0l0.3,0.7
						c0,0,0,0,0,0l-0.5,0.2c-0.7,0.3-1.4,0-1.7-0.6l-0.8-1.7C93.9,66.5,94.2,65.7,94.9,65.4z"/>
					<path fill="#333333" d="M99.2,72.6l-0.4-0.8c0.3-0.2,0.4-0.5,0.5-0.8l0.5,1.2c0.3,0.7,0,1.4-0.6,1.7L99,74.2
						c-0.7,0.3-1.4,0-1.7-0.6l-0.8-1.7c-0.3-0.7,0-1.4,0.6-1.7l0.5-0.2c0,0,0,0,0,0l0.3,0.7c0,0,0,0,0,0l-0.5,0.2
						c-0.2,0.1-0.4,0.4-0.2,0.7l0.8,1.7c0.1,0.2,0.4,0.4,0.7,0.2l0.3-0.1C99.2,73.2,99.3,72.9,99.2,72.6z"/>
					<path fill="#333333" d="M96.4,67.5c0.7-0.3,1.4,0,1.7,0.6l0.8,1.7c0.3,0.7,0,1.4-0.6,1.7l-0.6,0.3l-0.3-0.7l0.6-0.3
						c0.2-0.1,0.4-0.4,0.2-0.7l-0.8-1.7c-0.1-0.2-0.4-0.4-0.7-0.2l-0.5,0.2l-0.3-0.7L96.4,67.5z"/>
				</g>
			</g>
		</g>
	</g>
</g>
</svg>
