<?xml version="1.0" encoding="utf-8"?>
<!-- Generator: Adobe Illustrator 18.1.1, SVG Export Plug-In . SVG Version: 6.00 Build 0)  -->
<!DOCTYPE svg PUBLIC "-//W3C//DTD SVG 1.1//EN" "http://www.w3.org/Graphics/SVG/1.1/DTD/svg11.dtd">
<svg version="1.1" id="Layer_1" xmlns="http://www.w3.org/2000/svg" xmlns:xlink="http://www.w3.org/1999/xlink" x="0px" y="0px"
	 viewBox="0 0 510.8 85.5" enable-background="new 0 0 510.8 85.5" xml:space="preserve">
<g>
	<polygon fill="#282829" points="158.5,39.8 143.2,22.8 140.7,22.8 140.7,62.1 148.6,62.1 148.6,40.5 158.5,50.9 168.4,40.5 
		168.3,62.1 176.2,62.1 176.2,22.8 173.7,22.8 	"/>
	<polygon fill="#282829" points="202.4,36.7 194.5,23.4 185.1,23.4 198.6,44.7 198.6,62.1 206.3,62.1 206.3,44.7 219.8,23.4 
		210.3,23.4 	"/>
	<polygon fill="#282829" points="268.2,39.8 252.9,22.8 250.4,22.8 250.4,62.1 258.3,62.1 258.3,40.5 268.2,50.9 278.1,40.5 
		278,62.1 285.9,62.1 285.9,22.8 283.4,22.8 	"/>
	<path fill="#282829" d="M319.3,22.8c-26.6,0-26.6,39.9,0,39.9S345.9,22.8,319.3,22.8z M319.3,54.6c-15.5,0-15.5-23.9,0-23.9
		C334.8,30.7,334.8,54.6,319.3,54.6z"/>
	<polygon fill="#282829" points="374.3,45.3 354.7,22.6 352.7,22.6 352.7,62.1 360.4,62.1 360.4,41.1 380,62.9 382.1,62.9 
		382.1,23.5 374.3,23.5 	"/>
	<polygon fill="#282829" points="405.4,46.6 415.5,46.6 415.5,38.9 405.4,38.9 405.4,31.2 417,31.2 417,23.4 397.6,23.4 397.6,62.1 
		417.7,62.1 417.7,54.4 405.4,54.4 	"/>
	<path fill="#282829" d="M447.2,23.4H432v38.7h7.7V47.3h3.7l7.8,14.8h8.8l-9-16C462.4,42.8,461,23.4,447.2,23.4z M446.5,39.8h-6.8
		v-8.7h6.8C451.8,31.2,451.8,39.8,446.5,39.8z"/>
	<path fill="#282829" d="M490,22.8c-26.6,0-26.6,39.9,0,39.9C516.6,62.7,516.6,22.8,490,22.8z M490,54.6c-15.5,0-15.5-23.9,0-23.9
		C505.5,30.7,505.5,54.6,490,54.6z"/>
	<path fill="#282829" d="M11.1,2.3C6.7,2.3,3,5.9,3,10.4v4h97.2v8.1h8.1V2.3h-81H11.1z"/>
	<path fill="#282829" d="M116.4,2.3v81c4.5,0,8.1-3.6,8.1-8.1V10.4C124.5,5.9,120.9,2.3,116.4,2.3z"/>
	<path fill="#282829" d="M100.2,71.1H59.7V54.7L46.8,67l-12.1-12v16H3v4c0,4.5,3.6,8.1,8.1,8.1h16.2h81V63h-8.1V71.1z"/>
	<polygon fill="#282829" points="92.1,22.5 3,22.5 3,63 26.7,63 26.7,30.6 47,54.4 67.8,30.6 67.8,63 92.1,63 92.1,54.9 108.3,54.9 
		108.3,46.8 92.1,46.8 92.1,38.7 108.3,38.7 108.3,30.6 92.1,30.6 	"/>
</g>
</svg>
